{
.appVersion = "919";
copyright = "Copyright (c) 2011, The Amatic SC Project Authors (vern@newtypography.co.uk), with Reserved Font Names \"Amatic\" \"Amatic SC\"";
customParameters = (
{
name = license;
value = "This Font Software is licensed under the SIL Open Font License, Version 1.1. This license is available with a FAQ at: http://scripts.sil.org/OFL";
},
{
name = licenseURL;
value = "http://scripts.sil.org/OFL";
},
{
name = trademark;
value = "Amatic is a trademark of Vernon Adams and may be registered in certain jurisdictions.";
},
{
name = fsType;
value = "0";
},
{
name = "Use Typo Metrics";
value = 1;
},
{
name = vendorID;
value = NeWT;
}
);
date = "2016-08-30 18:22:45 +0000";
designer = "Vernon Adams";
designerURL = "http://newtypography.co.uk";
familyName = Amatic;
featurePrefixes = (
{

glyphs = (
{
glyphname = A;
lastChange = "2016-08-30 17:52:43 +0000";
layers = (
{
anchors = (
{
name = top;
position = "{478, 1536}";
}
);
layerId = "97F6A72F-75C9-4005-877B-5FF286A1C934";
paths = (
{
closed = 1;
nodes = (
"277 426 LINE",
"336 406 OFFCURVE",
"421 397 OFFCURVE",
"484 397 CURVE SMOOTH",
"491 397 OFFCURVE",
"501 396 OFFCURVE",
"510 396 CURVE SMOOTH",
"530 396 OFFCURVE",
"550 399 OFFCURVE",
"550 416 CURVE SMOOTH",
"550 723 OFFCURVE",
"494 1272 OFFCURVE",
"481 1389 CURVE SMOOTH",
"479 1405 OFFCURVE",
"473 1420 OFFCURVE",
"473 1436 CURVE",
"454 1382 OFFCURVE",
"438 1298 OFFCURVE",
"429 1253 CURVE SMOOTH",
"416 1178 OFFCURVE",
"370 859 OFFCURVE",
"325 664 CURVE SMOOTH",
"309 590 OFFCURVE",
"277 514 OFFCURVE",
"277 438 CURVE SMOOTH"
);
},
{
closed = 1;
nodes = (
"552 35 CURVE SMOOTH",
"552 303 LINE SMOOTH",
"552 344 OFFCURVE",
"315 369 OFFCURVE",
"276 369 CURVE SMOOTH",
"260 369 OFFCURVE",
"196 54 OFFCURVE",
"187 20 CURVE SMOOTH",
"184 9 OFFCURVE",
"175 5 OFFCURVE",
"165 5 CURVE SMOOTH",
"146 5 OFFCURVE",
"123 20 OFFCURVE",
"123 39 CURVE SMOOTH",
"123 41 OFFCURVE",
"124 43 OFFCURVE",
"124 45 CURVE SMOOTH",
"134 84 OFFCURVE",
"200 383 OFFCURVE",
"220 471 CURVE SMOOTH",
"281 737 OFFCURVE",
"313 1008 OFFCURVE",
"372 1274 CURVE SMOOTH",
"380 1313 OFFCURVE",
"431 1536 OFFCURVE",
"468 1536 CURVE SMOOTH",
"488 1536 OFFCURVE",
"503 1532 OFFCURVE",
"515 1516 CURVE SMOOTH",
"535 1485 OFFCURVE",
"579 1010 OFFCURVE",
"585 940 CURVE SMOOTH",
"613 600 LINE",
"613 422 OFFCURVE",
"636 244 OFFCURVE",
"636 66 CURVE SMOOTH",
"636 57 LINE SMOOTH",
"636 24 OFFCURVE",
"634 0 OFFCURVE",
"591 0 CURVE SMOOTH",
"571 0 OFFCURVE",
"552 15 OFFCURVE"
);
}
);
width = 800;
},
{
anchors = (
{
name = ogonek;
position = "{626, 0}";
},
{
name = top;
position = "{527, 1536}";
}
);
layerId = "A3BE8AFD-64C8-4B22-9D76-F0CE292C8BA7";
paths = (
{
closed = 1;
nodes = (
"494 1236 CURVE SMOOTH",
"494 1243 OFFCURVE",
"494 1249 OFFCURVE",
"495 1254 CURVE",
"447 1204 OFFCURVE",
"342 549 OFFCURVE",
"338 464 CURVE",
"397 448 OFFCURVE",
"459 441 OFFCURVE",
"520 441 CURVE SMOOTH",
"533 441 OFFCURVE",
"550 444 OFFCURVE",
"562 447 CURVE",
"552 576 OFFCURVE",
"494 1110 OFFCURVE"
);
},
{
closed = 1;
nodes = (
"572 1525 CURVE",
"572 1370 OFFCURVE",
"652 897 OFFCURVE",
"652 710 CURVE SMOOTH",
"652 521 OFFCURVE",
"695 284 OFFCURVE",
"695 70 CURVE SMOOTH",
"695 24 OFFCURVE",
"674 1 OFFCURVE",
"627 1 CURVE SMOOTH",
"587 1 OFFCURVE",
"564 13 OFFCURVE",
"564 54 CURVE SMOOTH",
"564 321 LINE",
"520 351 OFFCURVE",
"381 369 OFFCURVE",
"325 373 CURVE",
"274 286 OFFCURVE",
"282 117 OFFCURVE",
"224 23 CURVE",
"192 23 OFFCURVE",
"143 26 OFFCURVE",
"134 64 CURVE",
"205 167 OFFCURVE",
"353 1543 OFFCURVE",
"506 1543 CURVE SMOOTH",
"528 1543 OFFCURVE",
"554 1539 OFFCURVE"
);
}
);
width = 846;
}
);
unicode = 0041;
userData = {
com.fontlab.hintData = {
hhints = (
{
position = 0;
width = 21;
}
);
vhints = (
{
position = 77;
width = 64;
},
{
position = 506;
width = 84;
},
{
position = 506;
width = 61;
}
);
};
org.pippin.gimp.org.kernagic = {
lstem = 0;
rstem = 0;
};
};
},
{
glyphname = AE;
lastChange = "2016-08-30 17:52:43 +0000";
layers = (
{
layerId = "97F6A72F-75C9-4005-877B-5FF286A1C934";
paths = (
{
closed = 1;
nodes = (
"504 1393 CURVE",
"479 1362 OFFCURVE",
"310 727 OFFCURVE",
"304 664 CURVE",
"363 666 OFFCURVE",
"454 674 OFFCURVE",
"509 688 CURVE",
"511 844 OFFCURVE",
"517 997 OFFCURVE",
"517 1153 CURVE SMOOTH",
"517 1235 OFFCURVE",
"514 1315 OFFCURVE"
);
},
{
closed = 1;
nodes = (
"504 -12 LINE",
"516 68 OFFCURVE",
"521 147 OFFCURVE",
"521 229 CURVE SMOOTH",
"521 360 OFFCURVE",
"511 492 OFFCURVE",
"511 621 CURVE",
"500 635 LINE",
"469 629 OFFCURVE",
"295 625 OFFCURVE",
"289 600 CURVE SMOOTH",
"187 209 LINE SMOOTH",
"177 174 OFFCURVE",
"152 2 OFFCURVE",
"115 2 CURVE SMOOTH",
"105 2 OFFCURVE",
"99 19 OFFCURVE",
"99 27 CURVE SMOOTH",
"101 121 OFFCURVE",
"156 336 OFFCURVE",
"181 432 CURVE SMOOTH",
"263 756 OFFCURVE",
"351 1076 OFFCURVE",
"449 1393 CURVE SMOOTH",
"461 1434 OFFCURVE",
"488 1544 OFFCURVE",
"543 1544 CURVE SMOOTH",
"594 1544 OFFCURVE",
"648 1554 OFFCURVE",
"701 1554 CURVE SMOOTH",
"721 1554 OFFCURVE",
"765 1551 OFFCURVE",
"765 1522 CURVE",
"752 1497 LINE",
"684 1497 OFFCURVE",
"618 1493 OFFCURVE",
"550 1485 CURVE",
"550 1385 OFFCURVE",
"564 1282 OFFCURVE",
"564 1180 CURVE SMOOTH",
"564 1020 OFFCURVE",
"558 862 OFFCURVE",
"558 702 CURVE",
"568 690 LINE",
"623 690 OFFCURVE",
"675 711 OFFCURVE",
"730 711 CURVE",
"758 676 LINE",
"758 644 OFFCURVE",
"679 641 OFFCURVE",
"612 641 CURVE SMOOTH",
"558 641 LINE",
"558 479 OFFCURVE",
"566 318 OFFCURVE",
"566 154 CURVE SMOOTH",
"566 125 OFFCURVE",
"564 99 OFFCURVE",
"564 70 CURVE SMOOTH",
"564 60 OFFCURVE",
"564 35 OFFCURVE",
"582 35 CURVE SMOOTH",
"660 35 OFFCURVE",
"736 57 OFFCURVE",
"814 57 CURVE SMOOTH",
"828 57 OFFCURVE",
"859 51 OFFCURVE",
"859 31 CURVE SMOOTH",
"859 -18 OFFCURVE",
"615 2 OFFCURVE",
"580 -14 CURVE SMOOTH",
"562 -24 OFFCURVE",
"553 -39 OFFCURVE",
"533 -41 CURVE"
);
}
);
width = 940;
},
{
layerId = "A3BE8AFD-64C8-4B22-9D76-F0CE292C8BA7";
paths = (
{
closed = 1;
nodes = (
"522 2 LINE",
"524 3 LINE",
"532 86 OFFCURVE",
"541 169 OFFCURVE",
"541 253 CURVE SMOOTH",
"541 380 OFFCURVE",
"531 506 OFFCURVE",
"531 633 CURVE",
"472 628 OFFCURVE",
"411 630 OFFCURVE",
"354 611 CURVE",
"253 226 LINE SMOOTH",
"240 178 OFFCURVE",
"225 1 OFFCURVE",
"158 1 CURVE SMOOTH",
"135 1 OFFCURVE",
"118 27 OFFCURVE",
"118 48 CURVE SMOOTH",
"118 288 OFFCURVE",
"384 1103 OFFCURVE",
"470 1380 CURVE SMOOTH",
"487 1437 OFFCURVE",
"509 1544 OFFCURVE",
"586 1544 CURVE SMOOTH",
"639 1544 OFFCURVE",
"691 1554 OFFCURVE",
"744 1554 CURVE SMOOTH",
"781 1554 OFFCURVE",
"831 1546 OFFCURVE",
"831 1498 CURVE SMOOTH",
"831 1492 LINE",
"810 1450 LINE",
"745 1450 OFFCURVE",
"680 1447 OFFCURVE",
"616 1440 CURVE",
"618 1349 OFFCURVE",
"630 1258 OFFCURVE",
"630 1166 CURVE SMOOTH",
"630 1016 OFFCURVE",
"624 866 OFFCURVE",
"624 716 CURVE",
"674 720 OFFCURVE",
"722 735 OFFCURVE",
"772 735 CURVE SMOOTH",
"782 735 LINE",
"824 687 LINE",
"824 629 OFFCURVE",
"757 621 OFFCURVE",
"711 621 CURVE SMOOTH",
"702 621 LINE",
"623 622 LINE",
"624 442 OFFCURVE",
"629 262 OFFCURVE",
"629 82 CURVE",
"705 83 OFFCURVE",
"780 103 OFFCURVE",
"856 103 CURVE SMOOTH",
"885 103 OFFCURVE",
"924 87 OFFCURVE",
"924 53 CURVE SMOOTH",
"924 -8 OFFCURVE",
"760 -12 OFFCURVE",
"680 -12 CURVE SMOOTH",
"648 -12 LINE SMOOTH",
"618 -12 OFFCURVE",
"596 -38 OFFCURVE",
"567 -43 CURVE"
);
},
{
closed = 1;
nodes = (
"527 706 CURVE",
"529 855 OFFCURVE",
"535 1004 OFFCURVE",
"535 1153 CURVE SMOOTH",
"535 1196 OFFCURVE",
"535 1240 OFFCURVE",
"533 1283 CURVE",
"474 1087 OFFCURVE",
"416 889 OFFCURVE",
"374 688 CURVE",
"425 691 OFFCURVE",
"477 695 OFFCURVE"
);
}
);
width = 1026;
}
);
unicode = 00C6;
userData = {
com.fontlab.hintData = {
hhints = (
{
position = -41;
width = 21;
},
{
position = -14;
width = 71;
},
{
position = 641;
width = 49;
},
{
position = 1497;
width = 57;
}
);
vhints = (
{
position = 502;
width = 47;
}
);
};
org.pippin.gimp.org.kernagic = {
lstem = 0;
rstem = 0;
};
};
},
{
glyphname = B;
lastChange = "2016-08-30 17:52:43 +0000";
layers = (
{
anchors = (
{
name = top;
position = "{376, 1536}";
}
);
layerId = "97F6A72F-75C9-4005-877B-5FF286A1C934";
paths = (
{
closed = 1;
nodes = (
"250 887 CURVE",
"252 887 OFFCURVE",
"256 885 OFFCURVE",
"256 885 CURVE",
"387 885 OFFCURVE",
"465 1133 OFFCURVE",
"465 1268 CURVE SMOOTH",
"465 1356 OFFCURVE",
"389 1466 OFFCURVE",
"295 1466 CURVE SMOOTH",
"248 1466 OFFCURVE",
"242 1413 OFFCURVE",
"242 1378 CURVE SMOOTH",
"242 1214 OFFCURVE",
"250 1051 OFFCURVE"
);
},
{
closed = 1;
nodes = (
"260 70 CURVE",
"264 70 OFFCURVE",
"269 68 OFFCURVE",
"273 68 CURVE SMOOTH",
"414 68 OFFCURVE",
"527 211 OFFCURVE",
"527 371 CURVE SMOOTH",
"527 518 OFFCURVE",
"511 745 OFFCURVE",
"351 811 CURVE",
"316 809 OFFCURVE",
"285 794 OFFCURVE",
"250 788 CURVE",
"258 548 OFFCURVE",
"260 310 OFFCURVE"
);
},
{
closed = 1;
nodes = (
"183 16 CURVE SMOOTH",
"183 188 OFFCURVE",
"193 363 OFFCURVE",
"193 535 CURVE SMOOTH",
"193 820 OFFCURVE",
"179 1104 OFFCURVE",
"179 1389 CURVE SMOOTH",
"179 1424 OFFCURVE",
"179 1536 OFFCURVE",
"232 1536 CURVE SMOOTH",
"427 1536 OFFCURVE",
"519 1394 OFFCURVE",
"519 1214 CURVE SMOOTH",
"519 1087 OFFCURVE",
"461 974 OFFCURVE",
"387 874 CURVE",
"532 731 OFFCURVE",
"584 617 OFFCURVE",
"584 433 CURVE SMOOTH",
"584 187 OFFCURVE",
"554 100 OFFCURVE",
"344 8 CURVE",
"315 6 OFFCURVE",
"292 -12 OFFCURVE",
"263 -12 CURVE SMOOTH",
"259 -12 LINE SMOOTH",
"236 -12 OFFCURVE",
"183 -11 OFFCURVE"
);
}
);
width = 740;
},
{
anchors = (
{
name = top;
position = "{407, 1536}";
}
);
layerId = "A3BE8AFD-64C8-4B22-9D76-F0CE292C8BA7";
paths = (
{
closed = 1;
nodes = (
"635 374 CURVE SMOOTH",
"635 282 OFFCURVE",
"546 -17 OFFCURVE",
"290 -17 CURVE SMOOTH",
"282 -17 LINE SMOOTH",
"245 -17 OFFCURVE",
"186 -15 OFFCURVE",
"186 34 CURVE SMOOTH",
"186 202 OFFCURVE",
"196 370 OFFCURVE",
"196 538 CURVE SMOOTH",
"196 815 OFFCURVE",
"182 1093 OFFCURVE",
"182 1370 CURVE SMOOTH",
"182 1382 LINE SMOOTH",
"182 1440 OFFCURVE",
"185 1537 OFFCURVE",
"259 1537 CURVE SMOOTH",
"459 1537 OFFCURVE",
"569 1392 OFFCURVE",
"569 1201 CURVE SMOOTH",
"569 1075 OFFCURVE",
"492 924 OFFCURVE",
"403 859 CURVE",
"585 737 OFFCURVE",
"635 537 OFFCURVE"
);
},
{
closed = 1;
nodes = (
"529 369 CURVE SMOOTH",
"529 717 OFFCURVE",
"373 769 OFFCURVE",
"373 769 CURVE",
"300 769 LINE",
"308 543 OFFCURVE",
"310 316 OFFCURVE",
"310 90 CURVE",
"451 112 OFFCURVE",
"529 232 OFFCURVE"
);
},
{
closed = 1;
nodes = (
"322 1421 CURVE SMOOTH",
"293 1421 OFFCURVE",
"293 1376 OFFCURVE",
"293 1357 CURVE SMOOTH",
"293 1201 OFFCURVE",
"300 1044 OFFCURVE",
"301 888 CURVE",
"394 909 OFFCURVE",
"438 1095 OFFCURVE",
"469 1173 CURVE",
"469 1246 LINE SMOOTH",
"469 1321 OFFCURVE",
"404 1421 OFFCURVE"
);
}
);
width = 774;
}
);
unicode = 0042;
userData = {
com.fontlab.hintData = {
hhints = (
{
position = -12;
width = 80;
},
{
position = 1466;
width = 70;
}
);
vhints = (
{
position = 109;
width = 63;
},
{
position = 113;
width = 77;
},
{
position = 395;
width = 54;
},
{
position = 457;
width = 57;
}
);
};
org.pippin.gimp.org.kernagic = {
lstem = 0;
rstem = 0;
};
};
},
{
glyphname = C;
lastChange = "2016-08-30 17:52:43 +0000";
layers = (
{
anchors = (
{
name = top;
position = "{448, 1536}";
}
);
layerId = "97F6A72F-75C9-4005-877B-5FF286A1C934";
paths = (
{
closed = 1;
nodes = (
"173 877 CURVE SMOOTH",
"173 950 OFFCURVE",
"171 1022 OFFCURVE",
"171 1090 CURVE SMOOTH",
"171 1355 OFFCURVE",
"200 1565 OFFCURVE",
"483 1565 CURVE SMOOTH",
"522 1565 OFFCURVE",
"601 1536 OFFCURVE",
"601 1489 CURVE SMOOTH",
"601 1471 OFFCURVE",
"583 1466 OFFCURVE",
"569 1466 CURVE SMOOTH",
"543 1466 OFFCURVE",
"503 1495 OFFCURVE",
"466 1495 CURVE SMOOTH",
"254 1495 OFFCURVE",
"225 1289 OFFCURVE",
"225 1081 CURVE SMOOTH",
"225 1004 OFFCURVE",
"229 927 OFFCURVE",
"229 860 CURVE SMOOTH",
"229 747 OFFCURVE",
"268 197 OFFCURVE",
"313 127 CURVE SMOOTH",
"350 70 OFFCURVE",
"424 47 OFFCURVE",
"487 47 CURVE SMOOTH",
"540 47 OFFCURVE",
"595 65 OFFCURVE",
"630 106 CURVE SMOOTH",
"640 121 OFFCURVE",
"655 132 OFFCURVE",
"668 132 CURVE SMOOTH",
"679 132 OFFCURVE",
"687 124 OFFCURVE",
"687 102 CURVE SMOOTH",
"687 -2 OFFCURVE",
"542 -33 OFFCURVE",
"460 -33 CURVE SMOOTH",
"378 -33 OFFCURVE",
"282 43 OFFCURVE",
"249 115 CURVE SMOOTH",
"210 199 OFFCURVE",
"173 756 OFFCURVE"
);
}
);
width = 780;
},
{
anchors = (
{
name = bot;
position = "{490, 0}";
},
{
name = top;
position = "{467, 1536}";
}
);
layerId = "A3BE8AFD-64C8-4B22-9D76-F0CE292C8BA7";
paths = (
{
closed = 1;
nodes = (
"680 166 CURVE SMOOTH",
"699 166 OFFCURVE",
"721 154 OFFCURVE",
"740 135 CURVE",
"740 4 OFFCURVE",
"595 -33 OFFCURVE",
"489 -33 CURVE SMOOTH",
"202 -33 OFFCURVE",
"174 425 OFFCURVE",
"174 792 CURVE SMOOTH",
"174 882 OFFCURVE",
"176 966 OFFCURVE",
"176 1037 CURVE SMOOTH",
"176 1100 OFFCURVE",
"178 1164 OFFCURVE",
"190 1226 CURVE",
"186 1248 OFFCURVE",
"184 1270 OFFCURVE",
"184 1290 CURVE SMOOTH",
"184 1463 OFFCURVE",
"333 1565 OFFCURVE",
"510 1565 CURVE SMOOTH",
"565 1565 OFFCURVE",
"653 1531 OFFCURVE",
"653 1465 CURVE SMOOTH",
"653 1434 OFFCURVE",
"624 1419 OFFCURVE",
"596 1419 CURVE SMOOTH",
"576 1419 OFFCURVE",
"534 1426 OFFCURVE",
"523 1444 CURVE",
"523 1443 LINE",
"495 1443 LINE",
"495 1448 LINE",
"298 1448 OFFCURVE",
"293 1294 OFFCURVE",
"293 1140 CURVE SMOOTH",
"293 1093 OFFCURVE",
"299 1046 OFFCURVE",
"299 999 CURVE SMOOTH",
"299 951 OFFCURVE",
"281 904 OFFCURVE",
"281 856 CURVE SMOOTH",
"281 807 LINE SMOOTH",
"281 549 OFFCURVE",
"288 93 OFFCURVE",
"516 93 CURVE SMOOTH",
"583 93 OFFCURVE",
"627 166 OFFCURVE"
);
}
);
width = 918;
}
);
unicode = 0043;
userData = {
com.fontlab.hintData = {
hhints = (
{
position = -33;
width = 80;
},
{
position = 1495;
width = 70;
}
);
vhints = (
{
position = 94;
width = 54;
}
);
};
org.pippin.gimp.org.kernagic = {
lstem = 0;
rstem = 389;
};
};
},
{
glyphname = D;
lastChange = "2016-08-30 17:52:43 +0000";
layers = (
{
anchors = (
{
name = top;
position = "{377, 1536}";
}
);
layerId = "97F6A72F-75C9-4005-877B-5FF286A1C934";
paths = (
{
closed = 1;
nodes = (
"268 100 LINE",
"278 100 LINE",
"548 243 OFFCURVE",
"592 681 OFFCURVE",
"592 874 CURVE SMOOTH",
"592 1132 OFFCURVE",
"549 1473 OFFCURVE",
"262 1473 CURVE SMOOTH",
"246 1473 OFFCURVE",
"219 1473 OFFCURVE",
"219 1450 CURVE SMOOTH",
"219 1335 OFFCURVE",
"237 1223 OFFCURVE",
"237 1110 CURVE SMOOTH",
"237 848 OFFCURVE",
"268 588 OFFCURVE",
"268 330 CURVE SMOOTH"
);
},
{
closed = 1;
nodes = (
"172 37 CURVE SMOOTH",
"172 66 OFFCURVE",
"205 90 OFFCURVE",
"204 119 CURVE SMOOTH",
"198 299 LINE",
"184 858 LINE",
"179 896 OFFCURVE",
"181 1305 OFFCURVE",
"168 1391 CURVE SMOOTH",
"163 1426 OFFCURVE",
"139 1460 OFFCURVE",
"139 1497 CURVE SMOOTH",
"139 1546 OFFCURVE",
"256 1546 OFFCURVE",
"293 1546 CURVE SMOOTH",
"303 1546 LINE SMOOTH",
"644 1546 OFFCURVE",
"654 988 OFFCURVE",
"654 837 CURVE SMOOTH",
"654 592 OFFCURVE",
"545 218 OFFCURVE",
"389 90 CURVE SMOOTH",
"350 59 OFFCURVE",
"270 -4 OFFCURVE",
"247 -4 CURVE SMOOTH",
"222 -4 OFFCURVE",
"172 8 OFFCURVE"
);
}
);
width = 820;
},
{
anchors = (
{
name = mid;
position = "{240, 809}";
},
{
name = top;
position = "{357, 1536}";
}
);
layerId = "A3BE8AFD-64C8-4B22-9D76-F0CE292C8BA7";
paths = (
{
closed = 1;
nodes = (
"274 -5 CURVE SMOOTH",
"232 -5 OFFCURVE",
"174 14 OFFCURVE",
"174 65 CURVE",
"219 112 OFFCURVE",
"219 244 OFFCURVE",
"219 306 CURVE SMOOTH",
"219 533 OFFCURVE",
"181 758 OFFCURVE",
"181 982 CURVE SMOOTH",
"181 1055 OFFCURVE",
"187 1131 OFFCURVE",
"187 1206 CURVE SMOOTH",
"187 1308 OFFCURVE",
"142 1400 OFFCURVE",
"142 1481 CURVE SMOOTH",
"142 1548 OFFCURVE",
"241 1552 OFFCURVE",
"299 1552 CURVE SMOOTH",
"330 1552 LINE SMOOTH",
"693 1552 OFFCURVE",
"699 1023 OFFCURVE",
"699 868 CURVE SMOOTH",
"699 773 LINE",
"688 754 OFFCURVE",
"699 733 OFFCURVE",
"699 711 CURVE SMOOTH",
"699 503 OFFCURVE",
"525 -5 OFFCURVE"
);
},
{
closed = 1;
nodes = (
"317 310 CURVE SMOOTH",
"317 114 LINE",
"534 254 OFFCURVE",
"594 615 OFFCURVE",
"594 854 CURVE SMOOTH",
"594 1061 OFFCURVE",
"550 1429 OFFCURVE",
"268 1429 CURVE",
"268 1427 LINE SMOOTH",
"269 1054 OFFCURVE",
"317 683 OFFCURVE"
);
}
);
width = 882;
}
);
unicode = 0044;
userData = {
com.fontlab.hintData = {
hhints = (
{
position = -4;
width = 104;
},
{
position = 1473;
width = 73;
}
);
vhints = (
{
position = 82;
width = 80;
},
{
position = 111;
width = 51;
},
{
position = 127;
width = 53;
},
{
position = 147;
width = 64;
},
{
position = 535;
width = 62;
}
);
};
org.pippin.gimp.org.kernagic = {
lstem = 0;
rstem = 0;
};
};
},
{
glyphname = Eth;
lastChange = "2016-08-30 17:52:43 +0000";
layers = (
{
layerId = "97F6A72F-75C9-4005-877B-5FF286A1C934";
paths = (
{
closed = 1;
nodes = (
"290 451 CURVE",
"288 449 LINE",
"288 302 OFFCURVE",
"309 153 OFFCURVE",
"309 6 CURVE",
"342 12 OFFCURVE",
"359 36 OFFCURVE",
"382 59 CURVE SMOOTH",
"513 188 OFFCURVE",
"638 430 OFFCURVE",
"638 616 CURVE SMOOTH",
"638 778 OFFCURVE",
"638 927 OFFCURVE",
"595 1087 CURVE",
"554 1286 OFFCURVE",
"438 1477 OFFCURVE",
"235 1538 CURVE",
"231 1534 LINE",
"231 1438 OFFCURVE",
"249 864 OFFCURVE",
"280 821 CURVE",
"327 821 OFFCURVE",
"374 844 OFFCURVE",
"421 844 CURVE SMOOTH",
"446 844 OFFCURVE",
"462 815 OFFCURVE",
"464 795 CURVE",
"444 770 LINE",
"389 770 OFFCURVE",
"331 768 OFFCURVE",
"276 756 CURVE",
"276 719 OFFCURVE",
"286 469 OFFCURVE"
);
},
{
closed = 1;
nodes = (
"241 -49 CURVE",
"239 -49 LINE",
"239 166 OFFCURVE",
"231 391 OFFCURVE",
"221 602 CURVE SMOOTH",
"217 651 OFFCURVE",
"216 707 OFFCURVE",
"204 754 CURVE",
"161 754 OFFCURVE",
"120 741 OFFCURVE",
"79 741 CURVE SMOOTH",
"54 741 OFFCURVE",
"51 756 OFFCURVE",
"51 776 CURVE SMOOTH",
"51 810 OFFCURVE",
"139 813 OFFCURVE",
"178 813 CURVE SMOOTH",
"196 813 LINE",
"204 817 LINE",
"204 819 OFFCURVE",
"206 825 OFFCURVE",
"206 827 CURVE SMOOTH",
"206 950 OFFCURVE",
"178 1073 OFFCURVE",
"178 1196 CURVE SMOOTH",
"178 1319 OFFCURVE",
"161 1440 OFFCURVE",
"161 1563 CURVE SMOOTH",
"161 1573 OFFCURVE",
"182 1606 OFFCURVE",
"194 1606 CURVE SMOOTH",
"374 1606 OFFCURVE",
"540 1384 OFFCURVE",
"616 1241 CURVE",
"616 1237 LINE",
"688 1034 OFFCURVE",
"712 848 OFFCURVE",
"712 649 CURVE SMOOTH",
"712 387 OFFCURVE",
"551 23 OFFCURVE",
"301 -88 CURVE",
"272 -74 OFFCURVE",
"257 -82 OFFCURVE"
);
}
);
width = 880;
},
{
components = (
{
name = D;
},
{
name = hyphen;
transform = "{1, 0, 0, 1, -161, 82}";
}
);
layerId = "A3BE8AFD-64C8-4B22-9D76-F0CE292C8BA7";
width = 882;
}
);
unicode = 00D0;
userData = {
com.fontlab.hintData = {
hhints = (
{
position = 741;
width = 72;
},
{
position = 770;
width = 74;
}
);
vhints = (
{
position = 182;
width = 70;
},
{
position = 242;
width = 67;
},
{
position = 260;
width = 70;
},
{
position = 659;
width = 74;
}
);
};
org.pippin.gimp.org.kernagic = {
lstem = 0;
rstem = 0;
};
};
},
{
glyphname = E;
lastChange = "2016-08-30 17:52:43 +0000";
layers = (
{
anchors = (
{
name = top;
position = "{326, 1536}";
}
);
layerId = "97F6A72F-75C9-4005-877B-5FF286A1C934";
paths = (
{
closed = 1;
nodes = (
"192 33 CURVE SMOOTH",
"192 60 OFFCURVE",
"191 82 OFFCURVE",
"191 109 CURVE SMOOTH",
"191 113 LINE",
"193 412 LINE",
"191 1257 LINE SMOOTH",
"191 1329 OFFCURVE",
"189 1413 OFFCURVE",
"187 1485 CURVE SMOOTH",
"187 1514 OFFCURVE",
"199 1542 OFFCURVE",
"224 1542 CURVE SMOOTH",
"351 1542 LINE SMOOTH",
"380 1542 OFFCURVE",
"414 1542 OFFCURVE",
"414 1503 CURVE SMOOTH",
"414 1464 OFFCURVE",
"369 1464 OFFCURVE",
"340 1464 CURVE SMOOTH",
"322 1464 OFFCURVE",
"292 1468 OFFCURVE",
"274 1468 CURVE SMOOTH",
"258 1468 OFFCURVE",
"250 1467 OFFCURVE",
"250 1444 CURVE SMOOTH",
"250 1327 OFFCURVE",
"251 1213 OFFCURVE",
"251 1096 CURVE SMOOTH",
"251 840 LINE SMOOTH",
"251 834 OFFCURVE",
"253 836 OFFCURVE",
"259 836 CURVE SMOOTH",
"298 838 OFFCURVE",
"331 840 OFFCURVE",
"370 840 CURVE SMOOTH",
"396 840 OFFCURVE",
"404 826 OFFCURVE",
"404 810 CURVE SMOOTH",
"404 785 OFFCURVE",
"396 776 OFFCURVE",
"373 776 CURVE SMOOTH",
"256 776 LINE SMOOTH",
"251 776 OFFCURVE",
"248 775 OFFCURVE",
"248 766 CURVE SMOOTH",
"248 571 OFFCURVE",
"256 358 OFFCURVE",
"256 137 CURVE SMOOTH",
"256 61 LINE",
"297 61 OFFCURVE",
"389 62 OFFCURVE",
"430 62 CURVE SMOOTH",
"448 62 LINE SMOOTH",
"466 62 OFFCURVE",
"486 59 OFFCURVE",
"486 35 CURVE SMOOTH",
"486 -9 OFFCURVE",
"471 -12 OFFCURVE",
"367 -12 CURVE SMOOTH",
"280 -12 LINE SMOOTH",
"232 -12 OFFCURVE",
"192 -9 OFFCURVE"
);
}
);
width = 620;
},
{
anchors = (
{
name = bot;
position = "{360, 0}";
},
{
name = ogonek;
position = "{406, 0}";
},
{
name = top;
position = "{347, 1536}";
}
);
layerId = "A3BE8AFD-64C8-4B22-9D76-F0CE292C8BA7";
paths = (
{
closed = 1;
nodes = (
"551 50 LINE",
"520 -11 OFFCURVE",
"435 -12 OFFCURVE",
"376 -12 CURVE SMOOTH",
"312 -12 LINE SMOOTH",
"264 -12 OFFCURVE",
"210 -10 OFFCURVE",
"210 55 CURVE SMOOTH",
"210 1245 LINE SMOOTH",
"210 1316 OFFCURVE",
"182 1383 OFFCURVE",
"182 1454 CURVE SMOOTH",
"182 1461 LINE",
"197 1486 OFFCURVE",
"211 1513 OFFCURVE",
"233 1533 CURVE",
"284 1533 OFFCURVE",
"334 1551 OFFCURVE",
"385 1551 CURVE SMOOTH",
"421 1551 OFFCURVE",
"479 1527 OFFCURVE",
"479 1484 CURVE SMOOTH",
"479 1432 OFFCURVE",
"428 1423 OFFCURVE",
"386 1423 CURVE SMOOTH",
"366 1423 OFFCURVE",
"347 1425 OFFCURVE",
"327 1425 CURVE SMOOTH",
"320 1425 OFFCURVE",
"312 1425 OFFCURVE",
"305 1424 CURVE",
"305 1311 OFFCURVE",
"321 1199 OFFCURVE",
"321 1086 CURVE SMOOTH",
"321 1008 OFFCURVE",
"312 930 OFFCURVE",
"311 852 CURVE",
"343 858 OFFCURVE",
"374 870 OFFCURVE",
"407 870 CURVE SMOOTH",
"437 870 OFFCURVE",
"467 844 OFFCURVE",
"467 813 CURVE SMOOTH",
"467 782 OFFCURVE",
"447 750 OFFCURVE",
"413 750 CURVE SMOOTH",
"400 750 OFFCURVE",
"381 752 OFFCURVE",
"362 752 CURVE SMOOTH",
"341 752 OFFCURVE",
"330 749 OFFCURVE",
"320 737 CURVE",
"320 105 LINE",
"355 107 OFFCURVE",
"399 111 OFFCURVE",
"434 111 CURVE SMOOTH",
"470 111 OFFCURVE",
"551 108 OFFCURVE",
"551 57 CURVE SMOOTH"
);
}
);
width = 738;
}
);
unicode = 0045;
userData = {
com.fontlab.hintData = {
hhints = (
{
position = -12;
width = 74;
},
{
position = 776;
width = 60;
},
{
position = 1464;
width = 78;
}
);
vhints = (
{
position = 119;
width = 227;
},
{
position = 123;
width = 60;
}
);
};
org.pippin.gimp.org.kernagic = {
lstem = 0;
rstem = 205;
};
};
},
{
glyphname = F;
lastChange = "2016-08-30 17:52:43 +0000";
layers = (
{
anchors = (
{
name = top;
position = "{306, 1536}";
}
);
layerId = "97F6A72F-75C9-4005-877B-5FF286A1C934";
paths = (
{
closed = 1;
nodes = (
"251 -4 CURVE SMOOTH",
"220 -4 OFFCURVE",
"218 26 OFFCURVE",
"218 49 CURVE SMOOTH",
"218 201 LINE SMOOTH",
"218 240 OFFCURVE",
"192 612 OFFCURVE",
"192 819 CURVE SMOOTH",
"192 915 OFFCURVE",
"163 1498 OFFCURVE",
"163 1512 CURVE SMOOTH",
"163 1525 LINE SMOOTH",
"163 1546 OFFCURVE",
"189 1549 OFFCURVE",
"254 1549 CURVE SMOOTH",
"281 1549 OFFCURVE",
"315 1548 OFFCURVE",
"356 1548 CURVE SMOOTH",
"381 1548 OFFCURVE",
"390 1521 OFFCURVE",
"390 1501 CURVE SMOOTH",
"390 1481 OFFCURVE",
"364 1481 OFFCURVE",
"352 1481 CURVE SMOOTH",
"340 1481 OFFCURVE",
"270 1483 OFFCURVE",
"252 1483 CURVE SMOOTH",
"233 1483 OFFCURVE",
"227 1482 OFFCURVE",
"227 1443 CURVE SMOOTH",
"227 1398 OFFCURVE",
"257 892 OFFCURVE",
"257 844 CURVE",
"304 844 OFFCURVE",
"348 868 OFFCURVE",
"395 868 CURVE SMOOTH",
"413 868 OFFCURVE",
"427 843 OFFCURVE",
"427 827 CURVE SMOOTH",
"427 768 OFFCURVE",
"257 811 OFFCURVE",
"257 762 CURVE SMOOTH",
"257 531 OFFCURVE",
"296 303 OFFCURVE",
"296 72 CURVE",
"290 61 LINE",
"294 51 OFFCURVE",
"296 42 OFFCURVE",
"296 34 CURVE SMOOTH",
"296 11 OFFCURVE",
"280 -4 OFFCURVE"
);
}
);
width = 580;
},
{
anchors = (
{
name = top;
position = "{347, 1536}";
}
);
layerId = "A3BE8AFD-64C8-4B22-9D76-F0CE292C8BA7";
paths = (
{
closed = 1;
nodes = (
"360 81 CURVE SMOOTH",
"363 72 OFFCURVE",
"364 64 OFFCURVE",
"364 56 CURVE SMOOTH",
"364 21 OFFCURVE",
"337 -2 OFFCURVE",
"295 -2 CURVE SMOOTH",
"240 -2 OFFCURVE",
"236 90 OFFCURVE",
"236 129 CURVE SMOOTH",
"236 283 OFFCURVE",
"206 1390 OFFCURVE",
"174 1440 CURVE",
"174 1550 OFFCURVE",
"289 1554 OFFCURVE",
"372 1554 CURVE SMOOTH",
"424 1554 OFFCURVE",
"459 1544 OFFCURVE",
"459 1484 CURVE SMOOTH",
"459 1453 OFFCURVE",
"429 1440 OFFCURVE",
"402 1440 CURVE SMOOTH",
"393 1440 OFFCURVE",
"373 1442 OFFCURVE",
"352 1442 CURVE SMOOTH",
"324 1442 OFFCURVE",
"295 1438 OFFCURVE",
"295 1419 CURVE SMOOTH",
"295 1235 OFFCURVE",
"324 1053 OFFCURVE",
"326 869 CURVE",
"364 876 OFFCURVE",
"401 891 OFFCURVE",
"440 891 CURVE SMOOTH",
"472 891 OFFCURVE",
"496 858 OFFCURVE",
"496 828 CURVE SMOOTH",
"496 762 OFFCURVE",
"371 764 OFFCURVE",
"326 761 CURVE",
"326 538 OFFCURVE",
"365 317 OFFCURVE",
"365 94 CURVE SMOOTH",
"365 90 OFFCURVE",
"361 85 OFFCURVE"
);
}
);
width = 702;
}
);
unicode = 0046;
userData = {
com.fontlab.hintData = {
hhints = (
{
position = -4;
width = 21;
},
{
position = 1483;
width = 66;
}
);
vhints = (
{
position = 92;
width = 64;
},
{
position = 121;
width = 65;
},
{
position = 147;
width = 78;
}
);
};
org.pippin.gimp.org.kernagic = {
lstem = 0;
rstem = 197;
};
};
},
{
glyphname = G;
lastChange = "2016-08-30 17:52:43 +0000";
layers = (
{
anchors = (
{
name = top;
position = "{497, 1536}";
}
);
layerId = "97F6A72F-75C9-4005-877B-5FF286A1C934";
paths = (
{
closed = 1;
nodes = (
"171 877 CURVE SMOOTH",
"171 1100 OFFCURVE",
"180 1571 OFFCURVE",
"497 1571 CURVE SMOOTH",
"520 1571 OFFCURVE",
"558 1567 OFFCURVE",
"558 1536 CURVE SMOOTH",
"558 1516 OFFCURVE",
"546 1511 OFFCURVE",
"528 1511 CURVE SMOOTH",
"508 1511 OFFCURVE",
"490 1522 OFFCURVE",
"470 1522 CURVE SMOOTH",
"228 1522 OFFCURVE",
"245 989 OFFCURVE",
"241 827 CURVE SMOOTH",
"240 794 OFFCURVE",
"240 756 OFFCURVE",
"240 715 CURVE SMOOTH",
"240 436 OFFCURVE",
"283 25 OFFCURVE",
"503 25 CURVE SMOOTH",
"583 25 OFFCURVE",
"634 61 OFFCURVE",
"677 127 CURVE",
"677 166 OFFCURVE",
"671 391 OFFCURVE",
"624 391 CURVE SMOOTH",
"597 391 OFFCURVE",
"571 383 OFFCURVE",
"542 383 CURVE SMOOTH",
"519 383 OFFCURVE",
"495 389 OFFCURVE",
"495 418 CURVE SMOOTH",
"495 447 OFFCURVE",
"623 463 OFFCURVE",
"648 463 CURVE SMOOTH",
"697 463 OFFCURVE",
"712 418 OFFCURVE",
"712 377 CURVE SMOOTH",
"712 254 OFFCURVE",
"753 135 OFFCURVE",
"753 12 CURVE SMOOTH",
"753 -4 OFFCURVE",
"746 -20 OFFCURVE",
"726 -20 CURVE SMOOTH",
"697 -20 OFFCURVE",
"677 -6 OFFCURVE",
"677 25 CURVE SMOOTH",
"677 27 OFFCURVE",
"679 33 OFFCURVE",
"679 35 CURVE",
"601 -10 OFFCURVE",
"532 -33 OFFCURVE",
"473 -33 CURVE SMOOTH",
"264 -33 OFFCURVE",
"171 255 OFFCURVE"
);
}
);
width = 920;
},
{
anchors = (
{
name = bot;
position = "{530, 0}";
},
{
name = top;
position = "{507, 1536}";
}
);
layerId = "A3BE8AFD-64C8-4B22-9D76-F0CE292C8BA7";
paths = (
{
closed = 1;
nodes = (
"685 2 CURVE",
"685 4 LINE",
"636 -18 OFFCURVE",
"590 -54 OFFCURVE",
"534 -54 CURVE SMOOTH",
"184 -54 OFFCURVE",
"175 464 OFFCURVE",
"175 711 CURVE SMOOTH",
"175 753 OFFCURVE",
"174 805 OFFCURVE",
"174 862 CURVE SMOOTH",
"174 1158 OFFCURVE",
"200 1591 OFFCURVE",
"525 1591 CURVE SMOOTH",
"563 1591 OFFCURVE",
"610 1580 OFFCURVE",
"610 1533 CURVE SMOOTH",
"610 1503 OFFCURVE",
"584 1485 OFFCURVE",
"556 1485 CURVE SMOOTH",
"536 1485 OFFCURVE",
"517 1495 OFFCURVE",
"497 1495 CURVE SMOOTH",
"289 1495 OFFCURVE",
"284 927 OFFCURVE",
"284 744 CURVE SMOOTH",
"284 709 OFFCURVE",
"283 670 OFFCURVE",
"283 617 CURVE SMOOTH",
"283 400 OFFCURVE",
"301 51 OFFCURVE",
"530 51 CURVE SMOOTH",
"596 51 OFFCURVE",
"644 84 OFFCURVE",
"681 137 CURVE",
"680 190 OFFCURVE",
"672 329 OFFCURVE",
"648 371 CURVE",
"626 369 OFFCURVE",
"596 363 OFFCURVE",
"568 363 CURVE SMOOTH",
"531 363 OFFCURVE",
"498 374 OFFCURVE",
"498 421 CURVE SMOOTH",
"498 477 OFFCURVE",
"635 489 OFFCURVE",
"675 489 CURVE SMOOTH",
"736 489 OFFCURVE",
"762 434 OFFCURVE",
"762 380 CURVE SMOOTH",
"762 257 OFFCURVE",
"803 138 OFFCURVE",
"803 15 CURVE SMOOTH",
"803 -14 OFFCURVE",
"784 -41 OFFCURVE",
"753 -41 CURVE SMOOTH",
"724 -41 OFFCURVE",
"696 -26 OFFCURVE"
);
}
);
width = 914;
}
);
unicode = 0047;
userData = {
com.fontlab.hintData = {
hhints = (
{
position = -33;
width = 58;
},
{
position = 391;
width = 72;
},
{
position = 1522;
width = 49;
}
);
vhints = (
{
position = 94;
width = 69;
},
{
position = 600;
width = 76;
}
);
};
org.pippin.gimp.org.kernagic = {
lstem = 0;
rstem = 0;
};
};
},
{
glyphname = H;
lastChange = "2016-08-30 17:52:43 +0000";
layers = (
{
anchors = (
{
name = top;
position = "{356, 1536}";
}
);
layerId = "97F6A72F-75C9-4005-877B-5FF286A1C934";
paths = (
{
closed = 1;
nodes = (
"524 -20 CURVE SMOOTH",
"497 -20 OFFCURVE",
"495 -6 OFFCURVE",
"495 12 CURVE SMOOTH",
"495 28 OFFCURVE",
"497 43 OFFCURVE",
"497 59 CURVE SMOOTH",
"497 292 OFFCURVE",
"489 538 OFFCURVE",
"477 771 CURVE",
"464 771 LINE SMOOTH",
"439 771 OFFCURVE",
"411 770 OFFCURVE",
"386 770 CURVE SMOOTH",
"337 770 OFFCURVE",
"266 769 OFFCURVE",
"241 763 CURVE",
"241 525 OFFCURVE",
"276 261 OFFCURVE",
"276 23 CURVE SMOOTH",
"276 7 OFFCURVE",
"275 -8 OFFCURVE",
"255 -8 CURVE SMOOTH",
"237 -8 OFFCURVE",
"223 1 OFFCURVE",
"223 20 CURVE SMOOTH",
"223 66 OFFCURVE",
"208 494 OFFCURVE",
"200 598 CURVE SMOOTH",
"177 909 OFFCURVE",
"163 1221 OFFCURVE",
"163 1532 CURVE SMOOTH",
"163 1546 OFFCURVE",
"176 1553 OFFCURVE",
"189 1553 CURVE SMOOTH",
"202 1553 OFFCURVE",
"216 1545 OFFCURVE",
"214 1526 CURVE",
"214 1374 LINE SMOOTH",
"214 1235 OFFCURVE",
"231 1097 OFFCURVE",
"231 958 CURVE SMOOTH",
"231 858 LINE SMOOTH",
"231 833 OFFCURVE",
"233 805 OFFCURVE",
"242 805 CURVE SMOOTH",
"322 805 OFFCURVE",
"397 821 OFFCURVE",
"477 821 CURVE",
"479 825 LINE",
"479 1056 OFFCURVE",
"460 1289 OFFCURVE",
"460 1520 CURVE SMOOTH",
"460 1537 OFFCURVE",
"473 1545 OFFCURVE",
"487 1545 CURVE SMOOTH",
"504 1545 OFFCURVE",
"522 1535 OFFCURVE",
"522 1518 CURVE SMOOTH",
"522 885 OFFCURVE",
"552 293 OFFCURVE",
"552 49 CURVE SMOOTH",
"552 20 LINE SMOOTH",
"552 4 OFFCURVE",
"544 -20 OFFCURVE"
);
}
);
width = 740;
},
{
anchors = (
{
name = top;
position = "{387, 1536}";
}
);
layerId = "A3BE8AFD-64C8-4B22-9D76-F0CE292C8BA7";
paths = (
{
closed = 1;
nodes = (
"174 1510 CURVE SMOOTH",
"174 1537 OFFCURVE",
"189 1547 OFFCURVE",
"209 1547 CURVE SMOOTH",
"236 1547 OFFCURVE",
"270 1529 OFFCURVE",
"281 1514 CURVE",
"276 1462 OFFCURVE",
"274 1411 OFFCURVE",
"274 1360 CURVE SMOOTH",
"274 1220 OFFCURVE",
"288 1079 OFFCURVE",
"288 939 CURVE SMOOTH",
"288 914 OFFCURVE",
"286 888 OFFCURVE",
"286 862 CURVE SMOOTH",
"286 844 OFFCURVE",
"287 827 OFFCURVE",
"290 809 CURVE",
"357 811 OFFCURVE",
"422 822 OFFCURVE",
"489 824 CURVE",
"488 1048 OFFCURVE",
"481 1272 OFFCURVE",
"481 1496 CURVE SMOOTH",
"481 1550 LINE",
"579 1550 OFFCURVE",
"581 1469 OFFCURVE",
"581 1393 CURVE SMOOTH",
"581 943 OFFCURVE",
"620 491 OFFCURVE",
"620 43 CURVE SMOOTH",
"620 10 OFFCURVE",
"597 -31 OFFCURVE",
"560 -31 CURVE SMOOTH",
"521 -31 OFFCURVE",
"508 4 OFFCURVE",
"508 37 CURVE SMOOTH",
"508 278 OFFCURVE",
"503 519 OFFCURVE",
"490 759 CURVE",
"468 763 OFFCURVE",
"445 769 OFFCURVE",
"422 769 CURVE SMOOTH",
"381 769 OFFCURVE",
"339 769 OFFCURVE",
"301 753 CURVE",
"302 521 OFFCURVE",
"335 291 OFFCURVE",
"335 59 CURVE SMOOTH",
"335 34 OFFCURVE",
"319 5 OFFCURVE",
"291 5 CURVE SMOOTH",
"176 5 OFFCURVE",
"174 1319 OFFCURVE"
);
}
);
width = 810;
}
);
unicode = 0048;
userData = {
com.fontlab.hintData = {
hhints = (
{
position = -8;
width = 9;
},
{
position = 770;
width = 35;
},
{
position = 771;
width = 50;
},
{
position = 1533;
width = 20;
}
);
vhints = (
{
position = 94;
width = 51;
},
{
position = 154;
width = 53;
},
{
position = 391;
width = 62;
},
{
position = 426;
width = 57;
}
);
};
org.pippin.gimp.org.kernagic = {
lstem = 0;
rstem = 0;
};
};
},
{
glyphname = Hbar;
lastChange = "2016-08-30 17:52:43 +0000";
layers = (
{
layerId = "97F6A72F-75C9-4005-877B-5FF286A1C934";
paths = (
{
closed = 1;
nodes = (
"533 -33 CURVE SMOOTH",
"506 -33 OFFCURVE",
"504 -6 OFFCURVE",
"504 12 CURVE SMOOTH",
"504 28 OFFCURVE",
"506 43 OFFCURVE",
"506 59 CURVE SMOOTH",
"506 292 OFFCURVE",
"498 529 OFFCURVE",
"486 762 CURVE SMOOTH",
"482 762 OFFCURVE",
"477 760 OFFCURVE",
"473 760 CURVE SMOOTH",
"448 760 OFFCURVE",
"420 770 OFFCURVE",
"395 770 CURVE SMOOTH",
"346 770 OFFCURVE",
"293 770 OFFCURVE",
"250 745 CURVE",
"250 507 OFFCURVE",
"285 275 OFFCURVE",
"285 37 CURVE SMOOTH",
"285 21 OFFCURVE",
"284 6 OFFCURVE",
"264 6 CURVE SMOOTH",
"246 6 OFFCURVE",
"238 9 OFFCURVE",
"232 27 CURVE SMOOTH",
"212 86 OFFCURVE",
"217 494 OFFCURVE",
"209 598 CURVE SMOOTH",
"194 800 OFFCURVE",
"183 1003 OFFCURVE",
"177 1206 CURVE",
"174 1206 LINE SMOOTH",
"156 1206 OFFCURVE",
"131 1218 OFFCURVE",
"131 1241 CURVE SMOOTH",
"131 1242 OFFCURVE",
"148 1244 OFFCURVE",
"176 1245 CURVE",
"173 1341 OFFCURVE",
"172 1436 OFFCURVE",
"172 1532 CURVE",
"205 1548 LINE",
"232 1526 LINE",
"226 1475 OFFCURVE",
"223 1425 OFFCURVE",
"223 1374 CURVE SMOOTH",
"223 1331 OFFCURVE",
"225 1289 OFFCURVE",
"227 1247 CURVE",
"302 1249 OFFCURVE",
"404 1250 OFFCURVE",
"475 1251 CURVE",
"472 1341 OFFCURVE",
"469 1430 OFFCURVE",
"469 1520 CURVE SMOOTH",
"469 1530 OFFCURVE",
"471 1538 OFFCURVE",
"473 1548 CURVE",
"526 1548 OFFCURVE",
"531 1462 OFFCURVE",
"531 1382 CURVE SMOOTH",
"531 1251 LINE",
"544 1249 OFFCURVE",
"559 1233 OFFCURVE",
"559 1212 CURVE",
"532 1212 LINE",
"537 667 OFFCURVE",
"561 271 OFFCURVE",
"561 49 CURVE",
"565 41 OFFCURVE",
"570 30 OFFCURVE",
"570 20 CURVE SMOOTH",
"570 4 OFFCURVE",
"553 -33 OFFCURVE"
);
},
{
closed = 1;
nodes = (
"229 1207 CURVE",
"234 1124 OFFCURVE",
"240 1041 OFFCURVE",
"240 958 CURVE SMOOTH",
"240 931 OFFCURVE",
"238 904 OFFCURVE",
"238 877 CURVE SMOOTH",
"238 852 OFFCURVE",
"240 828 OFFCURVE",
"246 805 CURVE",
"326 805 OFFCURVE",
"406 821 OFFCURVE",
"486 821 CURVE",
"488 825 LINE",
"488 953 OFFCURVE",
"482 1083 OFFCURVE",
"477 1212 CURVE",
"406 1211 OFFCURVE",
"303 1208 OFFCURVE"
);
}
);
width = 760;
},
{
components = (
{
name = exclam;
transform = "{-1, 0, 0, -1, 580, 1338}";
}
);
layerId = "A3BE8AFD-64C8-4B22-9D76-F0CE292C8BA7";
width = 594;
}
);
unicode = 0126;
userData = {
com.fontlab.hintData = {
hhints = (
{
position = -33;
width = 21;
},
{
position = 760;
width = 61;
},
{
position = 1206;
width = 39;
},
{
position = 1528;
width = 20;
}
);
vhints = (
{
position = 99;
width = 61;
},
{
position = 131;
width = 41;
},
{
position = 397;
width = 56;
},
{
position = 426;
width = 66;
}
);
};
org.pippin.gimp.org.kernagic = {
lstem = 0;
rstem = 0;
};
};
},
{
glyphname = I;
lastChange = "2016-08-30 17:52:43 +0000";
layers = (
{
anchors = (
{
name = top;
position = "{296, 1536}";
}
);
layerId = "97F6A72F-75C9-4005-877B-5FF286A1C934";
paths = (
{
closed = 1;
nodes = (
"289 70 LINE",
"289 429 OFFCURVE",
"268 765 OFFCURVE",
"259 1114 CURVE SMOOTH",
"259 1159 OFFCURVE",
"261 1266 OFFCURVE",
"261 1354 CURVE SMOOTH",
"261 1407 OFFCURVE",
"261 1464 OFFCURVE",
"255 1484 CURVE",
"185 1484 LINE SMOOTH",
"167 1484 OFFCURVE",
"163 1499 OFFCURVE",
"163 1513 CURVE SMOOTH",
"163 1543 OFFCURVE",
"177 1548 OFFCURVE",
"256 1548 CURVE SMOOTH",
"289 1548 OFFCURVE",
"333 1547 OFFCURVE",
"392 1547 CURVE SMOOTH",
"410 1547 OFFCURVE",
"429 1538 OFFCURVE",
"429 1518 CURVE SMOOTH",
"429 1504 OFFCURVE",
"422 1485 OFFCURVE",
"404 1485 CURVE SMOOTH",
"386 1485 OFFCURVE",
"369 1487 OFFCURVE",
"355 1487 CURVE SMOOTH",
"322 1487 OFFCURVE",
"306 1487 OFFCURVE",
"306 1474 CURVE SMOOTH",
"306 1083 OFFCURVE",
"357 577 OFFCURVE",
"357 184 CURVE SMOOTH",
"357 149 OFFCURVE",
"355 106 OFFCURVE",
"355 71 CURVE",
"429 71 LINE SMOOTH",
"463 71 OFFCURVE",
"475 57 OFFCURVE",
"475 42 CURVE SMOOTH",
"475 26 OFFCURVE",
"461 8 OFFCURVE",
"447 8 CURVE SMOOTH",
"361 8 OFFCURVE",
"311 10 OFFCURVE",
"211 10 CURVE SMOOTH",
"189 10 OFFCURVE",
"175 28 OFFCURVE",
"175 44 CURVE SMOOTH",
"175 58 OFFCURVE",
"185 70 OFFCURVE",
"209 70 CURVE SMOOTH"
);
}
);
width = 660;
},
{
anchors = (
{
name = ogonek;
position = "{346, 0}";
},
{
name = top;
position = "{317, 1536}";
}
);
layerId = "A3BE8AFD-64C8-4B22-9D76-F0CE292C8BA7";
paths = (
{
closed = 1;
nodes = (
"466 8 LINE",
"446 8 OFFCURVE",
"388 3 OFFCURVE",
"327 3 CURVE SMOOTH",
"241 3 OFFCURVE",
"150 13 OFFCURVE",
"150 64 CURVE SMOOTH",
"150 101 OFFCURVE",
"180 113 OFFCURVE",
"212 113 CURVE SMOOTH",
"229 113 OFFCURVE",
"243 110 OFFCURVE",
"255 110 CURVE SMOOTH",
"274 110 OFFCURVE",
"285 118 OFFCURVE",
"285 158 CURVE SMOOTH",
"285 474 OFFCURVE",
"247 789 OFFCURVE",
"247 1105 CURVE SMOOTH",
"247 1175 OFFCURVE",
"251 1244 OFFCURVE",
"251 1314 CURVE SMOOTH",
"251 1352 OFFCURVE",
"250 1390 OFFCURVE",
"246 1428 CURVE",
"231 1423 OFFCURVE",
"213 1419 OFFCURVE",
"198 1419 CURVE SMOOTH",
"171 1419 OFFCURVE",
"150 1430 OFFCURVE",
"150 1468 CURVE SMOOTH",
"150 1540 OFFCURVE",
"351 1553 OFFCURVE",
"403 1553 CURVE SMOOTH",
"434 1553 OFFCURVE",
"463 1529 OFFCURVE",
"463 1497 CURVE SMOOTH",
"463 1470 OFFCURVE",
"445 1442 OFFCURVE",
"415 1442 CURVE SMOOTH",
"401 1442 OFFCURVE",
"389 1443 OFFCURVE",
"379 1443 CURVE SMOOTH",
"355 1443 OFFCURVE",
"340 1437 OFFCURVE",
"340 1401 CURVE SMOOTH",
"340 1001 OFFCURVE",
"390 603 OFFCURVE",
"390 203 CURVE SMOOTH",
"390 124 LINE",
"404 126 OFFCURVE",
"418 127 OFFCURVE",
"432 127 CURVE SMOOTH",
"477 127 OFFCURVE",
"517 113 OFFCURVE",
"517 55 CURVE SMOOTH",
"517 43 LINE"
);
}
);
width = 702;
}
);
unicode = 0049;
userData = {
com.fontlab.hintData = {
hhints = (
{
position = 10;
width = 60;
},
{
position = 1484;
width = 64;
}
);
vhints = (
{
position = 172;
width = 47;
},
{
position = 202;
width = 68;
}
);
};
org.pippin.gimp.org.kernagic = {
lstem = 0;
rstem = 0;
};
};
},
{
glyphname = J;
lastChange = "2016-08-30 17:52:43 +0000";
layers = (
{
anchors = (
{
name = top;
position = "{346, 1536}";
}
);
layerId = "97F6A72F-75C9-4005-877B-5FF286A1C934";
paths = (
{
closed = 1;
nodes = (
"188 -160 CURVE SMOOTH",
"190 -133 OFFCURVE",
"244 -110 OFFCURVE",
"262 -92 CURVE SMOOTH",
"344 -10 OFFCURVE",
"352 135 OFFCURVE",
"352 221 CURVE SMOOTH",
"352 414 OFFCURVE",
"334 608 OFFCURVE",
"330 801 CURVE SMOOTH",
"325 1026 OFFCURVE",
"309 1261 OFFCURVE",
"309 1489 CURVE",
"272 1489 OFFCURVE",
"223 1485 OFFCURVE",
"186 1485 CURVE SMOOTH",
"170 1485 OFFCURVE",
"158 1500 OFFCURVE",
"158 1516 CURVE SMOOTH",
"158 1548 OFFCURVE",
"174 1554 OFFCURVE",
"253 1554 CURVE SMOOTH",
"295 1554 OFFCURVE",
"355 1552 OFFCURVE",
"440 1552 CURVE SMOOTH",
"458 1552 OFFCURVE",
"473 1538 OFFCURVE",
"473 1520 CURVE SMOOTH",
"473 1492 OFFCURVE",
"457 1489 OFFCURVE",
"417 1489 CURVE SMOOTH",
"371 1489 LINE",
"371 1077 OFFCURVE",
"416 451 OFFCURVE",
"416 305 CURVE SMOOTH",
"416 75 OFFCURVE",
"404 -79 OFFCURVE",
"231 -199 CURVE",
"204 -199 OFFCURVE",
"188 -187 OFFCURVE"
);
}
);
width = 620;
},
{
anchors = (
{
name = top;
position = "{407, 1536}";
}
);
layerId = "A3BE8AFD-64C8-4B22-9D76-F0CE292C8BA7";
paths = (
{
closed = 1;
nodes = (
"340 1445 CURVE",
"311 1439 OFFCURVE",
"281 1429 OFFCURVE",
"251 1429 CURVE SMOOTH",
"223 1429 OFFCURVE",
"199 1453 OFFCURVE",
"199 1481 CURVE SMOOTH",
"199 1553 OFFCURVE",
"395 1553 OFFCURVE",
"444 1553 CURVE SMOOTH",
"470 1553 LINE SMOOTH",
"512 1553 OFFCURVE",
"562 1548 OFFCURVE",
"562 1497 CURVE SMOOTH",
"562 1453 OFFCURVE",
"512 1444 OFFCURVE",
"477 1444 CURVE SMOOTH",
"475 1444 OFFCURVE",
"473 1445 OFFCURVE",
"471 1445 CURVE SMOOTH",
"443 1445 LINE",
"443 1429 LINE SMOOTH",
"443 1323 OFFCURVE",
"467 1218 OFFCURVE",
"467 1112 CURVE SMOOTH",
"467 846 OFFCURVE",
"504 581 OFFCURVE",
"504 315 CURVE SMOOTH",
"504 260 OFFCURVE",
"503 207 OFFCURVE",
"503 152 CURVE SMOOTH",
"503 0 OFFCURVE",
"440 -147 OFFCURVE",
"305 -194 CURVE",
"265 -194 OFFCURVE",
"231 -175 OFFCURVE",
"231 -131 CURVE SMOOTH",
"231 -94 OFFCURVE",
"281 -61 OFFCURVE",
"311 -48 CURVE",
"339 -12 OFFCURVE",
"393 102 OFFCURVE",
"393 241 CURVE SMOOTH",
"393 307 OFFCURVE",
"396 374 OFFCURVE",
"396 441 CURVE SMOOTH",
"396 469 OFFCURVE",
"395 497 OFFCURVE",
"394 525 CURVE SMOOTH",
"384 706 OFFCURVE",
"378 1025 OFFCURVE"
);
}
);
width = 720;
}
);
unicode = 004A;
userData = {
com.fontlab.hintData = {
hhints = (
{
position = 1489;
width = 65;
}
);
vhints = (
{
position = 223;
width = 62;
},
{
position = 266;
width = 64;
}
);
};
org.pippin.gimp.org.kernagic = {
lstem = 69;
rstem = 0;
};
};
},
{
glyphname = Jcircumflex;
lastChange = "2016-08-30 17:52:43 +0000";
layers = (
{
components = (
{
name = J;
},
{
name = circumflex;
transform = "{1, 0, 0, 1, 34, 731}";
}
);
layerId = "97F6A72F-75C9-4005-877B-5FF286A1C934";
width = 620;
},
{
layerId = "A3BE8AFD-64C8-4B22-9D76-F0CE292C8BA7";
paths = (
{
closed = 1;
nodes = (
"169 711 CURVE SMOOTH",
"141 711 OFFCURVE",
"118 735 OFFCURVE",
"118 763 CURVE SMOOTH",
"118 822 OFFCURVE",
"229 835 OFFCURVE",
"336 835 CURVE SMOOTH",
"415 835 OFFCURVE",
"491 828 OFFCURVE",
"519 828 CURVE SMOOTH",
"631 828 OFFCURVE",
"742 848 OFFCURVE",
"854 848 CURVE SMOOTH",
"886 848 OFFCURVE",
"921 824 OFFCURVE",
"921 790 CURVE SMOOTH",
"921 766 OFFCURVE",
"914 741 OFFCURVE",
"902 720 CURVE",
"902 658 OFFCURVE",
"907 596 OFFCURVE",
"926 537 CURVE",
"922 509 OFFCURVE",
"904 475 OFFCURVE",
"872 475 CURVE SMOOTH",
"818 475 OFFCURVE",
"809 536 OFFCURVE",
"809 592 CURVE SMOOTH",
"809 618 OFFCURVE",
"811 643 OFFCURVE",
"811 659 CURVE SMOOTH",
"811 682 OFFCURVE",
"810 705 OFFCURVE",
"806 727 CURVE",
"781 728 OFFCURVE",
"755 733 OFFCURVE",
"730 733 CURVE SMOOTH",
"543 733 OFFCURVE",
"356 711 OFFCURVE"
);
}
);
width = 1098;
}
);
unicode = 0134;
userData = {
com.fontlab.hintData = {
hhints = (
{
position = 1489;
width = 65;
},
{
position = 1673;
width = 383;
}
);
vhints = (
{
position = 66;
width = 72;
},
{
position = 223;
width = 62;
},
{
position = 266;
width = 64;
},
{
position = 283;
width = 64;
}
);
};
org.pippin.gimp.org.kernagic = {
lstem = 0;
rstem = 0;
};
};
},
{
glyphname = K;
lastChange = "2016-08-30 17:52:43 +0000";
layers = (
{
anchors = (
{
name = top;
position = "{416, 1536}";
}
);
layerId = "97F6A72F-75C9-4005-877B-5FF286A1C934";
paths = (
{
closed = 1;
nodes = (
"361 884 CURVE",
"347 919 LINE",
"338 902 OFFCURVE",
"271 792 OFFCURVE",
"254 763 CURVE",
"254 34 LINE SMOOTH",
"254 -4 OFFCURVE",
"251 -26 OFFCURVE",
"221 -26 CURVE SMOOTH",
"190 -26 OFFCURVE",
"187 -5 OFFCURVE",
"187 38 CURVE SMOOTH",
"187 657 LINE SMOOTH",
"187 901 OFFCURVE",
"196 1199 OFFCURVE",
"196 1443 CURVE SMOOTH",
"196 1496 OFFCURVE",
"198 1540 OFFCURVE",
"223 1540 CURVE SMOOTH",
"264 1540 OFFCURVE",
"267 1526 OFFCURVE",
"267 1453 CURVE SMOOTH",
"267 1281 OFFCURVE",
"260 911 OFFCURVE",
"260 864 CURVE",
"262 864 LINE",
"332 1011 OFFCURVE",
"386 1163 OFFCURVE",
"449 1313 CURVE SMOOTH",
"465 1354 OFFCURVE",
"561 1597 OFFCURVE",
"594 1597 CURVE SMOOTH",
"612 1597 OFFCURVE",
"629 1587 OFFCURVE",
"629 1567 CURVE SMOOTH",
"623 1518 OFFCURVE",
"594 1489 OFFCURVE",
"576 1448 CURVE SMOOTH",
"537 1364 OFFCURVE",
"423 1082 OFFCURVE",
"385 993 CURVE SMOOTH",
"381 983 OFFCURVE",
"381 978 OFFCURVE",
"387 969 CURVE SMOOTH",
"514 647 OFFCURVE",
"633 190 OFFCURVE",
"684 12 CURVE SMOOTH",
"686 7 OFFCURVE",
"687 2 OFFCURVE",
"687 -2 CURVE SMOOTH",
"687 -22 OFFCURVE",
"668 -32 OFFCURVE",
"651 -32 CURVE SMOOTH",
"640 -32 OFFCURVE",
"630 -28 OFFCURVE",
"627 -19 CURVE SMOOTH",
"590 100 OFFCURVE",
"412 737 OFFCURVE"
);
}
);
width = 820;
},
{
anchors = (
{
name = bot;
position = "{430, 0}";
},
{
name = top;
position = "{417, 1536}";
}
);
layerId = "A3BE8AFD-64C8-4B22-9D76-F0CE292C8BA7";
paths = (
{
closed = 1;
nodes = (
"174 1476 CURVE SMOOTH",
"174 1509 OFFCURVE",
"197 1541 OFFCURVE",
"232 1541 CURVE SMOOTH",
"306 1541 OFFCURVE",
"308 1426 OFFCURVE",
"308 1375 CURVE SMOOTH",
"308 1235 OFFCURVE",
"302 1094 OFFCURVE",
"299 954 CURVE",
"338 1045 OFFCURVE",
"536 1596 OFFCURVE",
"606 1596 CURVE SMOOTH",
"636 1596 OFFCURVE",
"664 1574 OFFCURVE",
"664 1542 CURVE SMOOTH",
"664 1497 OFFCURVE",
"453 1108 OFFCURVE",
"427 991 CURVE",
"427 955 LINE",
"463 864 OFFCURVE",
"724 48 OFFCURVE",
"724 11 CURVE SMOOTH",
"724 -23 OFFCURVE",
"691 -48 OFFCURVE",
"659 -48 CURVE SMOOTH",
"643 -48 OFFCURVE",
"627 -41 OFFCURVE",
"611 -40 CURVE",
"556 272 OFFCURVE",
"493 590 OFFCURVE",
"361 880 CURVE",
"307 776 OFFCURVE",
"291 769 OFFCURVE",
"291 650 CURVE SMOOTH",
"291 523 OFFCURVE",
"304 397 OFFCURVE",
"304 270 CURVE SMOOTH",
"304 102 LINE SMOOTH",
"304 78 OFFCURVE",
"302 -7 OFFCURVE",
"234 -7 CURVE SMOOTH",
"176 -7 OFFCURVE",
"174 67 OFFCURVE",
"174 108 CURVE SMOOTH",
"174 292 OFFCURVE",
"201 476 OFFCURVE",
"201 660 CURVE SMOOTH",
"201 754 OFFCURVE",
"204 905 OFFCURVE",
"204 1049 CURVE SMOOTH",
"204 1238 OFFCURVE",
"174 1347 OFFCURVE"
);
}
);
width = 864;
}
);
unicode = 004B;
userData = {
com.fontlab.hintData = {
hhints = (
{
position = -26;
width = 21;
}
);
vhints = (
{
position = 105;
width = 67;
}
);
};
org.pippin.gimp.org.kernagic = {
lstem = 0;
rstem = 0;
};
};
},
{
glyphname = L;
lastChange = "2016-08-30 17:52:43 +0000";
layers = (
{
anchors = (
{
name = slash;
position = "{221, 839}";
},
{
name = top;
position = "{326, 1536}";
}
);
layerId = "97F6A72F-75C9-4005-877B-5FF286A1C934";
paths = (
{
closed = 1;
nodes = (
"211 31 CURVE SMOOTH",
"211 49 OFFCURVE",
"212 72 OFFCURVE",
"212 113 CURVE SMOOTH",
"212 306 OFFCURVE",
"192 499 OFFCURVE",
"192 694 CURVE SMOOTH",
"192 979 OFFCURVE",
"171 1265 OFFCURVE",
"171 1550 CURVE SMOOTH",
"171 1566 OFFCURVE",
"187 1574 OFFCURVE",
"201 1574 CURVE SMOOTH",
"224 1574 OFFCURVE",
"237 1568 OFFCURVE",
"237 1545 CURVE SMOOTH",
"237 1359 OFFCURVE",
"237 1163 OFFCURVE",
"245 977 CURVE",
"255 610 LINE",
"255 454 OFFCURVE",
"274 231 OFFCURVE",
"278 75 CURVE SMOOTH",
"278 68 OFFCURVE",
"283 68 OFFCURVE",
"312 68 CURVE SMOOTH",
"438 68 LINE SMOOTH",
"461 68 OFFCURVE",
"466 49 OFFCURVE",
"466 31 CURVE SMOOTH",
"466 15 OFFCURVE",
"459 -9 OFFCURVE",
"441 -9 CURVE SMOOTH",
"433 -9 OFFCURVE",
"422 -11 OFFCURVE",
"410 -11 CURVE SMOOTH",
"346 -12 OFFCURVE",
"260 -12 OFFCURVE",
"245 -12 CURVE SMOOTH",
"225 -12 OFFCURVE",
"211 8 OFFCURVE"
);
}
);
width = 580;
},
{
anchors = (
{
name = bot;
position = "{370, 0}";
},
{
name = top;
position = "{237, 1536}";
}
);
layerId = "A3BE8AFD-64C8-4B22-9D76-F0CE292C8BA7";
paths = (
{
closed = 1;
nodes = (
"325 115 LINE",
"481 115 LINE",
"503 100 OFFCURVE",
"525 83 OFFCURVE",
"525 54 CURVE SMOOTH",
"525 25 OFFCURVE",
"504 -4 OFFCURVE",
"473 -4 CURVE SMOOTH",
"463 -4 OFFCURVE",
"451 1 OFFCURVE",
"442 3 CURVE SMOOTH",
"429 0 OFFCURVE",
"416 -1 OFFCURVE",
"403 -1 CURVE SMOOTH",
"381 -1 OFFCURVE",
"359 2 OFFCURVE",
"337 2 CURVE",
"323 -15 OFFCURVE",
"300 -23 OFFCURVE",
"279 -23 CURVE SMOOTH",
"245 -23 OFFCURVE",
"210 7 OFFCURVE",
"210 42 CURVE SMOOTH",
"210 73 OFFCURVE",
"223 101 OFFCURVE",
"223 132 CURVE SMOOTH",
"223 598 OFFCURVE",
"182 1063 OFFCURVE",
"182 1529 CURVE SMOOTH",
"182 1556 OFFCURVE",
"207 1571 OFFCURVE",
"232 1571 CURVE SMOOTH",
"265 1571 OFFCURVE",
"294 1546 OFFCURVE",
"294 1512 CURVE SMOOTH",
"294 1266 OFFCURVE",
"315 1019 OFFCURVE",
"315 775 CURVE SMOOTH",
"315 758 OFFCURVE",
"318 742 OFFCURVE",
"318 725 CURVE SMOOTH",
"318 720 OFFCURVE",
"318 715 OFFCURVE",
"317 710 CURVE SMOOTH",
"317 701 LINE",
"325 523 OFFCURVE",
"325 345 OFFCURVE",
"325 167 CURVE SMOOTH"
);
}
);
width = 622;
}
);
unicode = 004C;
userData = {
com.fontlab.hintData = {
hhints = (
{
position = -11;
width = 79;
},
{
position = 1554;
width = 20;
}
);
vhints = (
{
position = 98;
width = 66;
},
{
position = 119;
width = 63;
},
{
position = 139;
width = 66;
}
);
};
org.pippin.gimp.org.kernagic = {
lstem = 0;
rstem = 189;
};
};
},
{
glyphname = Lslash;
lastChange = "2016-08-30 17:52:43 +0000";
layers = (
{
components = (
{
name = L;
}
);
layerId = "97F6A72F-75C9-4005-877B-5FF286A1C934";
paths = (
{
closed = 1;
nodes = (
"46 727 CURVE SMOOTH",
"36 727 OFFCURVE",
"13 733 OFFCURVE",
"13 748 CURVE SMOOTH",
"13 780 OFFCURVE",
"314 919 OFFCURVE",
"389 952 CURVE SMOOTH",
"394 954 OFFCURVE",
"402 956 OFFCURVE",
"409 956 CURVE SMOOTH",
"421 956 OFFCURVE",
"444 950 OFFCURVE",
"444 936 CURVE SMOOTH",
"444 904 OFFCURVE",
"148 768 OFFCURVE",
"66 731 CURVE SMOOTH",
"60 729 OFFCURVE",
"53 727 OFFCURVE"
);
}
);
width = 740;
},
{
layerId = "A3BE8AFD-64C8-4B22-9D76-F0CE292C8BA7";
paths = (
{
closed = 1;
nodes = (
"576 897 CURVE SMOOTH",
"576 842 OFFCURVE",
"471 813 OFFCURVE",
"363 797 CURVE",
"363 795 LINE SMOOTH",
"363 773 OFFCURVE",
"366 752 OFFCURVE",
"366 730 CURVE SMOOTH",
"366 723 OFFCURVE",
"366 717 OFFCURVE",
"365 710 CURVE SMOOTH",
"365 701 LINE",
"373 523 OFFCURVE",
"373 345 OFFCURVE",
"373 167 CURVE SMOOTH",
"373 115 LINE",
"529 115 LINE",
"551 100 OFFCURVE",
"573 83 OFFCURVE",
"573 54 CURVE SMOOTH",
"573 25 OFFCURVE",
"552 -4 OFFCURVE",
"521 -4 CURVE SMOOTH",
"511 -4 OFFCURVE",
"499 1 OFFCURVE",
"490 3 CURVE SMOOTH",
"477 0 OFFCURVE",
"464 -1 OFFCURVE",
"451 -1 CURVE SMOOTH",
"429 -1 OFFCURVE",
"407 2 OFFCURVE",
"385 2 CURVE SMOOTH",
"368 2 OFFCURVE",
"342 5 OFFCURVE",
"317 5 CURVE SMOOTH",
"288 5 OFFCURVE",
"258 22 OFFCURVE",
"258 42 CURVE SMOOTH",
"258 73 OFFCURVE",
"271 101 OFFCURVE",
"271 132 CURVE SMOOTH",
"271 344 OFFCURVE",
"262 556 OFFCURVE",
"253 768 CURVE",
"229 757 OFFCURVE",
"210 754 OFFCURVE",
"201 754 CURVE SMOOTH",
"168 754 OFFCURVE",
"134 774 OFFCURVE",
"134 803 CURVE SMOOTH",
"134 838 OFFCURVE",
"187 860 OFFCURVE",
"248 873 CURVE",
"239 1092 OFFCURVE",
"230 1310 OFFCURVE",
"230 1529 CURVE SMOOTH",
"230 1556 OFFCURVE",
"255 1571 OFFCURVE",
"280 1571 CURVE SMOOTH",
"313 1571 OFFCURVE",
"342 1546 OFFCURVE",
"342 1512 CURVE SMOOTH",
"342 1309 OFFCURVE",
"357 1106 OFFCURVE",
"362 904 CURVE",
"442 939 OFFCURVE",
"510 949 OFFCURVE",
"538 949 CURVE SMOOTH",
"556 949 OFFCURVE",
"576 929 OFFCURVE"
);
}
);
width = 756;
}
);
unicode = 0141;
userData = {
com.fontlab.hintData = {
hhints = (
{
position = -23;
width = 21;
},
{
position = 2;
width = 53;
},
{
position = 680;
width = 65;
},
{
position = 1551;
width = 20;
}
);
vhints = (
{
position = 98;
width = 66;
},
{
position = 119;
width = 65;
},
{
position = 139;
width = 58;
}
);
};
org.pippin.gimp.org.kernagic = {
lstem = 0;
rstem = 0;
};
};
},
{
glyphname = M;
lastChange = "2016-08-30 17:52:43 +0000";
layers = (
{
anchors = (
{
name = top;
position = "{486, 1536}";
}
);
layerId = "97F6A72F-75C9-4005-877B-5FF286A1C934";
paths = (
{
closed = 1;
nodes = (
"741 10 CURVE SMOOTH",
"741 197 LINE SMOOTH",
"741 422 OFFCURVE",
"726 645 OFFCURVE",
"726 870 CURVE SMOOTH",
"726 946 OFFCURVE",
"730 1024 OFFCURVE",
"730 1100 CURVE SMOOTH",
"730 1161 OFFCURVE",
"724 1221 OFFCURVE",
"722 1282 CURVE",
"718 1278 OFFCURVE",
"719 1274 OFFCURVE",
"718 1268 CURVE SMOOTH",
"678 1011 OFFCURVE",
"593 570 OFFCURVE",
"575 483 CURVE SMOOTH",
"568 450 OFFCURVE",
"545 338 OFFCURVE",
"538 296 CURVE SMOOTH",
"532 260 OFFCURVE",
"511 238 OFFCURVE",
"491 238 CURVE SMOOTH",
"472 238 OFFCURVE",
"453 258 OFFCURVE",
"448 302 CURVE SMOOTH",
"436 392 OFFCURVE",
"263 1292 OFFCURVE",
"245 1317 CURVE",
"239 1178 OFFCURVE",
"237 1040 OFFCURVE",
"237 903 CURVE SMOOTH",
"237 686 OFFCURVE",
"243 469 OFFCURVE",
"243 252 CURVE SMOOTH",
"243 186 OFFCURVE",
"253 123 OFFCURVE",
"253 57 CURVE SMOOTH",
"253 34 OFFCURVE",
"253 20 OFFCURVE",
"237 4 CURVE",
"186 4 OFFCURVE",
"179 62 OFFCURVE",
"179 111 CURVE SMOOTH",
"179 453 LINE SMOOTH",
"179 590 OFFCURVE",
"182 729 OFFCURVE",
"182 868 CURVE SMOOTH",
"182 1030 OFFCURVE",
"188 1192 OFFCURVE",
"188 1354 CURVE SMOOTH",
"188 1533 LINE SMOOTH",
"188 1548 OFFCURVE",
"204 1561 OFFCURVE",
"218 1561 CURVE SMOOTH",
"227 1561 OFFCURVE",
"235 1556 OFFCURVE",
"239 1544 CURVE SMOOTH",
"259 1479 OFFCURVE",
"387 971 OFFCURVE",
"442 717 CURVE SMOOTH",
"456 654 OFFCURVE",
"496 413 OFFCURVE",
"502 376 CURVE",
"514 438 OFFCURVE",
"555 692 OFFCURVE",
"565 739 CURVE SMOOTH",
"600 907 OFFCURVE",
"628 1073 OFFCURVE",
"659 1241 CURVE SMOOTH",
"677 1341 OFFCURVE",
"705 1490 OFFCURVE",
"710 1523 CURVE SMOOTH",
"715 1552 OFFCURVE",
"730 1566 OFFCURVE",
"745 1566 CURVE SMOOTH",
"759 1566 OFFCURVE",
"773 1553 OFFCURVE",
"773 1528 CURVE SMOOTH",
"773 1325 LINE SMOOTH",
"773 1016 OFFCURVE",
"806 706 OFFCURVE",
"806 399 CURVE SMOOTH",
"806 273 OFFCURVE",
"816 198 OFFCURVE",
"816 24 CURVE SMOOTH",
"816 -42 OFFCURVE",
"803 -47 OFFCURVE",
"786 -47 CURVE SMOOTH",
"743 -47 OFFCURVE",
"741 -20 OFFCURVE"
);
}
);
width = 980;
},
{
anchors = (
{
name = top;
position = "{517, 1536}";
}
);
layerId = "A3BE8AFD-64C8-4B22-9D76-F0CE292C8BA7";
paths = (
{
closed = 1;
nodes = (
"707 1517 CURVE",
"707 1529 LINE",
"713 1565 OFFCURVE",
"745 1587 OFFCURVE",
"780 1587 CURVE SMOOTH",
"806 1587 OFFCURVE",
"828 1560 OFFCURVE",
"828 1535 CURVE SMOOTH",
"828 1045 OFFCURVE",
"865 557 OFFCURVE",
"865 67 CURVE SMOOTH",
"865 -2 OFFCURVE",
"820 -54 OFFCURVE",
"784 -54 CURVE SMOOTH",
"760 -54 OFFCURVE",
"739 -30 OFFCURVE",
"739 27 CURVE SMOOTH",
"739 314 OFFCURVE",
"731 602 OFFCURVE",
"731 889 CURVE SMOOTH",
"731 993 LINE",
"696 801 OFFCURVE",
"631 605 OFFCURVE",
"605 414 CURVE",
"605 401 LINE",
"594 347 OFFCURVE",
"592 222 OFFCURVE",
"514 222 CURVE SMOOTH",
"441 222 OFFCURVE",
"441 364 OFFCURVE",
"441 413 CURVE SMOOTH",
"441 660 OFFCURVE",
"344 931 OFFCURVE",
"290 1172 CURVE",
"288 1090 OFFCURVE",
"286 1007 OFFCURVE",
"286 925 CURVE SMOOTH",
"286 644 OFFCURVE",
"303 364 OFFCURVE",
"303 83 CURVE SMOOTH",
"303 54 OFFCURVE",
"292 27 OFFCURVE",
"272 6 CURVE",
"194 6 OFFCURVE",
"182 68 OFFCURVE",
"182 132 CURVE SMOOTH",
"182 243 OFFCURVE",
"192 353 OFFCURVE",
"192 464 CURVE SMOOTH",
"192 729 OFFCURVE",
"185 993 OFFCURVE",
"185 1257 CURVE SMOOTH",
"185 1346 OFFCURVE",
"186 1434 OFFCURVE",
"188 1522 CURVE",
"245 1554 LINE",
"354 1546 OFFCURVE",
"498 674 OFFCURVE",
"529 528 CURVE",
"597 850 OFFCURVE",
"688 1188 OFFCURVE"
);
}
);
width = 1044;
}
);
unicode = 004D;
userData = {
com.fontlab.hintData = {
hhints = (
{
position = -47;
width = 21;
},
{
position = 1541;
width = 20;
}
);
vhints = (
{
position = 106;
width = 64;
},
{
position = 637;
width = 63;
},
{
position = 653;
width = 47;
},
{
position = 668;
width = 75;
}
);
};
org.pippin.gimp.org.kernagic = {
lstem = 0;
rstem = 0;
};
};
},
{
glyphname = N;
lastChange = "2016-08-30 17:52:43 +0000";
layers = (
{
anchors = (
{
name = top;
position = "{466, 1536}";
}
);
layerId = "97F6A72F-75C9-4005-877B-5FF286A1C934";
paths = (
{
closed = 1;
nodes = (
"244 1426 CURVE",
"242 1406 OFFCURVE",
"242 1361 OFFCURVE",
"242 1341 CURVE SMOOTH",
"242 600 LINE SMOOTH",
"242 403 OFFCURVE",
"252 213 OFFCURVE",
"252 16 CURVE",
"238 0 LINE",
"191 0 LINE",
"185 16 LINE",
"189 32 OFFCURVE",
"189 80 OFFCURVE",
"189 98 CURVE SMOOTH",
"189 336 OFFCURVE",
"184 573 OFFCURVE",
"184 811 CURVE SMOOTH",
"184 1079 LINE SMOOTH",
"184 1208 OFFCURVE",
"181 1337 OFFCURVE",
"181 1466 CURVE SMOOTH",
"181 1480 OFFCURVE",
"179 1495 OFFCURVE",
"179 1509 CURVE SMOOTH",
"179 1546 OFFCURVE",
"201 1552 OFFCURVE",
"234 1552 CURVE SMOOTH",
"252 1552 OFFCURVE",
"276 1532 OFFCURVE",
"281 1513 CURVE SMOOTH",
"308 1404 OFFCURVE",
"340 1232 OFFCURVE",
"373 1096 CURVE SMOOTH",
"403 972 OFFCURVE",
"472 723 OFFCURVE",
"521 539 CURVE SMOOTH",
"542 452 OFFCURVE",
"587 272 OFFCURVE",
"627 150 CURVE",
"639 177 OFFCURVE",
"640 219 OFFCURVE",
"640 248 CURVE SMOOTH",
"640 486 OFFCURVE",
"648 723 OFFCURVE",
"648 961 CURVE SMOOTH",
"648 1067 OFFCURVE",
"651 1172 OFFCURVE",
"651 1278 CURVE SMOOTH",
"649 1567 LINE",
"655 1587 OFFCURVE",
"671 1595 OFFCURVE",
"691 1595 CURVE SMOOTH",
"704 1595 OFFCURVE",
"707 1566 OFFCURVE",
"707 1535 CURVE SMOOTH",
"707 1506 OFFCURVE",
"704 1475 OFFCURVE",
"704 1460 CURVE SMOOTH",
"704 1329 LINE SMOOTH",
"704 1000 OFFCURVE",
"699 685 OFFCURVE",
"699 360 CURVE SMOOTH",
"699 255 OFFCURVE",
"689 142 OFFCURVE",
"689 37 CURVE SMOOTH",
"689 2 OFFCURVE",
"676 -23 OFFCURVE",
"637 -23 CURVE SMOOTH",
"590 -23 OFFCURVE",
"589 63 OFFCURVE",
"580 94 CURVE SMOOTH",
"535 256 OFFCURVE",
"369 846 OFFCURVE",
"328 1016 CURVE SMOOTH",
"300 1133 OFFCURVE",
"257 1361 OFFCURVE"
);
}
);
width = 900;
},
{
anchors = (
{
name = bot;
position = "{490, 0}";
},
{
name = top;
position = "{489, 1536}";
}
);
layerId = "A3BE8AFD-64C8-4B22-9D76-F0CE292C8BA7";
paths = (
{
closed = 1;
nodes = (
"655 225 CURVE",
"655 463 OFFCURVE",
"663 701 OFFCURVE",
"663 939 CURVE SMOOTH",
"663 1545 LINE",
"671 1580 OFFCURVE",
"697 1596 OFFCURVE",
"730 1596 CURVE SMOOTH",
"775 1596 OFFCURVE",
"785 1553 OFFCURVE",
"785 1516 CURVE SMOOTH",
"785 1504 LINE",
"776 1485 OFFCURVE",
"773 1465 OFFCURVE",
"773 1444 CURVE SMOOTH",
"773 1193 OFFCURVE",
"760 939 OFFCURVE",
"760 687 CURVE SMOOTH",
"760 61 LINE SMOOTH",
"760 25 OFFCURVE",
"737 -30 OFFCURVE",
"701 -30 CURVE SMOOTH",
"636 -30 OFFCURVE",
"409 808 OFFCURVE",
"286 1298 CURVE",
"286 626 LINE SMOOTH",
"286 431 OFFCURVE",
"315 237 OFFCURVE",
"315 42 CURVE SMOOTH",
"315 16 OFFCURVE",
"276 -2 OFFCURVE",
"243 -2 CURVE SMOOTH",
"219 -2 OFFCURVE",
"198 7 OFFCURVE",
"198 30 CURVE SMOOTH",
"198 65 OFFCURVE",
"208 109 OFFCURVE",
"208 177 CURVE SMOOTH",
"208 371 OFFCURVE",
"182 688 OFFCURVE",
"182 812 CURVE SMOOTH",
"182 1073 LINE SMOOTH",
"182 1198 OFFCURVE",
"196 1324 OFFCURVE",
"196 1449 CURVE SMOOTH",
"196 1462 LINE SMOOTH",
"196 1508 OFFCURVE",
"204 1564 OFFCURVE",
"241 1564 CURVE SMOOTH",
"365 1564 OFFCURVE",
"654 228 OFFCURVE"
);
}
);
width = 972;
}
);
unicode = 004E;
userData = {
com.fontlab.hintData = {
hhints = (
{
position = 0;
width = 21;
},
{
position = 1532;
width = 20;
}
);
vhints = (
{
position = 122;
width = 58;
},
{
position = 586;
width = 56;
}
);
};
org.pippin.gimp.org.kernagic = {
lstem = 0;
rstem = 0;
};
};
},
{
glyphname = Eng;
lastChange = "2016-08-30 17:52:43 +0000";
layers = (
{
layerId = "97F6A72F-75C9-4005-877B-5FF286A1C934";
paths = (
{
closed = 1;
nodes = (
"691 -131 CURVE SMOOTH",
"691 -284 OFFCURVE",
"608 -401 OFFCURVE",
"517 -467 CURVE",
"490 -467 OFFCURVE",
"474 -455 OFFCURVE",
"474 -428 CURVE SMOOTH",
"476 -401 OFFCURVE",
"530 -378 OFFCURVE",
"548 -360 CURVE SMOOTH",
"630 -278 OFFCURVE",
"638 -133 OFFCURVE",
"638 -47 CURVE SMOOTH",
"638 -29 LINE",
"630 -17 OFFCURVE",
"622 3 OFFCURVE",
"616 23 CURVE SMOOTH",
"520 326 OFFCURVE",
"398 703 OFFCURVE",
"341 1016 CURVE SMOOTH",
"335 1045 OFFCURVE",
"342 1079 OFFCURVE",
"319 1102 CURVE",
"323 1112 LINE",
"305 1208 OFFCURVE",
"290 1309 OFFCURVE",
"253 1401 CURVE",
"251 1381 OFFCURVE",
"247 1361 OFFCURVE",
"247 1341 CURVE SMOOTH",
"247 1329 OFFCURVE",
"247 1315 OFFCURVE",
"251 1303 CURVE",
"239 1262 OFFCURVE",
"237 1204 OFFCURVE",
"237 1161 CURVE SMOOTH",
"237 600 LINE SMOOTH",
"237 403 OFFCURVE",
"265 213 OFFCURVE",
"265 16 CURVE",
"251 0 LINE",
"204 0 LINE",
"198 16 LINE",
"202 32 OFFCURVE",
"202 80 OFFCURVE",
"202 98 CURVE SMOOTH",
"202 336 OFFCURVE",
"179 573 OFFCURVE",
"179 811 CURVE SMOOTH",
"179 1079 LINE SMOOTH",
"179 1208 OFFCURVE",
"194 1337 OFFCURVE",
"194 1466 CURVE SMOOTH",
"194 1480 OFFCURVE",
"192 1495 OFFCURVE",
"192 1509 CURVE SMOOTH",
"192 1546 OFFCURVE",
"214 1552 OFFCURVE",
"247 1552 CURVE SMOOTH",
"265 1552 OFFCURVE",
"294 1533 OFFCURVE",
"294 1513 CURVE SMOOTH",
"294 1423 OFFCURVE",
"329 1385 OFFCURVE",
"354 1303 CURVE SMOOTH",
"374 1235 OFFCURVE",
"372 1164 OFFCURVE",
"386 1096 CURVE SMOOTH",
"425 908 OFFCURVE",
"485 723 OFFCURVE",
"534 539 CURVE SMOOTH",
"548 482 OFFCURVE",
"567 368 OFFCURVE",
"585 313 CURVE SMOOTH",
"603 258 OFFCURVE",
"644 115 OFFCURVE",
"644 115 CURVE",
"644 115 OFFCURVE",
"653 219 OFFCURVE",
"653 248 CURVE SMOOTH",
"653 486 OFFCURVE",
"661 723 OFFCURVE",
"661 961 CURVE SMOOTH",
"661 1067 OFFCURVE",
"655 1172 OFFCURVE",
"655 1278 CURVE SMOOTH",
"655 1305 OFFCURVE",
"661 1331 OFFCURVE",
"661 1356 CURVE SMOOTH",
"661 1362 OFFCURVE",
"661 1378 OFFCURVE",
"655 1382 CURVE",
"661 1399 LINE",
"661 1446 LINE SMOOTH",
"661 1487 OFFCURVE",
"661 1528 OFFCURVE",
"653 1567 CURVE",
"659 1587 OFFCURVE",
"684 1595 OFFCURVE",
"704 1595 CURVE SMOOTH",
"735 1595 OFFCURVE",
"737 1551 OFFCURVE",
"737 1528 CURVE",
"727 1508 OFFCURVE",
"724 1483 OFFCURVE",
"724 1460 CURVE SMOOTH",
"724 1437 OFFCURVE",
"726 1414 OFFCURVE",
"726 1391 CURVE SMOOTH",
"726 1371 OFFCURVE",
"726 1347 OFFCURVE",
"718 1329 CURVE",
"718 1114 OFFCURVE",
"712 897 OFFCURVE",
"712 682 CURVE SMOOTH",
"712 664 OFFCURVE",
"714 645 OFFCURVE",
"716 627 CURVE",
"712 618 LINE",
"712 360 LINE SMOOTH",
"712 256 OFFCURVE",
"702 143 OFFCURVE",
"702 37 CURVE SMOOTH",
"702 -14 OFFCURVE",
"691 -59 OFFCURVE"
);
}
);
width = 920;
},
{
layerId = "A3BE8AFD-64C8-4B22-9D76-F0CE292C8BA7";
paths = (
{
closed = 1;
nodes = (
"657 -113 CURVE SMOOTH",
"657 -65 OFFCURVE",
"658 -17 OFFCURVE",
"658 32 CURVE",
"565 234 OFFCURVE",
"389 887 OFFCURVE",
"286 1298 CURVE",
"286 626 LINE SMOOTH",
"286 431 OFFCURVE",
"315 237 OFFCURVE",
"315 42 CURVE SMOOTH",
"315 16 OFFCURVE",
"276 -2 OFFCURVE",
"243 -2 CURVE SMOOTH",
"219 -2 OFFCURVE",
"198 7 OFFCURVE",
"198 30 CURVE SMOOTH",
"198 65 OFFCURVE",
"208 109 OFFCURVE",
"208 177 CURVE SMOOTH",
"208 371 OFFCURVE",
"182 688 OFFCURVE",
"182 812 CURVE SMOOTH",
"182 1073 LINE SMOOTH",
"182 1198 OFFCURVE",
"196 1324 OFFCURVE",
"196 1449 CURVE SMOOTH",
"196 1462 LINE SMOOTH",
"196 1508 OFFCURVE",
"204 1564 OFFCURVE",
"241 1564 CURVE SMOOTH",
"365 1564 OFFCURVE",
"654 228 OFFCURVE",
"655 225 CURVE",
"655 463 OFFCURVE",
"663 701 OFFCURVE",
"663 939 CURVE SMOOTH",
"663 1545 LINE",
"671 1580 OFFCURVE",
"697 1596 OFFCURVE",
"730 1596 CURVE SMOOTH",
"775 1596 OFFCURVE",
"785 1553 OFFCURVE",
"785 1516 CURVE SMOOTH",
"785 1504 LINE",
"776 1485 OFFCURVE",
"760 1465 OFFCURVE",
"760 1444 CURVE SMOOTH",
"760 42 LINE SMOOTH",
"760 -271 OFFCURVE",
"735 -236 OFFCURVE",
"549 -388 CURVE",
"509 -388 OFFCURVE",
"475 -369 OFFCURVE",
"475 -325 CURVE SMOOTH",
"475 -226 OFFCURVE",
"657 -240 OFFCURVE"
);
}
);
width = 972;
}
);
unicode = 014A;
userData = {
com.fontlab.hintData = {
hhints = (
{
position = 0;
width = 21;
},
{
position = 1532;
width = 20;
}
);
vhints = (
{
position = 104;
width = 58;
},
{
position = 119;
width = 100;
},
{
position = 123;
width = 67;
},
{
position = 563;
width = 53;
},
{
position = 586;
width = 76;
},
{
position = 586;
width = 51;
}
);
};
org.pippin.gimp.org.kernagic = {
lstem = 0;
rstem = 0;
};
};
},
{
glyphname = O;
lastChange = "2016-08-30 17:52:43 +0000";
layers = (
{
anchors = (
{
name = top;
position = "{386, 1536}";
}
);
layerId = "97F6A72F-75C9-4005-877B-5FF286A1C934";
paths = (
{
closed = 1;
nodes = (
"383 1518 CURVE SMOOTH",
"236 1518 OFFCURVE",
"232 1059 OFFCURVE",
"232 931 CURVE SMOOTH",
"232 831 LINE SMOOTH",
"232 690 OFFCURVE",
"273 14 OFFCURVE",
"459 14 CURVE SMOOTH",
"602 14 OFFCURVE",
"606 540 OFFCURVE",
"606 653 CURVE SMOOTH",
"606 662 LINE SMOOTH",
"606 834 OFFCURVE",
"604 1518 OFFCURVE"
);
},
{
closed = 1;
nodes = (
"171 1025 LINE SMOOTH",
"171 1272 OFFCURVE",
"194 1571 OFFCURVE",
"373 1571 CURVE SMOOTH",
"554 1571 OFFCURVE",
"595 1399 OFFCURVE",
"617 1239 CURVE SMOOTH",
"646 1032 OFFCURVE",
"666 827 OFFCURVE",
"666 618 CURVE SMOOTH",
"666 612 LINE SMOOTH",
"666 403 OFFCURVE",
"665 -43 OFFCURVE",
"455 -43 CURVE SMOOTH",
"184 -43 OFFCURVE",
"171 637 OFFCURVE",
"171 942 CURVE SMOOTH"
);
}
);
width = 840;
},
{
anchors = (
{
name = ogonek;
position = "{526, 0}";
},
{
name = top;
position = "{417, 1536}";
}
);
layerId = "A3BE8AFD-64C8-4B22-9D76-F0CE292C8BA7";
paths = (
{
closed = 1;
nodes = (
"415 1477 CURVE SMOOTH",
"283 1477 OFFCURVE",
"281 979 OFFCURVE",
"281 861 CURVE SMOOTH",
"281 852 LINE SMOOTH",
"281 720 OFFCURVE",
"326 55 OFFCURVE",
"491 55 CURVE SMOOTH",
"609 55 OFFCURVE",
"621 561 OFFCURVE",
"621 653 CURVE SMOOTH",
"621 797 OFFCURVE",
"616 1477 OFFCURVE"
);
},
{
closed = 1;
nodes = (
"405 1585 CURVE SMOOTH",
"698 1585 OFFCURVE",
"714 1071 OFFCURVE",
"714 736 CURVE SMOOTH",
"714 618 LINE SMOOTH",
"714 531 OFFCURVE",
"697 446 OFFCURVE",
"696 359 CURVE SMOOTH",
"696 350 LINE",
"686 306 OFFCURVE",
"683 261 OFFCURVE",
"683 215 CURVE SMOOTH",
"683 113 OFFCURVE",
"607 -57 OFFCURVE",
"487 -57 CURVE SMOOTH",
"215 -57 OFFCURVE",
"189 609 OFFCURVE",
"189 799 CURVE SMOOTH",
"189 863 OFFCURVE",
"186 948 OFFCURVE",
"186 1038 CURVE SMOOTH",
"186 1290 OFFCURVE",
"211 1585 OFFCURVE"
);
}
);
width = 900;
}
);
unicode = 004F;
userData = {
com.fontlab.hintData = {
hhints = (
{
position = -43;
width = 57;
},
{
position = 1518;
width = 53;
}
);
vhints = (
{
position = 91;
width = 61;
},
{
position = 526;
width = 60;
}
);
};
org.pippin.gimp.org.kernagic = {
lstem = 0;
rstem = 0;
};
};
},
{
glyphname = Oslash;
lastChange = "2016-08-30 17:52:43 +0000";
layers = (
{
layerId = "97F6A72F-75C9-4005-877B-5FF286A1C934";
paths = (
{
closed = 1;
nodes = (
"241 705 CURVE",
"241 562 OFFCURVE",
"265 417 OFFCURVE",
"265 274 CURVE",
"288 303 OFFCURVE",
"360 1112 OFFCURVE",
"372 1227 CURVE SMOOTH",
"380 1303 OFFCURVE",
"396 1378 OFFCURVE",
"396 1456 CURVE SMOOTH",
"396 1491 OFFCURVE",
"362 1513 OFFCURVE",
"331 1513 CURVE SMOOTH",
"327 1513 OFFCURVE",
"304 1503 OFFCURVE",
"298 1501 CURVE",
"286 1505 LINE",
"225 1468 OFFCURVE",
"222 1002 OFFCURVE",
"222 852 CURVE SMOOTH",
"222 839 LINE SMOOTH",
"222 796 OFFCURVE",
"223 746 OFFCURVE"
);
},
{
closed = 1;
nodes = (
"294 119 CURVE SMOOTH",
"294 51 OFFCURVE",
"318 23 OFFCURVE",
"384 23 CURVE SMOOTH",
"517 23 OFFCURVE",
"517 311 OFFCURVE",
"517 399 CURVE SMOOTH",
"517 596 OFFCURVE",
"514 1250 OFFCURVE",
"444 1389 CURVE",
"381 1002 OFFCURVE",
"382 598 OFFCURVE",
"308 215 CURVE SMOOTH",
"302 182 OFFCURVE",
"294 150 OFFCURVE"
);
},
{
closed = 1;
nodes = (
"212 -264 CURVE",
"181 -240 LINE",
"183 -162 OFFCURVE",
"204 -135 OFFCURVE",
"241 111 CURVE SMOOTH",
"241 136 OFFCURVE",
"226 159 OFFCURVE",
"222 184 CURVE SMOOTH",
"182 434 OFFCURVE",
"179 698 OFFCURVE",
"179 952 CURVE SMOOTH",
"179 1081 LINE SMOOTH",
"179 1194 OFFCURVE",
"179 1569 OFFCURVE",
"329 1569 CURVE SMOOTH",
"349 1569 OFFCURVE",
"372 1546 OFFCURVE",
"388 1546 CURVE",
"396 1550 LINE",
"407 1540 LINE",
"436 1624 OFFCURVE",
"442 1714 OFFCURVE",
"460 1798 CURVE",
"497 1798 LINE",
"495 1739 LINE",
"485 1673 OFFCURVE",
"452 1491 OFFCURVE",
"452 1491 CURVE",
"452 1468 OFFCURVE",
"468 1448 OFFCURVE",
"482 1432 CURVE",
"480 1427 LINE",
"484 1404 OFFCURVE",
"501 1384 OFFCURVE",
"511 1366 CURVE SMOOTH",
"527 1327 OFFCURVE",
"534 1272 OFFCURVE",
"534 1229 CURVE",
"530 1227 LINE",
"530 1104 OFFCURVE",
"560 973 OFFCURVE",
"560 850 CURVE SMOOTH",
"560 838 LINE",
"564 831 LINE",
"564 702 OFFCURVE",
"571 573 OFFCURVE",
"571 444 CURVE SMOOTH",
"571 303 OFFCURVE",
"569 -20 OFFCURVE",
"368 -20 CURVE SMOOTH",
"331 -20 OFFCURVE",
"290 -11 OFFCURVE",
"267 20 CURVE",
"265 20 LINE",
"257 -31 OFFCURVE",
"230 -174 OFFCURVE"
);
}
);
width = 760;
},
{
layerId = "A3BE8AFD-64C8-4B22-9D76-F0CE292C8BA7";
paths = (
{
closed = 1;
nodes = (
"324 47 CURVE",
"252 -280 LINE",
"207 -224 LINE",
"269 143 LINE",
"188 355 OFFCURVE",
"177 676 OFFCURVE",
"177 799 CURVE SMOOTH",
"177 863 OFFCURVE",
"174 948 OFFCURVE",
"174 1039 CURVE SMOOTH",
"174 1291 OFFCURVE",
"199 1585 OFFCURVE",
"393 1585 CURVE SMOOTH",
"442 1585 OFFCURVE",
"484 1571 OFFCURVE",
"519 1545 CURVE",
"564 1799 LINE",
"643 1799 LINE",
"579 1481 LINE",
"694 1313 OFFCURVE",
"703 976 OFFCURVE",
"703 734 CURVE SMOOTH",
"703 692 OFFCURVE",
"702 653 OFFCURVE",
"702 618 CURVE SMOOTH",
"702 531 OFFCURVE",
"685 446 OFFCURVE",
"684 359 CURVE SMOOTH",
"684 350 LINE",
"674 306 OFFCURVE",
"671 261 OFFCURVE",
"671 215 CURVE SMOOTH",
"671 113 OFFCURVE",
"595 -57 OFFCURVE",
"475 -57 CURVE SMOOTH",
"407 -57 OFFCURVE",
"365 -18 OFFCURVE"
);
},
{
closed = 1;
nodes = (
"545 1299 CURVE",
"350 239 LINE",
"381 132 OFFCURVE",
"423 55 OFFCURVE",
"479 55 CURVE SMOOTH",
"597 55 OFFCURVE",
"609 561 OFFCURVE",
"609 653 CURVE SMOOTH",
"609 749 OFFCURVE",
"607 1087 OFFCURVE"
);
},
{
closed = 1;
nodes = (
"403 1477 CURVE SMOOTH",
"271 1477 OFFCURVE",
"269 979 OFFCURVE",
"269 861 CURVE SMOOTH",
"269 852 LINE SMOOTH",
"269 785 OFFCURVE",
"281 581 OFFCURVE",
"314 396 CURVE",
"496 1415 LINE",
"471 1454 OFFCURVE",
"440 1477 OFFCURVE"
);
}
);
width = 900;
}
);
unicode = 00D8;
userData = {
com.fontlab.hintData = {
hhints = (
{
position = -20;
width = 43;
},
{
position = 1513;
width = 56;
},
{
position = 1530;
width = 20;
}
);
vhints = (
{
position = 100;
width = 43;
},
{
position = 162;
width = 53;
},
{
position = 317;
width = 56;
},
{
position = 381;
width = 37;
},
{
position = 438;
width = 43;
}
);
};
org.pippin.gimp.org.kernagic = {
lstem = 0;
rstem = 0;
};
};
},
{
glyphname = OE;
lastChange = "2016-08-30 17:52:43 +0000";
layers = (
{
layerId = "97F6A72F-75C9-4005-877B-5FF286A1C934";
paths = (
{
closed = 1;
nodes = (
"345 197 CURVE",
"415 121 OFFCURVE",
"503 72 OFFCURVE",
"607 72 CURVE SMOOTH",
"658 72 OFFCURVE",
"810 80 OFFCURVE",
"810 154 CURVE SMOOTH",
"810 488 OFFCURVE",
"782 819 OFFCURVE",
"782 1153 CURVE SMOOTH",
"782 1235 OFFCURVE",
"769 1319 OFFCURVE",
"769 1401 CURVE",
"712 1477 OFFCURVE",
"593 1497 OFFCURVE",
"503 1497 CURVE SMOOTH",
"251 1497 OFFCURVE",
"220 1153 OFFCURVE",
"220 967 CURVE SMOOTH",
"220 918 OFFCURVE",
"222 868 OFFCURVE",
"222 821 CURVE SMOOTH",
"222 796 OFFCURVE",
"222 773 OFFCURVE",
"220 748 CURVE",
"224 741 LINE",
"224 653 OFFCURVE",
"249 211 OFFCURVE"
);
},
{
closed = 1;
nodes = (
"790 10 CURVE",
"802 43 LINE",
"753 37 OFFCURVE",
"706 10 OFFCURVE",
"657 10 CURVE SMOOTH",
"342 10 OFFCURVE",
"181 250 OFFCURVE",
"181 545 CURVE SMOOTH",
"181 684 OFFCURVE",
"171 826 OFFCURVE",
"171 965 CURVE SMOOTH",
"171 1147 OFFCURVE",
"222 1552 OFFCURVE",
"468 1552 CURVE SMOOTH",
"560 1552 OFFCURVE",
"697 1545 OFFCURVE",
"763 1473 CURVE",
"757 1495 LINE",
"788 1538 LINE",
"815 1538 OFFCURVE",
"841 1526 OFFCURVE",
"868 1526 CURVE SMOOTH",
"1019 1526 LINE SMOOTH",
"1033 1526 OFFCURVE",
"1050 1530 OFFCURVE",
"1064 1530 CURVE",
"1074 1524 OFFCURVE",
"1095 1505 OFFCURVE",
"1095 1493 CURVE SMOOTH",
"1095 1473 OFFCURVE",
"1072 1470 OFFCURVE",
"1058 1470 CURVE SMOOTH",
"978 1470 OFFCURVE",
"896 1479 OFFCURVE",
"816 1479 CURVE",
"816 1327 OFFCURVE",
"845 1176 OFFCURVE",
"845 1024 CURVE SMOOTH",
"845 989 OFFCURVE",
"841 953 OFFCURVE",
"841 918 CURVE SMOOTH",
"841 889 OFFCURVE",
"843 861 OFFCURVE",
"851 834 CURVE",
"931 831 LINE SMOOTH",
"949 831 OFFCURVE",
"966 836 OFFCURVE",
"984 836 CURVE SMOOTH",
"1004 836 OFFCURVE",
"1021 827 OFFCURVE",
"1033 811 CURVE",
"1033 786 OFFCURVE",
"1026 778 OFFCURVE",
"1001 778 CURVE SMOOTH",
"970 778 OFFCURVE",
"939 784 OFFCURVE",
"908 784 CURVE SMOOTH",
"898 784 OFFCURVE",
"849 784 OFFCURVE",
"849 766 CURVE SMOOTH",
"849 522 OFFCURVE",
"863 279 OFFCURVE",
"863 35 CURVE",
"916 37 OFFCURVE",
"968 43 OFFCURVE",
"1021 43 CURVE SMOOTH",
"1046 43 OFFCURVE",
"1162 43 OFFCURVE",
"1162 4 CURVE",
"1150 -14 LINE",
"1046 -14 OFFCURVE",
"943 -20 OFFCURVE",
"839 -20 CURVE SMOOTH",
"821 -20 OFFCURVE",
"792 -13 OFFCURVE"
);
}
);
width = 1200;
},
{
layerId = "A3BE8AFD-64C8-4B22-9D76-F0CE292C8BA7";
paths = (
{
closed = 1;
nodes = (
"268 751 CURVE",
"300 689 OFFCURVE",
"280 241 OFFCURVE",
"380 232 CURVE",
"442 158 OFFCURVE",
"534 112 OFFCURVE",
"631 112 CURVE SMOOTH",
"664 112 OFFCURVE",
"811 122 OFFCURVE",
"811 168 CURVE SMOOTH",
"811 569 OFFCURVE",
"776 970 OFFCURVE",
"770 1371 CURVE",
"712 1436 OFFCURVE",
"609 1449 OFFCURVE",
"527 1449 CURVE SMOOTH",
"295 1449 OFFCURVE",
"268 1127 OFFCURVE",
"268 957 CURVE SMOOTH",
"268 911 OFFCURVE",
"269 865 OFFCURVE",
"269 820 CURVE SMOOTH",
"269 797 OFFCURVE",
"269 774 OFFCURVE"
);
},
{
closed = 1;
nodes = (
"1044 87 CURVE",
"1048 85 LINE",
"1077 85 LINE SMOOTH",
"1131 85 OFFCURVE",
"1213 80 OFFCURVE",
"1213 25 CURVE SMOOTH",
"1213 18 LINE",
"1190 -16 LINE",
"1082 -16 OFFCURVE",
"974 -22 OFFCURVE",
"866 -22 CURVE SMOOTH",
"840 -22 OFFCURVE",
"792 -6 OFFCURVE",
"792 26 CURVE",
"793 33 LINE",
"758 22 OFFCURVE",
"722 9 OFFCURVE",
"684 9 CURVE SMOOTH",
"206 9 OFFCURVE",
"174 438 OFFCURVE",
"174 809 CURVE SMOOTH",
"174 1032 OFFCURVE",
"176 1551 OFFCURVE",
"495 1551 CURVE SMOOTH",
"588 1551 OFFCURVE",
"691 1546 OFFCURVE",
"772 1494 CURVE",
"802 1537 LINE",
"833 1537 OFFCURVE",
"863 1525 OFFCURVE",
"894 1525 CURVE SMOOTH",
"1046 1525 LINE SMOOTH",
"1063 1525 OFFCURVE",
"1080 1528 OFFCURVE",
"1097 1529 CURVE",
"1119 1517 OFFCURVE",
"1144 1498 OFFCURVE",
"1144 1470 CURVE SMOOTH",
"1144 1439 OFFCURVE",
"1110 1426 OFFCURVE",
"1084 1426 CURVE SMOOTH",
"1011 1426 OFFCURVE",
"939 1432 OFFCURVE",
"866 1433 CURVE",
"866 1294 OFFCURVE",
"894 1157 OFFCURVE",
"894 1018 CURVE SMOOTH",
"894 983 OFFCURVE",
"890 948 OFFCURVE",
"890 913 CURVE SMOOTH",
"890 894 OFFCURVE",
"891 875 OFFCURVE",
"895 856 CURVE",
"957 854 LINE",
"966 854 LINE SMOOTH",
"983 854 OFFCURVE",
"998 855 OFFCURVE",
"1011 855 CURVE SMOOTH",
"1036 855 OFFCURVE",
"1056 850 OFFCURVE",
"1081 818 CURVE",
"1081 780 OFFCURVE",
"1067 754 OFFCURVE",
"1025 754 CURVE SMOOTH",
"991 754 OFFCURVE",
"959 758 OFFCURVE",
"925 758 CURVE SMOOTH",
"916 758 OFFCURVE",
"906 758 OFFCURVE",
"897 757 CURVE",
"897 531 OFFCURVE",
"910 306 OFFCURVE",
"911 80 CURVE",
"955 83 OFFCURVE",
"1000 87 OFFCURVE"
);
}
);
width = 1260;
}
);
unicode = 0152;
userData = {
com.fontlab.hintData = {
hhints = (
{
position = -20;
width = 55;
},
{
position = 10;
width = 62;
},
{
position = 778;
width = 58;
},
{
position = 1470;
width = 56;
},
{
position = 1497;
width = 55;
}
);
vhints = (
{
position = 94;
width = 49;
},
{
position = 692;
width = 47;
},
{
position = 705;
width = 63;
},
{
position = 733;
width = 39;
}
);
};
org.pippin.gimp.org.kernagic = {
lstem = 0;
rstem = 0;
};
};
},
{
glyphname = P;
lastChange = "2016-08-30 17:52:43 +0000";
layers = (
{
anchors = (
{
name = top;
position = "{296, 1536}";
}
);
layerId = "97F6A72F-75C9-4005-877B-5FF286A1C934";
paths = (
{
closed = 1;
nodes = (
"222 1505 CURVE",
"222 1272 OFFCURVE",
"246 1038 OFFCURVE",
"246 805 CURVE",
"250 801 LINE",
"281 803 OFFCURVE",
"296 828 OFFCURVE",
"316 848 CURVE SMOOTH",
"414 946 OFFCURVE",
"449 1053 OFFCURVE",
"449 1182 CURVE SMOOTH",
"449 1321 OFFCURVE",
"401 1505 OFFCURVE"
);
},
{
closed = 1;
nodes = (
"222 -12 CURVE SMOOTH",
"197 -12 OFFCURVE",
"197 45 OFFCURVE",
"197 59 CURVE SMOOTH",
"197 182 OFFCURVE",
"191 303 OFFCURVE",
"191 426 CURVE SMOOTH",
"191 537 OFFCURVE",
"189 647 OFFCURVE",
"189 758 CURVE SMOOTH",
"189 928 OFFCURVE",
"185 1098 OFFCURVE",
"179 1266 CURVE SMOOTH",
"175 1352 OFFCURVE",
"171 1500 OFFCURVE",
"171 1536 CURVE",
"183 1554 OFFCURVE",
"186 1565 OFFCURVE",
"209 1565 CURVE SMOOTH",
"412 1565 OFFCURVE",
"506 1364 OFFCURVE",
"506 1186 CURVE SMOOTH",
"506 1021 OFFCURVE",
"414 761 OFFCURVE",
"250 725 CURVE",
"250 500 OFFCURVE",
"267 276 OFFCURVE",
"267 51 CURVE SMOOTH",
"267 18 OFFCURVE",
"263 -12 OFFCURVE"
);
}
);
width = 660;
},
{
anchors = (
{
name = top;
position = "{367, 1536}";
}
);
layerId = "A3BE8AFD-64C8-4B22-9D76-F0CE292C8BA7";
paths = (
{
closed = 1;
nodes = (
"461 1158 CURVE SMOOTH",
"461 1159 LINE SMOOTH",
"461 1334 OFFCURVE",
"418 1362 OFFCURVE",
"281 1459 CURVE",
"282 1243 OFFCURVE",
"304 1027 OFFCURVE",
"305 811 CURVE",
"409 909 OFFCURVE",
"461 1014 OFFCURVE"
);
},
{
closed = 1;
nodes = (
"219 789 CURVE SMOOTH",
"219 1059 OFFCURVE",
"207 1327 OFFCURVE",
"166 1520 CURVE",
"184 1546 OFFCURVE",
"213 1566 OFFCURVE",
"245 1566 CURVE SMOOTH",
"456 1566 OFFCURVE",
"566 1365 OFFCURVE",
"566 1175 CURVE SMOOTH",
"566 983 OFFCURVE",
"484 805 OFFCURVE",
"310 712 CURVE",
"311 499 OFFCURVE",
"326 287 OFFCURVE",
"326 74 CURVE SMOOTH",
"326 30 OFFCURVE",
"309 -11 OFFCURVE",
"258 -11 CURVE SMOOTH",
"222 -11 OFFCURVE",
"209 29 OFFCURVE",
"209 58 CURVE SMOOTH",
"209 260 OFFCURVE",
"219 526 OFFCURVE"
);
}
);
width = 738;
}
);
unicode = 0050;
userData = {
com.fontlab.hintData = {
hhints = (
{
position = -12;
width = 21;
},
{
position = 1505;
width = 60;
}
);
vhints = (
{
position = 113;
width = 43;
},
{
position = 125;
width = 59;
},
{
position = 131;
width = 70;
},
{
position = 383;
width = 57;
}
);
};
org.pippin.gimp.org.kernagic = {
lstem = 0;
rstem = 261;
};
};
},
{
glyphname = Thorn;
lastChange = "2016-08-30 17:52:43 +0000";
layers = (
{
layerId = "97F6A72F-75C9-4005-877B-5FF286A1C934";
paths = (
{
closed = 1;
nodes = (
"231 1207 CURVE",
"231 1154 LINE",
"233 939 OFFCURVE",
"255 721 OFFCURVE",
"259 502 CURVE",
"290 504 OFFCURVE",
"365 529 OFFCURVE",
"385 549 CURVE SMOOTH",
"483 647 OFFCURVE",
"518 754 OFFCURVE",
"518 883 CURVE SMOOTH",
"518 1060 OFFCURVE",
"457 1207 OFFCURVE"
);
},
{
closed = 1;
nodes = (
"225 -12 CURVE SMOOTH",
"200 -12 OFFCURVE",
"200 45 OFFCURVE",
"200 59 CURVE SMOOTH",
"200 182 OFFCURVE",
"202 194 OFFCURVE",
"202 317 CURVE SMOOTH",
"202 428 OFFCURVE",
"198 458 OFFCURVE",
"198 569 CURVE SMOOTH",
"198 739 OFFCURVE",
"186 932 OFFCURVE",
"180 1100 CURVE SMOOTH",
"176 1186 OFFCURVE",
"165 1276 OFFCURVE",
"165 1366 CURVE SMOOTH",
"163 1376 OFFCURVE",
"163 1385 OFFCURVE",
"163 1395 CURVE SMOOTH",
"163 1415 OFFCURVE",
"166 1483 OFFCURVE",
"166 1515 CURVE SMOOTH",
"166 1523 OFFCURVE",
"165 1528 OFFCURVE",
"165 1530 CURVE SMOOTH",
"165 1540 OFFCURVE",
"172 1544 OFFCURVE",
"180 1546 CURVE SMOOTH",
"194 1546 OFFCURVE",
"214 1538 OFFCURVE",
"214 1540 CURVE",
"218 1485 OFFCURVE",
"219 1323 OFFCURVE",
"223 1268 CURVE",
"223 1266 LINE",
"492 1262 OFFCURVE",
"575 1063 OFFCURVE",
"575 887 CURVE SMOOTH",
"575 768 OFFCURVE",
"518 564 OFFCURVE",
"422 488 CURVE SMOOTH",
"406 474 OFFCURVE",
"385 471 OFFCURVE",
"369 459 CURVE SMOOTH",
"349 445 OFFCURVE",
"286 433 OFFCURVE",
"259 427 CURVE",
"259 202 OFFCURVE",
"270 276 OFFCURVE",
"270 51 CURVE SMOOTH",
"270 18 OFFCURVE",
"266 -12 OFFCURVE"
);
}
);
width = 700;
},
{
layerId = "A3BE8AFD-64C8-4B22-9D76-F0CE292C8BA7";
paths = (
{
closed = 1;
nodes = (
"184 1297 CURVE",
"182 1487 LINE SMOOTH",
"182 1522 OFFCURVE",
"194 1548 OFFCURVE",
"233 1548 CURVE SMOOTH",
"293 1548 OFFCURVE",
"303 1483 OFFCURVE",
"303 1424 CURVE SMOOTH",
"303 1396 OFFCURVE",
"301 1370 OFFCURVE",
"301 1353 CURVE",
"482 1327 OFFCURVE",
"563 1128 OFFCURVE",
"563 965 CURVE SMOOTH",
"563 773 OFFCURVE",
"481 595 OFFCURVE",
"307 502 CURVE",
"308 359 OFFCURVE",
"323 217 OFFCURVE",
"323 74 CURVE SMOOTH",
"323 29 OFFCURVE",
"306 -11 OFFCURVE",
"255 -11 CURVE SMOOTH",
"219 -11 OFFCURVE",
"206 29 OFFCURVE",
"206 58 CURVE SMOOTH",
"206 471 OFFCURVE",
"184 884 OFFCURVE"
);
},
{
closed = 1;
nodes = (
"457 948 CURVE SMOOTH",
"457 1117 OFFCURVE",
"433 1147 OFFCURVE",
"304 1249 CURVE",
"298 1249 LINE",
"298 1033 OFFCURVE",
"302 817 OFFCURVE",
"302 601 CURVE",
"406 699 OFFCURVE",
"457 804 OFFCURVE"
);
}
);
width = 756;
}
);
unicode = 00DE;
userData = {
com.fontlab.hintData = {
hhints = (
{
position = -12;
width = 21;
},
{
position = 1317;
width = 59;
},
{
position = 1526;
width = 20;
}
);
vhints = (
{
position = 96;
width = 66;
},
{
position = 96;
width = 58;
},
{
position = 131;
width = 70;
},
{
position = 389;
width = 57;
}
);
};
org.pippin.gimp.org.kernagic = {
lstem = 0;
rstem = 0;
};
};
},
{
glyphname = Q;
lastChange = "2016-08-30 17:52:43 +0000";
layers = (
{
layerId = "97F6A72F-75C9-4005-877B-5FF286A1C934";
paths = (
{
closed = 1;
nodes = (
"238 713 CURVE SMOOTH",
"238 590 LINE SMOOTH",
"238 457 OFFCURVE",
"271 80 OFFCURVE",
"457 80 CURVE SMOOTH",
"558 80 OFFCURVE",
"600 329 OFFCURVE",
"600 887 CURVE SMOOTH",
"600 941 LINE SMOOTH",
"600 1161 OFFCURVE",
"592 1520 OFFCURVE",
"387 1520 CURVE SMOOTH",
"253 1520 OFFCURVE",
"238 900 OFFCURVE"
);
},
{
closed = 1;
nodes = (
"651 -283 CURVE SMOOTH",
"637 -283 OFFCURVE",
"606 -262 OFFCURVE",
"590 -256 CURVE SMOOTH",
"504 -219 OFFCURVE",
"508 -63 OFFCURVE",
"481 27 CURVE",
"192 27 OFFCURVE",
"180 381 OFFCURVE",
"180 573 CURVE SMOOTH",
"180 631 OFFCURVE",
"179 697 OFFCURVE",
"179 765 CURVE SMOOTH",
"179 1127 OFFCURVE",
"195 1577 OFFCURVE",
"391 1577 CURVE SMOOTH",
"487 1577 OFFCURVE",
"600 1485 OFFCURVE",
"616 1391 CURVE SMOOTH",
"661 1137 OFFCURVE",
"672 852 OFFCURVE",
"672 594 CURVE SMOOTH",
"672 369 OFFCURVE",
"640 189 OFFCURVE",
"545 53 CURVE",
"547 28 OFFCURVE",
"559 9 OFFCURVE",
"565 -14 CURVE SMOOTH",
"581 -73 OFFCURVE",
"563 -217 OFFCURVE",
"657 -217 CURVE SMOOTH",
"665 -217 LINE SMOOTH",
"687 -217 OFFCURVE",
"729 -219 OFFCURVE",
"729 -244 CURVE SMOOTH",
"729 -283 OFFCURVE",
"678 -283 OFFCURVE"
);
}
);
width = 860;
},
{
layerId = "A3BE8AFD-64C8-4B22-9D76-F0CE292C8BA7";
paths = (
{
closed = 1;
nodes = (
"719 659 CURVE SMOOTH",
"719 567 LINE SMOOTH",
"719 369 OFFCURVE",
"712 236 OFFCURVE",
"593 70 CURVE",
"603 27 OFFCURVE",
"624 -169 OFFCURVE",
"680 -169 CURVE SMOOTH",
"688 -169 LINE SMOOTH",
"724 -169 OFFCURVE",
"776 -171 OFFCURVE",
"776 -219 CURVE SMOOTH",
"776 -270 OFFCURVE",
"726 -282 OFFCURVE",
"685 -282 CURVE SMOOTH",
"654 -282 OFFCURVE",
"626 -268 OFFCURVE",
"600 -253 CURVE",
"600 -252 LINE",
"502 -207 OFFCURVE",
"505 -69 OFFCURVE",
"486 20 CURVE",
"402 20 LINE",
"208 149 OFFCURVE",
"182 359 OFFCURVE",
"182 574 CURVE SMOOTH",
"182 685 OFFCURVE",
"192 797 OFFCURVE",
"192 908 CURVE SMOOTH",
"192 943 OFFCURVE",
"190 994 OFFCURVE",
"190 1052 CURVE SMOOTH",
"190 1265 OFFCURVE",
"212 1576 OFFCURVE",
"416 1576 CURVE SMOOTH",
"694 1576 OFFCURVE",
"721 1186 OFFCURVE",
"721 868 CURVE SMOOTH",
"721 792 OFFCURVE",
"719 721 OFFCURVE"
);
},
{
closed = 1;
nodes = (
"399 1474 CURVE SMOOTH",
"292 1474 OFFCURVE",
"283 775 OFFCURVE",
"283 653 CURVE SMOOTH",
"283 522 OFFCURVE",
"297 95 OFFCURVE",
"474 80 CURVE",
"474 82 LINE",
"484 99 OFFCURVE",
"510 108 OFFCURVE",
"530 108 CURVE",
"530 107 LINE",
"590 162 OFFCURVE",
"607 252 OFFCURVE",
"607 327 CURVE SMOOTH",
"607 878 LINE SMOOTH",
"607 1109 OFFCURVE",
"596 1474 OFFCURVE"
);
}
);
width = 918;
}
);
unicode = 0051;
userData = {
com.fontlab.hintData = {
hhints = (
{
position = -283;
width = 66;
},
{
position = 27;
width = 53;
},
{
position = 1520;
width = 57;
}
);
vhints = (
{
position = 95;
width = 59;
},
{
position = 516;
width = 72;
}
);
};
org.pippin.gimp.org.kernagic = {
lstem = 0;
rstem = 0;
};
};
},
{
glyphname = R;
lastChange = "2016-08-30 17:52:43 +0000";
layers = (
{
anchors = (
{
name = top;
position = "{306, 1536}";
}
);
layerId = "97F6A72F-75C9-4005-877B-5FF286A1C934";
paths = (
{
closed = 1;
nodes = (
"254 1491 CURVE",
"254 913 LINE",
"283 913 OFFCURVE",
"350 994 OFFCURVE",
"364 1018 CURVE SMOOTH",
"387 1061 OFFCURVE",
"398 1157 OFFCURVE",
"398 1206 CURVE SMOOTH",
"398 1287 OFFCURVE",
"368 1492 OFFCURVE",
"264 1492 CURVE SMOOTH",
"261 1492 OFFCURVE",
"257 1491 OFFCURVE"
);
},
{
closed = 1;
nodes = (
"505 20 CURVE SMOOTH",
"495 62 OFFCURVE",
"425 295 OFFCURVE",
"396 432 CURVE SMOOTH",
"365 571 OFFCURVE",
"340 733 OFFCURVE",
"303 870 CURVE",
"294 866 OFFCURVE",
"267 848 OFFCURVE",
"255 846 CURVE",
"259 57 LINE",
"259 27 LINE SMOOTH",
"259 2 OFFCURVE",
"251 -14 OFFCURVE",
"222 -14 CURVE SMOOTH",
"202 -14 OFFCURVE",
"187 0 OFFCURVE",
"187 20 CURVE SMOOTH",
"187 51 LINE SMOOTH",
"187 465 OFFCURVE",
"202 860 OFFCURVE",
"202 1274 CURVE SMOOTH",
"202 1538 LINE SMOOTH",
"202 1554 OFFCURVE",
"225 1556 OFFCURVE",
"239 1556 CURVE SMOOTH",
"395 1556 OFFCURVE",
"466 1383 OFFCURVE",
"466 1231 CURVE SMOOTH",
"466 1161 OFFCURVE",
"450 1092 OFFCURVE",
"425 1026 CURVE SMOOTH",
"417 1001 OFFCURVE",
"385 926 OFFCURVE",
"363 902 CURVE",
"378 846 OFFCURVE",
"557 147 OFFCURVE",
"583 47 CURVE SMOOTH",
"585 40 OFFCURVE",
"586 32 OFFCURVE",
"586 24 CURVE SMOOTH",
"586 1 OFFCURVE",
"576 -20 OFFCURVE",
"556 -20 CURVE SMOOTH",
"531 -20 OFFCURVE",
"513 -8 OFFCURVE"
);
}
);
width = 700;
},
{
anchors = (
{
name = bot;
position = "{390, 0}";
},
{
name = top;
position = "{347, 1536}";
}
);
layerId = "A3BE8AFD-64C8-4B22-9D76-F0CE292C8BA7";
paths = (
{
closed = 1;
nodes = (
"395 1207 LINE SMOOTH",
"396 1214 OFFCURVE",
"397 1223 OFFCURVE",
"397 1234 CURVE SMOOTH",
"397 1308 OFFCURVE",
"364 1451 OFFCURVE",
"303 1463 CURVE",
"302 1324 OFFCURVE",
"292 1184 OFFCURVE",
"292 1045 CURVE SMOOTH",
"292 1014 OFFCURVE",
"292 982 OFFCURVE",
"294 951 CURVE",
"319 975 OFFCURVE",
"342 1002 OFFCURVE",
"363 1030 CURVE"
);
},
{
closed = 1;
nodes = (
"299 859 CURVE",
"299 52 LINE SMOOTH",
"299 17 OFFCURVE",
"293 -13 OFFCURVE",
"242 -13 CURVE SMOOTH",
"211 -13 OFFCURVE",
"190 12 OFFCURVE",
"190 44 CURVE SMOOTH",
"190 60 LINE SMOOTH",
"190 460 OFFCURVE",
"198 861 OFFCURVE",
"198 1261 CURVE SMOOTH",
"198 1513 LINE SMOOTH",
"198 1541 OFFCURVE",
"203 1557 OFFCURVE",
"252 1557 CURVE SMOOTH",
"429 1557 OFFCURVE",
"510 1370 OFFCURVE",
"510 1217 CURVE SMOOTH",
"510 1097 OFFCURVE",
"458 985 OFFCURVE",
"415 876 CURVE",
"418 648 OFFCURVE",
"555 299 OFFCURVE",
"626 76 CURVE",
"626 71 LINE SMOOTH",
"626 35 OFFCURVE",
"627 -21 OFFCURVE",
"576 -21 CURVE SMOOTH",
"542 -21 OFFCURVE",
"519 8 OFFCURVE",
"502 34 CURVE",
"502 41 LINE",
"486 299 OFFCURVE",
"365 598 OFFCURVE"
);
}
);
width = 756;
}
);
unicode = 0052;
userData = {
com.fontlab.hintData = {
hhints = (
{
position = -14;
width = 21;
},
{
position = 1492;
width = 64;
}
);
vhints = (
{
position = 106;
width = 72;
},
{
position = 121;
width = 52;
},
{
position = 317;
width = 68;
}
);
};
org.pippin.gimp.org.kernagic = {
lstem = 0;
rstem = 293;
};
};
},
{
glyphname = S;
lastChange = "2016-08-30 17:52:43 +0000";
layers = (
{
anchors = (
{
name = top;
position = "{366, 1536}";
}
);
layerId = "97F6A72F-75C9-4005-877B-5FF286A1C934";
paths = (
{
closed = 1;
nodes = (
"376 1573 CURVE SMOOTH",
"399 1573 OFFCURVE",
"471 1546 OFFCURVE",
"471 1515 CURVE SMOOTH",
"471 1505 OFFCURVE",
"464 1499 OFFCURVE",
"458 1499 CURVE SMOOTH",
"431 1499 OFFCURVE",
"419 1520 OFFCURVE",
"391 1520 CURVE SMOOTH",
"287 1520 OFFCURVE",
"241 1391 OFFCURVE",
"241 1305 CURVE SMOOTH",
"241 946 OFFCURVE",
"538 725 OFFCURVE",
"538 330 CURVE SMOOTH",
"538 183 OFFCURVE",
"460 -45 OFFCURVE",
"282 -45 CURVE SMOOTH",
"233 -45 OFFCURVE",
"174 -43 OFFCURVE",
"147 6 CURVE",
"147 20 OFFCURVE",
"151 31 OFFCURVE",
"169 31 CURVE SMOOTH",
"210 31 OFFCURVE",
"243 0 OFFCURVE",
"282 0 CURVE SMOOTH",
"417 0 OFFCURVE",
"464 238 OFFCURVE",
"464 340 CURVE SMOOTH",
"464 721 OFFCURVE",
"171 926 OFFCURVE",
"171 1288 CURVE SMOOTH",
"171 1407 OFFCURVE",
"235 1573 OFFCURVE"
);
}
);
width = 700;
},
{
anchors = (
{
name = bot;
position = "{360, 0}";
},
{
name = top;
position = "{417, 1536}";
}
);
layerId = "A3BE8AFD-64C8-4B22-9D76-F0CE292C8BA7";
paths = (
{
closed = 1;
nodes = (
"300 1290 CURVE SMOOTH",
"300 939 OFFCURVE",
"597 751 OFFCURVE",
"597 342 CURVE SMOOTH",
"597 179 OFFCURVE",
"509 -45 OFFCURVE",
"317 -45 CURVE SMOOTH",
"277 -45 OFFCURVE",
"158 -31 OFFCURVE",
"158 24 CURVE SMOOTH",
"158 52 OFFCURVE",
"172 79 OFFCURVE",
"204 79 CURVE SMOOTH",
"248 79 OFFCURVE",
"285 48 OFFCURVE",
"317 48 CURVE SMOOTH",
"430 48 OFFCURVE",
"476 268 OFFCURVE",
"476 355 CURVE SMOOTH",
"476 690 OFFCURVE",
"183 940 OFFCURVE",
"183 1275 CURVE SMOOTH",
"183 1408 OFFCURVE",
"257 1574 OFFCURVE",
"411 1574 CURVE SMOOTH",
"459 1574 OFFCURVE",
"513 1545 OFFCURVE",
"532 1500 CURVE",
"497 1456 LINE",
"469 1456 OFFCURVE",
"440 1460 OFFCURVE",
"417 1476 CURVE",
"335 1468 OFFCURVE",
"300 1360 OFFCURVE"
);
}
);
width = 774;
}
);
unicode = 0053;
userData = {
com.fontlab.hintData = {
hhints = (
{
position = -45;
width = 45;
},
{
position = 1520;
width = 53;
}
);
vhints = (
{
position = 104;
width = 70;
},
{
position = 397;
width = 74;
}
);
};
org.pippin.gimp.org.kernagic = {
lstem = 0;
rstem = 0;
};
};
},
{
glyphname = T;
lastChange = "2016-08-30 17:52:43 +0000";
layers = (
{
anchors = (
{
name = top;
position = "{376, 1536}";
}
);
layerId = "97F6A72F-75C9-4005-877B-5FF286A1C934";
paths = (
{
closed = 1;
nodes = (
"340 40 CURVE SMOOTH",
"341 96 OFFCURVE",
"341 160 OFFCURVE",
"341 223 CURVE SMOOTH",
"341 406 LINE SMOOTH",
"341 623 OFFCURVE",
"331 842 OFFCURVE",
"331 1061 CURVE SMOOTH",
"331 1104 OFFCURVE",
"333 1112 OFFCURVE",
"333 1253 CURVE SMOOTH",
"333 1351 OFFCURVE",
"329 1474 OFFCURVE",
"328 1474 CURVE SMOOTH",
"97 1474 LINE SMOOTH",
"79 1474 OFFCURVE",
"54 1482 OFFCURVE",
"54 1505 CURVE SMOOTH",
"54 1529 OFFCURVE",
"60 1544 OFFCURVE",
"175 1544 CURVE SMOOTH",
"229 1544 OFFCURVE",
"524 1546 OFFCURVE",
"605 1546 CURVE SMOOTH",
"643 1546 OFFCURVE",
"648 1531 OFFCURVE",
"648 1511 CURVE SMOOTH",
"648 1486 OFFCURVE",
"632 1481 OFFCURVE",
"609 1481 CURVE SMOOTH",
"586 1481 OFFCURVE",
"449 1480 OFFCURVE",
"426 1480 CURVE SMOOTH",
"400 1480 OFFCURVE",
"409 1477 OFFCURVE",
"409 1478 CURVE",
"409 1440 OFFCURVE",
"410 1290 OFFCURVE",
"410 1200 CURVE SMOOTH",
"410 368 LINE SMOOTH",
"410 314 OFFCURVE",
"412 78 OFFCURVE",
"412 48 CURVE SMOOTH",
"412 42 LINE SMOOTH",
"412 13 OFFCURVE",
"411 -12 OFFCURVE",
"382 -12 CURVE SMOOTH",
"351 -12 OFFCURVE",
"340 15 OFFCURVE"
);
}
);
width = 720;
},
{
anchors = (
{
name = bot;
position = "{418, 0}";
},
{
name = mid;
position = "{394, 857}";
},
{
name = top;
position = "{397, 1536}";
}
);
layerId = "A3BE8AFD-64C8-4B22-9D76-F0CE292C8BA7";
paths = (
{
closed = 1;
nodes = (
"441 925 CURVE SMOOTH",
"441 765 OFFCURVE",
"459 615 OFFCURVE",
"459 454 CURVE SMOOTH",
"459 331 OFFCURVE",
"476 209 OFFCURVE",
"476 86 CURVE SMOOTH",
"476 46 OFFCURVE",
"470 -14 OFFCURVE",
"417 -14 CURVE SMOOTH",
"366 -14 OFFCURVE",
"351 48 OFFCURVE",
"351 89 CURVE SMOOTH",
"351 198 OFFCURVE",
"367 307 OFFCURVE",
"367 416 CURVE SMOOTH",
"367 629 OFFCURVE",
"339 841 OFFCURVE",
"339 1054 CURVE SMOOTH",
"339 1093 OFFCURVE",
"342 1163 OFFCURVE",
"342 1233 CURVE SMOOTH",
"342 1311 OFFCURVE",
"338 1389 OFFCURVE",
"323 1424 CURVE",
"286 1422 OFFCURVE",
"249 1413 OFFCURVE",
"212 1413 CURVE SMOOTH",
"180 1413 OFFCURVE",
"145 1433 OFFCURVE",
"145 1469 CURVE SMOOTH",
"145 1539 OFFCURVE",
"464 1550 OFFCURVE",
"521 1550 CURVE SMOOTH",
"553 1550 OFFCURVE",
"587 1526 OFFCURVE",
"587 1492 CURVE SMOOTH",
"587 1457 OFFCURVE",
"557 1438 OFFCURVE",
"525 1438 CURVE SMOOTH",
"500 1438 OFFCURVE",
"476 1442 OFFCURVE",
"452 1442 CURVE SMOOTH",
"445 1442 OFFCURVE",
"438 1442 OFFCURVE",
"431 1441 CURVE",
"441 1357 OFFCURVE",
"445 1273 OFFCURVE",
"445 1189 CURVE SMOOTH",
"445 1102 OFFCURVE",
"441 1013 OFFCURVE"
);
}
);
width = 720;
}
);
unicode = 0054;
userData = {
com.fontlab.hintData = {
hhints = (
{
position = -12;
width = 21;
},
{
position = 1474;
width = 72;
}
);
vhints = (
{
position = 272;
width = 69;
}
);
};
com.typemytype.robofont.layerData = {
};
org.pippin.gimp.org.kernagic = {
lstem = 173;
rstem = 434;
};
};
},
{
glyphname = Tbar;
lastChange = "2016-08-30 17:52:43 +0000";
layers = (
{
layerId = "97F6A72F-75C9-4005-877B-5FF286A1C934";
paths = (
{
closed = 1;
nodes = (
"335 70 CURVE SMOOTH",
"337 183 OFFCURVE",
"352 293 OFFCURVE",
"352 406 CURVE SMOOTH",
"352 502 OFFCURVE",
"346 597 OFFCURVE",
"340 693 CURVE",
"291 688 OFFCURVE",
"246 686 OFFCURVE",
"217 686 CURVE SMOOTH",
"199 686 OFFCURVE",
"174 696 OFFCURVE",
"174 715 CURVE SMOOTH",
"174 728 OFFCURVE",
"251 741 OFFCURVE",
"336 750 CURVE",
"329 854 OFFCURVE",
"323 957 OFFCURVE",
"323 1061 CURVE SMOOTH",
"323 1104 OFFCURVE",
"325 1112 OFFCURVE",
"325 1253 CURVE SMOOTH",
"325 1351 OFFCURVE",
"319 1464 OFFCURVE",
"290 1464 CURVE SMOOTH",
"251 1464 OFFCURVE",
"213 1452 OFFCURVE",
"174 1452 CURVE SMOOTH",
"156 1452 OFFCURVE",
"131 1464 OFFCURVE",
"131 1487 CURVE SMOOTH",
"131 1518 OFFCURVE",
"399 1546 OFFCURVE",
"483 1546 CURVE SMOOTH",
"501 1546 OFFCURVE",
"526 1531 OFFCURVE",
"526 1511 CURVE SMOOTH",
"526 1486 OFFCURVE",
"510 1481 OFFCURVE",
"487 1481 CURVE SMOOTH",
"464 1481 OFFCURVE",
"434 1487 OFFCURVE",
"411 1487 CURVE SMOOTH",
"391 1487 OFFCURVE",
"374 1482 OFFCURVE",
"368 1466 CURVE",
"378 1380 OFFCURVE",
"383 1290 OFFCURVE",
"383 1200 CURVE SMOOTH",
"383 1118 OFFCURVE",
"380 1034 OFFCURVE",
"380 952 CURVE SMOOTH",
"380 891 OFFCURVE",
"380 822 OFFCURVE",
"385 754 CURVE",
"441 759 OFFCURVE",
"494 762 OFFCURVE",
"524 762 CURVE SMOOTH",
"537 762 OFFCURVE",
"555 752 OFFCURVE",
"555 739 CURVE SMOOTH",
"555 723 OFFCURVE",
"476 709 OFFCURVE",
"391 699 CURVE",
"395 667 OFFCURVE",
"401 634 OFFCURVE",
"409 604 CURVE",
"405 584 OFFCURVE",
"403 565 OFFCURVE",
"403 545 CURVE SMOOTH",
"403 387 OFFCURVE",
"413 222 OFFCURVE",
"413 68 CURVE SMOOTH",
"413 37 OFFCURVE",
"409 -12 OFFCURVE",
"378 -12 CURVE SMOOTH",
"347 -12 OFFCURVE",
"335 45 OFFCURVE"
);
}
);
width = 720;
},
{
components = (
{
name = T;
},
{
name = macron;
transform = "{1, 0, 0, 1, -34, -620}";
}
);
layerId = "A3BE8AFD-64C8-4B22-9D76-F0CE292C8BA7";
width = 720;
}
);
unicode = 0166;
userData = {
com.fontlab.hintData = {
hhints = (
{
position = -12;
width = 21;
},
{
position = 686;
width = 64;
},
{
position = 1481;
width = 65;
}
);
vhints = (
{
position = 262;
width = 57;
},
{
position = 274;
width = 78;
},
{
position = 291;
width = 51;
}
);
};
org.pippin.gimp.org.kernagic = {
lstem = 0;
rstem = 0;
};
};
},
{
glyphname = U;
lastChange = "2016-08-30 17:52:43 +0000";
layers = (
{
anchors = (
{
name = top;
position = "{406, 1536}";
}
);
layerId = "97F6A72F-75C9-4005-877B-5FF286A1C934";
paths = (
{
closed = 1;
nodes = (
"197 473 CURVE SMOOTH",
"191 536 OFFCURVE",
"156 1122 OFFCURVE",
"156 1448 CURVE SMOOTH",
"156 1456 OFFCURVE",
"155 1467 OFFCURVE",
"155 1479 CURVE SMOOTH",
"155 1505 OFFCURVE",
"159 1532 OFFCURVE",
"187 1532 CURVE SMOOTH",
"224 1532 OFFCURVE",
"229 1509 OFFCURVE",
"229 1483 CURVE SMOOTH",
"229 1473 OFFCURVE",
"228 1462 OFFCURVE",
"228 1452 CURVE SMOOTH",
"228 1097 OFFCURVE",
"254 586 OFFCURVE",
"271 422 CURVE SMOOTH",
"282 312 OFFCURVE",
"327 27 OFFCURVE",
"462 27 CURVE SMOOTH",
"591 27 OFFCURVE",
"605 173 OFFCURVE",
"605 281 CURVE SMOOTH",
"605 514 LINE SMOOTH",
"605 732 OFFCURVE",
"587 1102 OFFCURVE",
"587 1159 CURVE SMOOTH",
"587 1276 OFFCURVE",
"578 1390 OFFCURVE",
"578 1507 CURVE SMOOTH",
"578 1539 OFFCURVE",
"598 1555 OFFCURVE",
"618 1555 CURVE SMOOTH",
"638 1555 OFFCURVE",
"658 1539 OFFCURVE",
"658 1507 CURVE SMOOTH",
"658 1352 LINE SMOOTH",
"658 1229 OFFCURVE",
"659 1106 OFFCURVE",
"659 983 CURVE SMOOTH",
"659 740 OFFCURVE",
"666 523 OFFCURVE",
"666 295 CURVE SMOOTH",
"666 168 OFFCURVE",
"641 -39 OFFCURVE",
"469 -39 CURVE SMOOTH",
"197 -39 OFFCURVE",
"201 428 OFFCURVE"
);
}
);
width = 860;
},
{
anchors = (
{
name = ogonek;
position = "{606, 0}";
},
{
name = top;
position = "{447, 1536}";
}
);
layerId = "A3BE8AFD-64C8-4B22-9D76-F0CE292C8BA7";
paths = (
{
closed = 1;
nodes = (
"173 1435 CURVE",
"163 1446 OFFCURVE",
"158 1462 OFFCURVE",
"158 1477 CURVE SMOOTH",
"158 1509 OFFCURVE",
"184 1540 OFFCURVE",
"217 1540 CURVE SMOOTH",
"285 1540 OFFCURVE",
"291 1443 OFFCURVE",
"291 1394 CURVE SMOOTH",
"291 1157 OFFCURVE",
"310 919 OFFCURVE",
"310 682 CURVE",
"328 641 OFFCURVE",
"339 492 OFFCURVE",
"339 444 CURVE SMOOTH",
"339 335 OFFCURVE",
"414 35 OFFCURVE",
"555 35 CURVE SMOOTH",
"639 35 OFFCURVE",
"640 160 OFFCURVE",
"640 219 CURVE SMOOTH",
"640 619 LINE SMOOTH",
"640 748 OFFCURVE",
"614 876 OFFCURVE",
"614 1005 CURVE SMOOTH",
"614 1019 LINE SMOOTH",
"614 1059 OFFCURVE",
"610 1098 OFFCURVE",
"610 1138 CURVE SMOOTH",
"610 1255 OFFCURVE",
"595 1372 OFFCURVE",
"595 1489 CURVE SMOOTH",
"595 1525 OFFCURVE",
"640 1545 OFFCURVE",
"672 1545 CURVE",
"722 1497 LINE",
"722 1463 LINE SMOOTH",
"721 1421 OFFCURVE",
"707 1380 OFFCURVE",
"707 1338 CURVE SMOOTH",
"707 989 OFFCURVE",
"744 663 OFFCURVE",
"744 288 CURVE SMOOTH",
"744 137 OFFCURVE",
"724 -37 OFFCURVE",
"542 -37 CURVE SMOOTH",
"203 -37 OFFCURVE",
"171 607 OFFCURVE",
"171 1115 CURVE SMOOTH",
"171 1232 OFFCURVE",
"173 1342 OFFCURVE"
);
}
);
width = 936;
}
);
unicode = 0055;
userData = {
com.fontlab.hintData = {
hhints = (
{
position = -39;
width = 66;
},
{
position = 1535;
width = 20;
}
);
vhints = (
{
position = 97;
width = 74;
},
{
position = 520;
width = 80;
},
{
position = 547;
width = 61;
}
);
};
org.pippin.gimp.org.kernagic = {
lstem = 0;
rstem = 0;
};
};
},
{
glyphname = V;
lastChange = "2016-08-30 17:52:43 +0000";
layers = (
{
layerId = "97F6A72F-75C9-4005-877B-5FF286A1C934";
paths = (
{
closed = 1;
nodes = (
"397 101 LINE",
"390 101 LINE",
"394 106 LINE"
);
},
{
closed = 1;
nodes = (
"585 1276 CURVE SMOOTH",
"596 1362 OFFCURVE",
"614 1444 OFFCURVE",
"614 1530 CURVE",
"593 1546 LINE",
"597 1546 LINE",
"585 1554 LINE",
"562 1554 OFFCURVE",
"548 1545 OFFCURVE",
"546 1516 CURVE SMOOTH",
"541 1444 OFFCURVE",
"525 1370 OFFCURVE",
"517 1298 CURVE SMOOTH",
"486 1011 OFFCURVE",
"464 781 OFFCURVE",
"431 494 CURVE SMOOTH",
"423 431 OFFCURVE",
"409 260 OFFCURVE",
"394 112 CURVE",
"381 200 OFFCURVE",
"363 336 OFFCURVE",
"341 493 CURVE SMOOTH",
"238 1197 LINE",
"222 1292 OFFCURVE",
"207 1382 OFFCURVE",
"192 1462 CURVE SMOOTH",
"188 1487 OFFCURVE",
"184 1548 OFFCURVE",
"147 1548 CURVE SMOOTH",
"132 1548 OFFCURVE",
"118 1530 OFFCURVE",
"118 1512 CURVE SMOOTH",
"118 1426 OFFCURVE",
"172 1231 OFFCURVE",
"182 1174 CURVE",
"294 442 LINE SMOOTH",
"317 292 OFFCURVE",
"339 137 OFFCURVE",
"376 -10 CURVE",
"384 -12 OFFCURVE",
"399 -18 OFFCURVE",
"407 -18 CURVE SMOOTH",
"427 -18 OFFCURVE",
"440 11 OFFCURVE",
"446 27 CURVE",
"448 160 OFFCURVE",
"577 1212 OFFCURVE"
);
}
);
width = 740;
},
{
layerId = "A3BE8AFD-64C8-4B22-9D76-F0CE292C8BA7";
paths = (
{
closed = 1;
nodes = (
"183 1563 CURVE SMOOTH",
"255 1563 OFFCURVE",
"398 490 OFFCURVE",
"429 339 CURVE",
"474 733 OFFCURVE",
"554 1130 OFFCURVE",
"554 1528 CURVE",
"573 1552 OFFCURVE",
"598 1569 OFFCURVE",
"629 1569 CURVE",
"672 1546 LINE",
"651 1356 OFFCURVE",
"508 -34 OFFCURVE",
"445 -34 CURVE SMOOTH",
"427 -34 OFFCURVE",
"409 -26 OFFCURVE",
"397 -12 CURVE",
"307 359 OFFCURVE",
"200 1167 OFFCURVE",
"126 1523 CURVE",
"134 1549 OFFCURVE",
"157 1563 OFFCURVE"
);
}
);
width = 810;
}
);
unicode = 0056;
userData = {
com.fontlab.hintData = {
hhints = (
{
position = -18;
width = 21;
},
{
position = 1528;
width = 20;
}
);
vhints = (
{
position = 344;
width = 70;
},
{
position = 502;
width = 80;
}
);
};
com.typemytype.robofont.layerData = {
};
org.pippin.gimp.org.kernagic = {
lstem = 0;
rstem = 0;
};
};
},
{
glyphname = W;
lastChange = "2016-08-30 17:52:43 +0000";
layers = (
{
anchors = (
{
name = top;
position = "{476, 1536}";
}
);
layerId = "97F6A72F-75C9-4005-877B-5FF286A1C934";
paths = (
{
closed = 1;
nodes = (
"357 90 LINE",
"376 284 OFFCURVE",
"443 1030 OFFCURVE",
"459 1209 CURVE SMOOTH",
"459 1211 OFFCURVE",
"461 1211 OFFCURVE",
"461 1213 CURVE",
"467 1209 LINE",
"496 971 OFFCURVE",
"580 322 OFFCURVE",
"615 86 CURVE SMOOTH",
"623 33 OFFCURVE",
"609 -27 OFFCURVE",
"664 -27 CURVE SMOOTH",
"697 -27 OFFCURVE",
"701 -4 OFFCURVE",
"701 23 CURVE SMOOTH",
"701 46 OFFCURVE",
"743 384 OFFCURVE",
"752 496 CURVE",
"771 648 OFFCURVE",
"810 1138 OFFCURVE",
"849 1462 CURVE SMOOTH",
"851 1476 OFFCURVE",
"857 1491 OFFCURVE",
"857 1507 CURVE SMOOTH",
"857 1511 OFFCURVE",
"857 1516 OFFCURVE",
"855 1520 CURVE",
"865 1528 OFFCURVE",
"877 1545 OFFCURVE",
"877 1559 CURVE SMOOTH",
"877 1577 OFFCURVE",
"854 1591 OFFCURVE",
"838 1591 CURVE SMOOTH",
"793 1591 OFFCURVE",
"785 1571 OFFCURVE",
"785 1542 CURVE SMOOTH",
"785 1530 OFFCURVE",
"787 1517 OFFCURVE",
"787 1503 CURVE SMOOTH",
"787 1329 OFFCURVE",
"750 1155 OFFCURVE",
"740 981 CURVE",
"664 152 LINE",
"658 156 LINE",
"635 396 OFFCURVE",
"505 1236 OFFCURVE",
"488 1323 CURVE SMOOTH",
"481 1354 OFFCURVE",
"486 1386 OFFCURVE",
"437 1386 CURVE",
"421 1378 OFFCURVE",
"424 1366 OFFCURVE",
"422 1346 CURVE SMOOTH",
"419 1308 OFFCURVE",
"415 1238 OFFCURVE",
"410 1184 CURVE SMOOTH",
"398 1069 OFFCURVE",
"370 953 OFFCURVE",
"362 838 CURVE SMOOTH",
"348 673 OFFCURVE",
"329 282 OFFCURVE",
"316 179 CURVE",
"312 179 LINE",
"281 445 OFFCURVE",
"204 1166 OFFCURVE",
"179 1432 CURVE SMOOTH",
"178 1440 OFFCURVE",
"178 1447 OFFCURVE",
"178 1454 CURVE SMOOTH",
"178 1469 OFFCURVE",
"179 1481 OFFCURVE",
"179 1493 CURVE SMOOTH",
"179 1522 OFFCURVE",
"172 1540 OFFCURVE",
"126 1540 CURVE SMOOTH",
"110 1540 OFFCURVE",
"91 1527 OFFCURVE",
"83 1513 CURVE",
"114 1464 OFFCURVE",
"207 581 OFFCURVE",
"230 434 CURVE SMOOTH",
"244 340 OFFCURVE",
"277 152 OFFCURVE",
"285 74 CURVE",
"285 64 LINE SMOOTH",
"285 50 OFFCURVE",
"283 34 OFFCURVE",
"283 19 CURVE SMOOTH",
"283 -6 OFFCURVE",
"289 -27 OFFCURVE",
"322 -27 CURVE SMOOTH",
"354 -27 OFFCURVE",
"357 20 OFFCURVE",
"357 54 CURVE SMOOTH"
);
}
);
width = 960;
},
{
anchors = (
{
name = top;
position = "{507, 1536}";
}
);
layerId = "A3BE8AFD-64C8-4B22-9D76-F0CE292C8BA7";
paths = (
{
closed = 1;
nodes = (
"749 43 CURVE SMOOTH",
"749 5 OFFCURVE",
"731 -28 OFFCURVE",
"688 -28 CURVE SMOOTH",
"599 -28 OFFCURVE",
"501 788 OFFCURVE",
"482 893 CURVE",
"442 606 OFFCURVE",
"404 318 OFFCURVE",
"404 28 CURVE SMOOTH",
"404 -2 OFFCURVE",
"374 -29 OFFCURVE",
"345 -29 CURVE SMOOTH",
"273 -29 OFFCURVE",
"270 76 OFFCURVE",
"270 127 CURVE SMOOTH",
"270 250 OFFCURVE",
"110 1413 OFFCURVE",
"78 1491 CURVE",
"92 1517 OFFCURVE",
"118 1540 OFFCURVE",
"149 1540 CURVE SMOOTH",
"259 1540 OFFCURVE",
"310 645 OFFCURVE",
"331 503 CURVE",
"353 694 OFFCURVE",
"409 1115 OFFCURVE",
"409 1286 CURVE SMOOTH",
"409 1325 LINE SMOOTH",
"409 1353 OFFCURVE",
"434 1388 OFFCURVE",
"463 1388 CURVE SMOOTH",
"502 1388 OFFCURVE",
"536 1374 OFFCURVE",
"536 1328 CURVE SMOOTH",
"536 1297 LINE SMOOTH",
"537 1011 OFFCURVE",
"639 740 OFFCURVE",
"685 461 CURVE",
"720 809 OFFCURVE",
"788 1155 OFFCURVE",
"788 1506 CURVE SMOOTH",
"788 1561 OFFCURVE",
"799 1592 OFFCURVE",
"862 1592 CURVE SMOOTH",
"892 1592 OFFCURVE",
"925 1569 OFFCURVE",
"925 1536 CURVE SMOOTH",
"925 1519 OFFCURVE",
"916 1501 OFFCURVE",
"904 1489 CURVE",
"904 1011 OFFCURVE",
"749 523 OFFCURVE"
);
}
);
width = 1026;
}
);
unicode = 0057;
userData = {
com.fontlab.hintData = {
hhints = (
{
position = -27;
width = 21;
}
);
vhints = (
{
position = 266;
width = 92;
},
{
position = 776;
width = 92;
},
{
position = 778;
width = 70;
}
);
};
com.typemytype.robofont.layerData = {
};
org.pippin.gimp.org.kernagic = {
lstem = 0;
rstem = 0;
};
};
},
{
glyphname = X;
lastChange = "2016-08-30 17:52:43 +0000";
layers = (
{
anchors = (
{
name = top;
position = "{356, 1536}";
}
);
layerId = "97F6A72F-75C9-4005-877B-5FF286A1C934";
paths = (
{
closed = 1;
nodes = (
"139 12 CURVE SMOOTH",
"139 39 OFFCURVE",
"167 135 OFFCURVE",
"177 170 CURVE SMOOTH",
"212 301 OFFCURVE",
"245 434 OFFCURVE",
"272 565 CURVE SMOOTH",
"288 645 OFFCURVE",
"311 739 OFFCURVE",
"311 821 CURVE SMOOTH",
"311 979 OFFCURVE",
"260 1134 OFFCURVE",
"229 1288 CURVE SMOOTH",
"215 1358 OFFCURVE",
"180 1423 OFFCURVE",
"178 1495 CURVE",
"184 1505 OFFCURVE",
"199 1522 OFFCURVE",
"211 1522 CURVE SMOOTH",
"262 1522 OFFCURVE",
"248 1467 OFFCURVE",
"254 1434 CURVE SMOOTH",
"279 1293 OFFCURVE",
"331 1067 OFFCURVE",
"354 922 CURVE",
"369 1032 OFFCURVE",
"411 1255 OFFCURVE",
"434 1380 CURVE SMOOTH",
"440 1415 OFFCURVE",
"448 1552 OFFCURVE",
"495 1552 CURVE SMOOTH",
"509 1552 OFFCURVE",
"532 1548 OFFCURVE",
"532 1530 CURVE SMOOTH",
"532 1501 OFFCURVE",
"514 1475 OFFCURVE",
"506 1448 CURVE SMOOTH",
"471 1327 OFFCURVE",
"447 1190 OFFCURVE",
"422 1061 CURVE SMOOTH",
"406 979 OFFCURVE",
"381 869 OFFCURVE",
"381 791 CURVE",
"489 238 LINE",
"511 134 LINE",
"511 126 OFFCURVE",
"520 96 OFFCURVE",
"520 70 CURVE SMOOTH",
"520 47 OFFCURVE",
"513 27 OFFCURVE",
"487 27 CURVE SMOOTH",
"469 27 OFFCURVE",
"450 28 OFFCURVE",
"450 53 CURVE SMOOTH",
"450 127 OFFCURVE",
"431 207 OFFCURVE",
"419 279 CURVE SMOOTH",
"396 396 OFFCURVE",
"375 514 OFFCURVE",
"346 629 CURVE",
"332 606 OFFCURVE",
"233 131 OFFCURVE",
"221 61 CURVE SMOOTH",
"215 24 OFFCURVE",
"215 -12 OFFCURVE",
"170 -12 CURVE SMOOTH",
"160 -12 OFFCURVE",
"139 0 OFFCURVE"
);
}
);
width = 680;
},
{
layerId = "A3BE8AFD-64C8-4B22-9D76-F0CE292C8BA7";
paths = (
{
closed = 1;
nodes = (
"389 987 CURVE",
"433 1194 OFFCURVE",
"458 1329 OFFCURVE",
"478 1415 CURVE SMOOTH",
"501 1518 OFFCURVE",
"515 1550 OFFCURVE",
"542 1550 CURVE SMOOTH",
"568 1550 OFFCURVE",
"592 1536 OFFCURVE",
"592 1505 CURVE SMOOTH",
"592 1481 OFFCURVE",
"584 1439 OFFCURVE",
"572 1386 CURVE SMOOTH",
"531 1204 OFFCURVE",
"439 899 OFFCURVE",
"439 796 CURVE SMOOTH",
"439 765 OFFCURVE",
"529 323 OFFCURVE",
"545 248 CURVE SMOOTH",
"559 182 OFFCURVE",
"579 134 OFFCURVE",
"579 80 CURVE SMOOTH",
"579 50 OFFCURVE",
"573 26 OFFCURVE",
"543 26 CURVE SMOOTH",
"512 26 OFFCURVE",
"490 40 OFFCURVE",
"483 75 CURVE SMOOTH",
"451 238 OFFCURVE",
"414 481 OFFCURVE",
"380 628 CURVE",
"321 367 OFFCURVE",
"283 195 OFFCURVE",
"256 97 CURVE SMOOTH",
"236 21 OFFCURVE",
"221 -13 OFFCURVE",
"206 -13 CURVE SMOOTH",
"183 -13 OFFCURVE",
"150 2 OFFCURVE",
"150 26 CURVE SMOOTH",
"150 28 OFFCURVE",
"150 31 OFFCURVE",
"151 33 CURVE SMOOTH",
"203 237 OFFCURVE",
"251 430 OFFCURVE",
"283 578 CURVE SMOOTH",
"308 690 OFFCURVE",
"323 775 OFFCURVE",
"323 819 CURVE SMOOTH",
"323 868 OFFCURVE",
"319 900 OFFCURVE",
"280 1078 CURVE SMOOTH",
"262 1159 OFFCURVE",
"237 1271 OFFCURVE",
"202 1428 CURVE SMOOTH",
"199 1442 OFFCURVE",
"197 1455 OFFCURVE",
"197 1465 CURVE SMOOTH",
"197 1508 OFFCURVE",
"222 1520 OFFCURVE",
"243 1520 CURVE SMOOTH",
"293 1520 OFFCURVE",
"302 1428 OFFCURVE",
"360 1134 CURVE SMOOTH",
"368 1089 OFFCURVE",
"378 1041 OFFCURVE"
);
}
);
width = 756;
}
);
unicode = 0058;
userData = {
com.fontlab.hintData = {
hhints = (
{
position = -12;
width = 21;
},
{
position = 1532;
width = 20;
}
);
vhints = (
{
position = 393;
width = 70;
}
);
};
org.pippin.gimp.org.kernagic = {
lstem = 0;
rstem = 0;
};
};
},
{
glyphname = Y;
lastChange = "2016-08-30 17:52:43 +0000";
layers = (
{
anchors = (
{
name = top;
position = "{326, 1536}";
}
);
layerId = "97F6A72F-75C9-4005-877B-5FF286A1C934";
paths = (
{
closed = 1;
nodes = (
"325 25 CURVE SMOOTH",
"325 156 OFFCURVE",
"335 289 OFFCURVE",
"335 420 CURVE SMOOTH",
"335 475 OFFCURVE",
"321 531 OFFCURVE",
"321 586 CURVE SMOOTH",
"321 652 OFFCURVE",
"296 713 OFFCURVE",
"296 776 CURVE SMOOTH",
"296 813 OFFCURVE",
"272 901 OFFCURVE",
"264 938 CURVE SMOOTH",
"233 1088 OFFCURVE",
"208 1243 OFFCURVE",
"169 1380 CURVE SMOOTH",
"157 1419 OFFCURVE",
"139 1472 OFFCURVE",
"139 1513 CURVE SMOOTH",
"139 1536 OFFCURVE",
"162 1546 OFFCURVE",
"180 1546 CURVE",
"204 1530 LINE",
"210 1438 OFFCURVE",
"294 985 OFFCURVE",
"333 930 CURVE",
"349 992 OFFCURVE",
"376 1540 OFFCURVE",
"454 1540 CURVE SMOOTH",
"472 1540 OFFCURVE",
"485 1541 OFFCURVE",
"485 1518 CURVE SMOOTH",
"485 1489 OFFCURVE",
"472 1463 OFFCURVE",
"468 1434 CURVE SMOOTH",
"435 1241 OFFCURVE",
"387 1030 OFFCURVE",
"387 829 CURVE SMOOTH",
"387 806 OFFCURVE",
"393 785 OFFCURVE",
"393 762 CURVE",
"380 731 LINE",
"380 715 LINE SMOOTH",
"380 633 OFFCURVE",
"395 551 OFFCURVE",
"395 469 CURVE SMOOTH",
"395 332 OFFCURVE",
"395 192 OFFCURVE",
"391 55 CURVE",
"397 49 LINE",
"397 45 OFFCURVE",
"399 39 OFFCURVE",
"399 35 CURVE SMOOTH",
"399 8 OFFCURVE",
"385 -25 OFFCURVE",
"354 -25 CURVE SMOOTH",
"331 -25 OFFCURVE",
"325 9 OFFCURVE"
);
}
);
width = 620;
},
{
anchors = (
{
name = top;
position = "{367, 1536}";
}
);
layerId = "A3BE8AFD-64C8-4B22-9D76-F0CE292C8BA7";
paths = (
{
closed = 1;
nodes = (
"373 1006 CURVE",
"389 1088 OFFCURVE",
"399 1539 OFFCURVE",
"497 1539 CURVE SMOOTH",
"511 1539 OFFCURVE",
"551 1539 OFFCURVE",
"551 1517 CURVE SMOOTH",
"551 1287 OFFCURVE",
"453 1062 OFFCURVE",
"453 828 CURVE SMOOTH",
"453 804 OFFCURVE",
"446 781 OFFCURVE",
"447 757 CURVE SMOOTH",
"447 726 LINE SMOOTH",
"447 545 OFFCURVE",
"458 364 OFFCURVE",
"458 183 CURVE SMOOTH",
"458 151 OFFCURVE",
"465 119 OFFCURVE",
"465 87 CURVE SMOOTH",
"465 35 LINE SMOOTH",
"465 -2 OFFCURVE",
"431 -25 OFFCURVE",
"397 -25 CURVE SMOOTH",
"370 -25 OFFCURVE",
"345 -3 OFFCURVE",
"345 25 CURVE SMOOTH",
"345 157 OFFCURVE",
"355 289 OFFCURVE",
"355 421 CURVE SMOOTH",
"355 541 OFFCURVE",
"316 656 OFFCURVE",
"316 776 CURVE SMOOTH",
"316 1025 OFFCURVE",
"158 1267 OFFCURVE",
"158 1513 CURVE SMOOTH",
"158 1534 OFFCURVE",
"189 1549 OFFCURVE",
"210 1549 CURVE SMOOTH",
"283 1549 OFFCURVE",
"348 1093 OFFCURVE"
);
}
);
width = 702;
}
);
unicode = 0059;
userData = {
com.fontlab.hintData = {
hhints = (
{
position = -25;
width = 21;
},
{
position = 1526;
width = 20;
}
);
vhints = (
{
position = 231;
width = 84;
},
{
position = 260;
width = 74;
}
);
};
org.pippin.gimp.org.kernagic = {
lstem = 0;
rstem = 0;
};
};
},
{
glyphname = Z;
lastChange = "2016-08-30 17:52:43 +0000";
layers = (
{
anchors = (
{
name = top;
position = "{326, 1536}";
}
);
layerId = "97F6A72F-75C9-4005-877B-5FF286A1C934";
paths = (
{
closed = 1;
nodes = (
"155 8 CURVE",
"253 182 OFFCURVE",
"241 408 OFFCURVE",
"280 588 CURVE",
"311 813 OFFCURVE",
"343 1043 OFFCURVE",
"374 1268 CURVE SMOOTH",
"384 1344 OFFCURVE",
"399 1423 OFFCURVE",
"401 1499 CURVE",
"356 1499 OFFCURVE",
"310 1489 OFFCURVE",
"263 1489 CURVE SMOOTH",
"236 1489 OFFCURVE",
"171 1491 OFFCURVE",
"171 1530 CURVE",
"186 1546 LINE",
"202 1542 OFFCURVE",
"219 1542 OFFCURVE",
"235 1542 CURVE SMOOTH",
"301 1542 OFFCURVE",
"361 1563 OFFCURVE",
"427 1563 CURVE SMOOTH",
"450 1563 OFFCURVE",
"460 1546 OFFCURVE",
"460 1526 CURVE",
"429 1456 OFFCURVE",
"431 1321 OFFCURVE",
"419 1239 CURVE SMOOTH",
"370 891 OFFCURVE",
"333 541 OFFCURVE",
"276 195 CURVE SMOOTH",
"268 142 OFFCURVE",
"229 94 OFFCURVE",
"229 39 CURVE",
"274 39 OFFCURVE",
"317 49 OFFCURVE",
"362 49 CURVE SMOOTH",
"389 49 OFFCURVE",
"448 47 OFFCURVE",
"448 8 CURVE",
"429 -10 LINE",
"347 -10 OFFCURVE",
"268 -18 OFFCURVE",
"186 -18 CURVE SMOOTH",
"168 -18 OFFCURVE",
"161 -8 OFFCURVE"
);
}
);
width = 620;
},
{
anchors = (
{
name = top;
position = "{397, 1536}";
}
);
layerId = "A3BE8AFD-64C8-4B22-9D76-F0CE292C8BA7";
paths = (
{
closed = 1;
nodes = (
"293 85 CURVE",
"316 86 OFFCURVE",
"359 93 OFFCURVE",
"401 93 CURVE SMOOTH",
"456 93 OFFCURVE",
"509 81 OFFCURVE",
"509 30 CURVE SMOOTH",
"509 21 LINE",
"477 -11 LINE",
"393 -11 OFFCURVE",
"308 -19 OFFCURVE",
"224 -19 CURVE SMOOTH",
"193 -19 OFFCURVE",
"176 5 OFFCURVE",
"166 31 CURVE",
"269 197 OFFCURVE",
"399 1235 OFFCURVE",
"413 1451 CURVE",
"388 1449 OFFCURVE",
"341 1441 OFFCURVE",
"296 1441 CURVE SMOOTH",
"239 1441 OFFCURVE",
"185 1453 OFFCURVE",
"185 1506 CURVE SMOOTH",
"185 1515 LINE",
"213 1549 LINE",
"213 1550 LINE",
"232 1545 OFFCURVE",
"251 1543 OFFCURVE",
"271 1543 CURVE SMOOTH",
"335 1543 OFFCURVE",
"400 1564 OFFCURVE",
"464 1564 CURVE SMOOTH",
"496 1564 OFFCURVE",
"520 1536 OFFCURVE",
"520 1505 CURVE SMOOTH",
"520 1051 OFFCURVE",
"398 494 OFFCURVE"
);
}
);
width = 702;
}
);
unicode = 005A;
userData = {
com.fontlab.hintData = {
hhints = (
{
position = -18;
width = 57;
},
{
position = 1489;
width = 53;
},
{
position = 1499;
width = 64;
}
);
vhints = (
{
position = 78;
width = 305;
}
);
};
org.pippin.gimp.org.kernagic = {
lstem = 0;
rstem = 0;
};
};
},
{
glyphname = a;
lastChange = "2016-08-30 17:52:43 +0000";
layers = (
{
anchors = (
{
name = top;
position = "{416, 1356}";
}
);
layerId = "97F6A72F-75C9-4005-877B-5FF286A1C934";
paths = (
{
closed = 1;
nodes = (
"264 376 CURVE SMOOTH",
"264 359 OFFCURVE",
"444 350 OFFCURVE",
"479 350 CURVE SMOOTH",
"500 350 LINE",
"481 625 OFFCURVE",
"437 1065 OFFCURVE",
"422 1221 CURVE",
"385 1039 OFFCURVE",
"346 856 OFFCURVE",
"311 674 CURVE SMOOTH",
"299 615 OFFCURVE",
"264 431 OFFCURVE"
);
},
{
closed = 1;
nodes = (
"262 315 CURVE SMOOTH",
"246 315 OFFCURVE",
"250 307 OFFCURVE",
"246 299 CURVE",
"242 258 LINE SMOOTH",
"238 219 OFFCURVE",
"209 -10 OFFCURVE",
"164 -10 CURVE SMOOTH",
"148 -10 OFFCURVE",
"123 7 OFFCURVE",
"123 25 CURVE SMOOTH",
"123 29 OFFCURVE",
"127 33 OFFCURVE",
"127 37 CURVE SMOOTH",
"186 270 OFFCURVE",
"221 507 OFFCURVE",
"260 743 CURVE SMOOTH",
"280 866 OFFCURVE",
"314 987 OFFCURVE",
"332 1112 CURVE SMOOTH",
"338 1157 OFFCURVE",
"353 1339 OFFCURVE",
"367 1364 CURVE",
"375 1364 OFFCURVE",
"385 1362 OFFCURVE",
"395 1362 CURVE SMOOTH",
"409 1362 OFFCURVE",
"422 1364 OFFCURVE",
"432 1374 CURVE",
"448 1374 OFFCURVE",
"469 1363 OFFCURVE",
"469 1343 CURVE SMOOTH",
"469 1212 OFFCURVE",
"484 1141 OFFCURVE",
"496 1010 CURVE SMOOTH",
"524 683 OFFCURVE",
"580 254 OFFCURVE",
"610 18 CURVE",
"610 12 LINE SMOOTH",
"610 0 OFFCURVE",
"606 -11 OFFCURVE",
"594 -18 CURVE",
"557 -18 OFFCURVE",
"549 -18 OFFCURVE",
"543 27 CURVE SMOOTH",
"533 107 OFFCURVE",
"523 207 OFFCURVE",
"509 295 CURVE",
"478 303 OFFCURVE",
"439 305 OFFCURVE",
"408 305 CURVE SMOOTH",
"354 305 OFFCURVE",
"311 315 OFFCURVE"
);
}
);
width = 740;
},
{
anchors = (
{
name = ogonek;
position = "{616, 0}";
},
{
name = top;
position = "{447, 1365}";
}
);
layerId = "A3BE8AFD-64C8-4B22-9D76-F0CE292C8BA7";
paths = (
{
closed = 1;
nodes = (
"516 302 CURVE",
"314 332 LINE",
"270 174 OFFCURVE",
"289 -11 OFFCURVE",
"199 -11 CURVE SMOOTH",
"169 -11 OFFCURVE",
"134 11 OFFCURVE",
"134 44 CURVE SMOOTH",
"134 49 OFFCURVE",
"138 57 OFFCURVE",
"139 62 CURVE SMOOTH",
"226 397 OFFCURVE",
"299 759 OFFCURVE",
"344 1100 CURVE SMOOTH",
"353 1169 OFFCURVE",
"351 1317 OFFCURVE",
"388 1373 CURVE",
"457 1373 LINE SMOOTH",
"489 1373 OFFCURVE",
"527 1359 OFFCURVE",
"527 1321 CURVE SMOOTH",
"527 1016 OFFCURVE",
"610 693 OFFCURVE",
"610 416 CURVE SMOOTH",
"610 376 OFFCURVE",
"632 330 OFFCURVE",
"632 290 CURVE SMOOTH",
"632 239 OFFCURVE",
"671 99 OFFCURVE",
"671 41 CURVE SMOOTH",
"671 39 LINE SMOOTH",
"671 15 OFFCURVE",
"660 -10 OFFCURVE",
"637 -19 CURVE",
"588 -19 OFFCURVE",
"546 -10 OFFCURVE",
"546 49 CURVE SMOOTH",
"546 136 OFFCURVE",
"516 302 OFFCURVE"
);
},
{
closed = 1;
nodes = (
"503 375 CURVE",
"498 400 OFFCURVE",
"497 425 OFFCURVE",
"497 451 CURVE SMOOTH",
"497 680 OFFCURVE",
"462 907 OFFCURVE",
"442 1134 CURVE",
"399 897 OFFCURVE",
"340 551 OFFCURVE",
"322 408 CURVE",
"357 385 OFFCURVE",
"459 378 OFFCURVE"
);
}
);
width = 810;
}
);
unicode = 0061;
userData = {
com.fontlab.hintData = {
hhints = (
{
position = -10;
width = 21;
},
{
position = 305;
width = 45;
},
{
position = 1354;
width = 20;
}
);
vhints = (
{
position = 502;
width = 67;
}
);
};
org.pippin.gimp.org.kernagic = {
lstem = 0;
rstem = 0;
};
};
},
{
glyphname = ae;
lastChange = "2016-08-30 17:52:43 +0000";
layers = (
{
layerId = "97F6A72F-75C9-4005-877B-5FF286A1C934";
paths = (
{
closed = 1;
nodes = (
"517 1237 CURVE",
"492 1210 OFFCURVE",
"318 692 OFFCURVE",
"312 643 CURVE",
"371 643 OFFCURVE",
"462 656 OFFCURVE",
"517 668 CURVE",
"517 948 LINE SMOOTH",
"517 993 OFFCURVE",
"519 1040 OFFCURVE",
"519 1085 CURVE SMOOTH",
"519 1163 LINE SMOOTH",
"519 1188 OFFCURVE",
"519 1212 OFFCURVE"
);
},
{
closed = 1;
nodes = (
"512 14 LINE",
"524 82 OFFCURVE",
"529 159 OFFCURVE",
"529 229 CURVE SMOOTH",
"529 354 OFFCURVE",
"519 477 OFFCURVE",
"519 600 CURVE",
"508 614 LINE",
"477 608 OFFCURVE",
"303 605 OFFCURVE",
"297 580 CURVE SMOOTH",
"195 209 LINE SMOOTH",
"185 174 OFFCURVE",
"160 2 OFFCURVE",
"123 2 CURVE SMOOTH",
"113 2 OFFCURVE",
"107 19 OFFCURVE",
"107 27 CURVE SMOOTH",
"109 121 OFFCURVE",
"164 336 OFFCURVE",
"189 432 CURVE",
"271 694 OFFCURVE",
"359 940 OFFCURVE",
"457 1196 CURVE",
"461 1208 LINE SMOOTH",
"461 1210 OFFCURVE",
"463 1215 OFFCURVE",
"463 1217 CURVE SMOOTH",
"477 1266 OFFCURVE",
"502 1348 OFFCURVE",
"551 1348 CURVE SMOOTH",
"602 1348 OFFCURVE",
"656 1350 OFFCURVE",
"709 1350 CURVE SMOOTH",
"729 1350 OFFCURVE",
"773 1346 OFFCURVE",
"773 1317 CURVE",
"760 1292 LINE",
"658 1292 LINE SMOOTH",
"623 1292 OFFCURVE",
"591 1292 OFFCURVE",
"558 1288 CURVE",
"558 1188 OFFCURVE",
"564 1077 OFFCURVE",
"564 975 CURVE SMOOTH",
"564 873 OFFCURVE",
"566 784 OFFCURVE",
"566 682 CURVE",
"576 670 LINE",
"631 690 OFFCURVE",
"683 690 OFFCURVE",
"738 690 CURVE",
"766 655 LINE",
"766 624 OFFCURVE",
"689 621 OFFCURVE",
"621 621 CURVE SMOOTH",
"566 621 LINE",
"566 465 OFFCURVE",
"574 312 OFFCURVE",
"574 154 CURVE SMOOTH",
"574 125 OFFCURVE",
"572 99 OFFCURVE",
"572 70 CURVE SMOOTH",
"572 60 OFFCURVE",
"572 35 OFFCURVE",
"590 35 CURVE SMOOTH",
"668 35 OFFCURVE",
"744 57 OFFCURVE",
"822 57 CURVE SMOOTH",
"836 57 OFFCURVE",
"867 51 OFFCURVE",
"867 31 CURVE SMOOTH",
"867 -18 OFFCURVE",
"623 2 OFFCURVE",
"588 -14 CURVE",
"582 -12 OFFCURVE",
"576 -12 OFFCURVE",
"572 -12 CURVE SMOOTH",
"562 -12 OFFCURVE",
"555 -14 OFFCURVE",
"541 -14 CURVE"
);
}
);
width = 940;
},
{
layerId = "A3BE8AFD-64C8-4B22-9D76-F0CE292C8BA7";
paths = (
{
closed = 1;
nodes = (
"522 2 LINE",
"524 3 LINE",
"532 86 OFFCURVE",
"541 169 OFFCURVE",
"541 253 CURVE SMOOTH",
"541 380 OFFCURVE",
"531 506 OFFCURVE",
"531 633 CURVE",
"472 628 OFFCURVE",
"411 630 OFFCURVE",
"354 611 CURVE",
"253 226 LINE SMOOTH",
"240 178 OFFCURVE",
"225 1 OFFCURVE",
"158 1 CURVE SMOOTH",
"135 1 OFFCURVE",
"118 27 OFFCURVE",
"118 48 CURVE SMOOTH",
"118 288 OFFCURVE",
"384 1103 OFFCURVE",
"470 1380 CURVE SMOOTH",
"487 1437 OFFCURVE",
"509 1544 OFFCURVE",
"586 1544 CURVE SMOOTH",
"639 1544 OFFCURVE",
"691 1554 OFFCURVE",
"744 1554 CURVE SMOOTH",
"781 1554 OFFCURVE",
"831 1546 OFFCURVE",
"831 1498 CURVE SMOOTH",
"831 1492 LINE",
"810 1450 LINE",
"745 1450 OFFCURVE",
"680 1447 OFFCURVE",
"616 1440 CURVE",
"618 1349 OFFCURVE",
"630 1258 OFFCURVE",
"630 1166 CURVE SMOOTH",
"630 1016 OFFCURVE",
"624 866 OFFCURVE",
"624 716 CURVE",
"674 720 OFFCURVE",
"722 735 OFFCURVE",
"772 735 CURVE SMOOTH",
"782 735 LINE",
"824 687 LINE",
"824 629 OFFCURVE",
"757 621 OFFCURVE",
"711 621 CURVE SMOOTH",
"702 621 LINE",
"623 622 LINE",
"624 442 OFFCURVE",
"629 262 OFFCURVE",
"629 82 CURVE",
"705 83 OFFCURVE",
"780 103 OFFCURVE",
"856 103 CURVE SMOOTH",
"885 103 OFFCURVE",
"924 87 OFFCURVE",
"924 53 CURVE SMOOTH",
"924 -8 OFFCURVE",
"760 -12 OFFCURVE",
"680 -12 CURVE SMOOTH",
"648 -12 LINE SMOOTH",
"618 -12 OFFCURVE",
"596 -38 OFFCURVE",
"567 -43 CURVE"
);
},
{
closed = 1;
nodes = (
"527 706 CURVE",
"529 855 OFFCURVE",
"535 1004 OFFCURVE",
"535 1153 CURVE SMOOTH",
"535 1196 OFFCURVE",
"535 1240 OFFCURVE",
"533 1283 CURVE",
"474 1087 OFFCURVE",
"416 889 OFFCURVE",
"374 688 CURVE",
"425 691 OFFCURVE",
"477 695 OFFCURVE"
);
}
);
width = 918;
}
);
unicode = 00E6;
userData = {
com.fontlab.hintData = {
hhints = (
{
position = -12;
width = 69;
},
{
position = -12;
width = 47;
},
{
position = 621;
width = 69;
},
{
position = 1292;
width = 58;
}
);
vhints = (
{
position = 496;
width = 39;
}
);
};
org.pippin.gimp.org.kernagic = {
lstem = 0;
rstem = 0;
};
};
},
{
glyphname = b;
lastChange = "2016-08-30 17:52:43 +0000";
layers = (
{
anchors = (
{
name = top;
position = "{322, 1356}";
}
);
layerId = "97F6A72F-75C9-4005-877B-5FF286A1C934";
paths = (
{
closed = 1;
nodes = (
"251 766 LINE",
"253 758 OFFCURVE",
"257 747 OFFCURVE",
"259 739 CURVE",
"274 739 LINE SMOOTH",
"393 739 OFFCURVE",
"409 903 OFFCURVE",
"409 1012 CURVE SMOOTH",
"409 1061 OFFCURVE",
"405 1096 OFFCURVE",
"403 1139 CURVE",
"399 1143 LINE",
"395 1202 OFFCURVE",
"376 1313 OFFCURVE",
"296 1313 CURVE SMOOTH",
"257 1313 OFFCURVE",
"251 1144 OFFCURVE",
"251 1044 CURVE SMOOTH",
"251 970 OFFCURVE",
"253 967 OFFCURVE",
"253 934 CURVE SMOOTH",
"253 887 OFFCURVE",
"251 840 OFFCURVE",
"251 791 CURVE SMOOTH"
);
},
{
closed = 1;
nodes = (
"253 248 CURVE",
"243 230 OFFCURVE",
"241 191 OFFCURVE",
"241 150 CURVE SMOOTH",
"241 113 OFFCURVE",
"243 77 OFFCURVE",
"243 57 CURVE",
"349 57 OFFCURVE",
"427 181 OFFCURVE",
"427 279 CURVE SMOOTH",
"427 281 OFFCURVE",
"428 299 OFFCURVE",
"428 325 CURVE SMOOTH",
"428 428 OFFCURVE",
"412 668 OFFCURVE",
"257 668 CURVE",
"251 576 OFFCURVE",
"247 483 OFFCURVE",
"247 389 CURVE SMOOTH",
"247 342 LINE SMOOTH",
"247 310 OFFCURVE",
"248 277 OFFCURVE"
);
},
{
closed = 1;
nodes = (
"173 20 CURVE SMOOTH",
"171 40 OFFCURVE",
"171 61 OFFCURVE",
"171 84 CURVE SMOOTH",
"171 227 OFFCURVE",
"192 373 OFFCURVE",
"192 516 CURVE SMOOTH",
"192 577 OFFCURVE",
"188 639 OFFCURVE",
"188 698 CURVE SMOOTH",
"188 862 OFFCURVE",
"200 1024 OFFCURVE",
"200 1188 CURVE SMOOTH",
"200 1227 OFFCURVE",
"200 1266 OFFCURVE",
"198 1307 CURVE",
"190 1317 LINE",
"190 1329 LINE SMOOTH",
"190 1358 OFFCURVE",
"196 1382 OFFCURVE",
"233 1382 CURVE SMOOTH",
"260 1382 OFFCURVE",
"415 1344 OFFCURVE",
"417 1315 CURVE",
"417 1315 OFFCURVE",
"415 1311 OFFCURVE",
"415 1309 CURVE SMOOTH",
"468 1225 OFFCURVE",
"479 1149 OFFCURVE",
"479 1038 CURVE SMOOTH",
"479 954 OFFCURVE",
"473 869 OFFCURVE",
"446 795 CURVE",
"448 795 LINE",
"434 762 OFFCURVE",
"406 729 OFFCURVE",
"388 698 CURVE",
"474 630 OFFCURVE",
"485 495 OFFCURVE",
"489 399 CURVE SMOOTH",
"491 346 LINE",
"491 317 LINE SMOOTH",
"491 145 OFFCURVE",
"405 -23 OFFCURVE",
"212 -23 CURVE SMOOTH",
"187 -23 OFFCURVE",
"173 -3 OFFCURVE"
);
}
);
width = 660;
},
{
anchors = (
{
name = top;
position = "{367, 1365}";
}
);
layerId = "A3BE8AFD-64C8-4B22-9D76-F0CE292C8BA7";
paths = (
{
closed = 1;
nodes = (
"453 705 CURVE",
"542 620 OFFCURVE",
"548 475 OFFCURVE",
"548 360 CURVE SMOOTH",
"548 167 OFFCURVE",
"466 -20 OFFCURVE",
"246 -20 CURVE SMOOTH",
"184 -20 OFFCURVE",
"182 42 OFFCURVE",
"182 88 CURVE SMOOTH",
"182 234 OFFCURVE",
"202 378 OFFCURVE",
"202 524 CURVE SMOOTH",
"202 740 OFFCURVE",
"211 957 OFFCURVE",
"211 1173 CURVE SMOOTH",
"211 1208 OFFCURVE",
"202 1244 OFFCURVE",
"200 1279 CURVE SMOOTH",
"200 1290 LINE SMOOTH",
"200 1338 OFFCURVE",
"209 1383 OFFCURVE",
"267 1383 CURVE SMOOTH",
"462 1383 OFFCURVE",
"536 1212 OFFCURVE",
"536 1028 CURVE SMOOTH",
"536 883 OFFCURVE",
"514 791 OFFCURVE"
);
},
{
closed = 1;
nodes = (
"305 333 CURVE SMOOTH",
"305 278 OFFCURVE",
"298 231 OFFCURVE",
"298 186 CURVE SMOOTH",
"298 183 OFFCURVE",
"300 179 OFFCURVE",
"300 176 CURVE SMOOTH",
"300 84 LINE",
"399 107 OFFCURVE",
"438 217 OFFCURVE",
"438 308 CURVE SMOOTH",
"438 400 OFFCURVE",
"429 619 OFFCURVE",
"314 643 CURVE",
"307 540 OFFCURVE",
"305 436 OFFCURVE"
);
},
{
closed = 1;
nodes = (
"311 1068 CURVE SMOOTH",
"311 763 LINE",
"413 766 OFFCURVE",
"419 939 OFFCURVE",
"419 1012 CURVE SMOOTH",
"419 1076 OFFCURVE",
"420 1278 OFFCURVE",
"335 1288 CURVE",
"316 1247 OFFCURVE",
"311 1128 OFFCURVE"
);
}
);
width = 702;
}
);
unicode = 0062;
userData = {
com.fontlab.hintData = {
hhints = (
{
position = -23;
width = 80;
},
{
position = 668;
width = 71;
},
{
position = 1313;
width = 69;
}
);
vhints = (
{
position = 102;
width = 70;
},
{
position = 131;
width = 51;
},
{
position = 340;
width = 70;
},
{
position = 359;
width = 63;
}
);
};
org.pippin.gimp.org.kernagic = {
lstem = 0;
rstem = 0;
};
};
},
{
glyphname = c;
lastChange = "2016-08-30 17:52:43 +0000";
layers = (
{
anchors = (
{
name = top;
position = "{436, 1356}";
}
);
layerId = "97F6A72F-75C9-4005-877B-5FF286A1C934";
paths = (
{
closed = 1;
nodes = (
"394 -33 LINE",
"359 -15 OFFCURVE",
"325 -15 OFFCURVE",
"292 10 CURVE SMOOTH",
"179 92 OFFCURVE",
"171 294 OFFCURVE",
"171 446 CURVE SMOOTH",
"171 680 LINE SMOOTH",
"171 832 OFFCURVE",
"171 1211 OFFCURVE",
"300 1313 CURVE SMOOTH",
"333 1338 OFFCURVE",
"372 1344 OFFCURVE",
"407 1364 CURVE",
"489 1364 LINE",
"507 1360 OFFCURVE",
"528 1358 OFFCURVE",
"528 1333 CURVE",
"501 1303 LINE",
"415 1303 LINE SMOOTH",
"268 1303 OFFCURVE",
"253 940 OFFCURVE",
"253 838 CURVE",
"249 827 LINE",
"249 690 OFFCURVE",
"241 551 OFFCURVE",
"241 414 CURVE SMOOTH",
"241 260 OFFCURVE",
"255 35 OFFCURVE",
"458 35 CURVE SMOOTH",
"476 35 OFFCURVE",
"495 41 OFFCURVE",
"509 53 CURVE",
"523 53 OFFCURVE",
"540 47 OFFCURVE",
"540 31 CURVE SMOOTH",
"540 6 OFFCURVE",
"482 -25 OFFCURVE",
"462 -33 CURVE"
);
}
);
width = 720;
},
{
anchors = (
{
name = bot;
position = "{440, 0}";
},
{
name = top;
position = "{467, 1365}";
}
);
layerId = "A3BE8AFD-64C8-4B22-9D76-F0CE292C8BA7";
paths = (
{
closed = 1;
nodes = (
"524 1364 CURVE SMOOTH",
"569 1364 OFFCURVE",
"587 1338 OFFCURVE",
"587 1312 CURVE SMOOTH",
"587 1286 OFFCURVE",
"569 1260 OFFCURVE",
"543 1258 CURVE SMOOTH",
"447 1258 LINE SMOOTH",
"327 1258 OFFCURVE",
"305 913 OFFCURVE",
"305 827 CURVE SMOOTH",
"305 817 LINE SMOOTH",
"305 685 OFFCURVE",
"296 554 OFFCURVE",
"296 422 CURVE SMOOTH",
"296 286 OFFCURVE",
"308 79 OFFCURVE",
"490 79 CURVE SMOOTH",
"506 79 OFFCURVE",
"522 86 OFFCURVE",
"534 97 CURVE",
"562 97 OFFCURVE",
"596 85 OFFCURVE",
"596 52 CURVE SMOOTH",
"596 -9 OFFCURVE",
"544 -29 OFFCURVE",
"483 -29 CURVE SMOOTH",
"418 -29 OFFCURVE",
"342 -6 OFFCURVE",
"311 14 CURVE SMOOTH",
"183 97 OFFCURVE",
"175 359 OFFCURVE",
"175 495 CURVE SMOOTH",
"175 527 OFFCURVE",
"174 569 OFFCURVE",
"174 615 CURVE SMOOTH",
"174 664 LINE SMOOTH",
"174 1005 OFFCURVE",
"182 1364 OFFCURVE"
);
}
);
width = 774;
}
);
unicode = 0063;
userData = {
com.fontlab.hintData = {
hhints = (
{
position = -33;
width = 68;
},
{
position = 1303;
width = 61;
}
);
vhints = (
{
position = 96;
width = 70;
}
);
};
org.pippin.gimp.org.kernagic = {
lstem = 0;
rstem = 0;
};
};
},
{
glyphname = d;
lastChange = "2016-08-30 17:52:43 +0000";
layers = (
{
anchors = (
{
name = top;
position = "{366, 1356}";
}
);
layerId = "97F6A72F-75C9-4005-877B-5FF286A1C934";
paths = (
{
closed = 1;
nodes = (
"276 76 LINE",
"282 49 LINE",
"345 49 LINE",
"363 72 OFFCURVE",
"378 80 OFFCURVE",
"401 100 CURVE SMOOTH",
"518 206 OFFCURVE",
"546 420 OFFCURVE",
"546 592 CURVE SMOOTH",
"546 619 OFFCURVE",
"544 643 OFFCURVE",
"544 666 CURVE",
"534 872 LINE SMOOTH",
"528 1009 OFFCURVE",
"438 1262 OFFCURVE",
"270 1262 CURVE SMOOTH",
"254 1262 OFFCURVE",
"247 1094 OFFCURVE",
"247 883 CURVE SMOOTH",
"247 602 OFFCURVE",
"260 260 OFFCURVE",
"270 119 CURVE",
"268 80 LINE"
);
},
{
closed = 1;
nodes = (
"192 45 CURVE SMOOTH",
"186 164 OFFCURVE",
"184 282 OFFCURVE",
"184 401 CURVE SMOOTH",
"184 563 OFFCURVE",
"188 723 OFFCURVE",
"188 885 CURVE SMOOTH",
"188 1012 OFFCURVE",
"186 1141 OFFCURVE",
"180 1270 CURVE",
"168 1280 OFFCURVE",
"163 1295 OFFCURVE",
"163 1311 CURVE SMOOTH",
"163 1331 OFFCURVE",
"192 1356 OFFCURVE",
"212 1356 CURVE SMOOTH",
"235 1356 OFFCURVE",
"246 1331 OFFCURVE",
"264 1321 CURVE SMOOTH",
"291 1307 OFFCURVE",
"331 1310 OFFCURVE",
"360 1296 CURVE SMOOTH",
"415 1269 OFFCURVE",
"460 1208 OFFCURVE",
"511 1171 CURVE",
"509 1167 LINE",
"513 1142 OFFCURVE",
"561 1094 OFFCURVE",
"575 1057 CURVE SMOOTH",
"604 979 OFFCURVE",
"608 883 OFFCURVE",
"608 813 CURVE SMOOTH",
"608 780 OFFCURVE",
"606 750 OFFCURVE",
"606 717 CURVE SMOOTH",
"606 706 OFFCURVE",
"605 693 OFFCURVE",
"605 680 CURVE SMOOTH",
"605 658 OFFCURVE",
"607 635 OFFCURVE",
"616 618 CURVE",
"567 356 OFFCURVE",
"624 140 OFFCURVE",
"352 -10 CURVE",
"210 -10 LINE SMOOTH",
"194 -10 OFFCURVE",
"192 35 OFFCURVE"
);
}
);
width = 800;
},
{
anchors = (
{
name = top;
position = "{427, 1365}";
}
);
layerId = "A3BE8AFD-64C8-4B22-9D76-F0CE292C8BA7";
paths = (
{
closed = 1;
nodes = (
"327 141 CURVE SMOOTH",
"327 92 LINE",
"531 92 OFFCURVE",
"549 480 OFFCURVE",
"549 612 CURVE SMOOTH",
"549 784 OFFCURVE",
"543 1231 OFFCURVE",
"311 1258 CURVE",
"298 1188 OFFCURVE",
"296 1116 OFFCURVE",
"296 1045 CURVE SMOOTH",
"296 743 OFFCURVE",
"327 443 OFFCURVE"
);
},
{
closed = 1;
nodes = (
"166 1286 CURVE SMOOTH",
"166 1322 OFFCURVE",
"204 1353 OFFCURVE",
"238 1353 CURVE SMOOTH",
"488 1353 OFFCURVE",
"657 1054 OFFCURVE",
"657 808 CURVE SMOOTH",
"657 778 OFFCURVE",
"653 741 OFFCURVE",
"653 705 CURVE SMOOTH",
"653 592 LINE SMOOTH",
"653 340 OFFCURVE",
"637 119 OFFCURVE",
"384 -12 CURVE",
"236 -12 LINE SMOOTH",
"186 -12 OFFCURVE",
"184 190 OFFCURVE",
"184 256 CURVE SMOOTH",
"184 471 OFFCURVE",
"190 686 OFFCURVE",
"190 901 CURVE SMOOTH",
"190 1027 OFFCURVE",
"166 1184 OFFCURVE"
);
}
);
width = 846;
}
);
unicode = 0064;
userData = {
com.fontlab.hintData = {
hhints = (
{
position = -10;
width = 59;
},
{
position = 1336;
width = 20;
}
);
vhints = (
{
position = 115;
width = 63;
},
{
position = 123;
width = 78;
},
{
position = 475;
width = 61;
}
);
};
org.pippin.gimp.org.kernagic = {
lstem = 0;
rstem = 0;
};
};
},
{
glyphname = eth;
lastChange = "2016-08-30 17:52:43 +0000";
layers = (
{
layerId = "97F6A72F-75C9-4005-877B-5FF286A1C934";
paths = (
{
closed = 1;
nodes = (
"437 727 CURVE SMOOTH",
"437 844 LINE",
"437 844 OFFCURVE",
"416 860 OFFCURVE",
"375 868 CURVE",
"236 868 OFFCURVE",
"228 291 OFFCURVE",
"228 174 CURVE SMOOTH",
"228 123 OFFCURVE",
"230 12 OFFCURVE",
"304 12 CURVE SMOOTH",
"400 12 OFFCURVE",
"396 100 OFFCURVE",
"404 166 CURVE SMOOTH",
"427 352 OFFCURVE",
"437 539 OFFCURVE"
);
},
{
closed = 1;
nodes = (
"543 1313 CURVE SMOOTH",
"543 1311 OFFCURVE",
"504 1302 OFFCURVE",
"455 1296 CURVE",
"488 1116 OFFCURVE",
"490 899 OFFCURVE",
"490 815 CURVE SMOOTH",
"490 807 LINE SMOOTH",
"490 660 OFFCURVE",
"486 514 OFFCURVE",
"480 369 CURVE",
"464 258 OFFCURVE",
"488 -29 OFFCURVE",
"320 -29 CURVE SMOOTH",
"195 -29 OFFCURVE",
"179 70 OFFCURVE",
"179 170 CURVE SMOOTH",
"179 334 OFFCURVE",
"181 913 OFFCURVE",
"392 913 CURVE SMOOTH",
"406 913 OFFCURVE",
"425 905 OFFCURVE",
"437 897 CURVE",
"435 960 OFFCURVE",
"427 1141 OFFCURVE",
"404 1288 CURVE",
"347 1282 OFFCURVE",
"290 1276 OFFCURVE",
"257 1276 CURVE SMOOTH",
"251 1276 OFFCURVE",
"246 1280 OFFCURVE",
"246 1284 CURVE SMOOTH",
"246 1290 OFFCURVE",
"246 1313 OFFCURVE",
"269 1313 CURVE SMOOTH",
"314 1313 OFFCURVE",
"357 1317 OFFCURVE",
"400 1323 CURVE",
"386 1407 OFFCURVE",
"366 1474 OFFCURVE",
"339 1497 CURVE SMOOTH",
"321 1513 OFFCURVE",
"269 1521 OFFCURVE",
"269 1550 CURVE SMOOTH",
"269 1560 OFFCURVE",
"285 1569 OFFCURVE",
"293 1569 CURVE SMOOTH",
"375 1569 OFFCURVE",
"422 1462 OFFCURVE",
"451 1329 CURVE",
"478 1331 OFFCURVE",
"504 1333 OFFCURVE",
"533 1333 CURVE SMOOTH",
"543 1333 OFFCURVE",
"545 1329 OFFCURVE",
"545 1323 CURVE SMOOTH",
"545 1319 OFFCURVE",
"543 1313 OFFCURVE"
);
}
);
width = 680;
},
{
layerId = "A3BE8AFD-64C8-4B22-9D76-F0CE292C8BA7";
paths = (
{
closed = 1;
nodes = (
"590 1326 CURVE SMOOTH",
"590 1289 OFFCURVE",
"511 1272 OFFCURVE",
"485 1267 CURVE",
"529 1062 OFFCURVE",
"537 850 OFFCURVE",
"537 641 CURVE SMOOTH",
"537 522 OFFCURVE",
"528 402 OFFCURVE",
"528 283 CURVE SMOOTH",
"528 159 OFFCURVE",
"521 -15 OFFCURVE",
"356 -15 CURVE SMOOTH",
"195 -15 OFFCURVE",
"185 173 OFFCURVE",
"185 305 CURVE",
"185 305 OFFCURVE",
"182 340 OFFCURVE",
"182 400 CURVE SMOOTH",
"182 581 OFFCURVE",
"206 956 OFFCURVE",
"396 956 CURVE SMOOTH",
"404 956 OFFCURVE",
"413 955 OFFCURVE",
"422 954 CURVE",
"409 1053 OFFCURVE",
"395 1153 OFFCURVE",
"374 1251 CURVE",
"318 1245 OFFCURVE",
"261 1242 OFFCURVE",
"205 1242 CURVE SMOOTH",
"192 1242 OFFCURVE",
"188 1265 OFFCURVE",
"188 1272 CURVE SMOOTH",
"188 1319 OFFCURVE",
"322 1336 OFFCURVE",
"354 1340 CURVE",
"345 1374 OFFCURVE",
"326 1450 OFFCURVE",
"298 1473 CURVE",
"265 1478 OFFCURVE",
"216 1499 OFFCURVE",
"216 1539 CURVE SMOOTH",
"216 1565 OFFCURVE",
"246 1582 OFFCURVE",
"269 1582 CURVE SMOOTH",
"382 1582 OFFCURVE",
"437 1441 OFFCURVE",
"463 1351 CURVE",
"500 1353 OFFCURVE",
"536 1355 OFFCURVE",
"573 1355 CURVE SMOOTH",
"586 1355 OFFCURVE",
"590 1333 OFFCURVE"
);
},
{
closed = 1;
nodes = (
"351 72 CURVE SMOOTH",
"426 72 OFFCURVE",
"417 160 OFFCURVE",
"421 211 CURVE SMOOTH",
"433 370 OFFCURVE",
"442 518 OFFCURVE",
"442 681 CURVE SMOOTH",
"442 761 OFFCURVE",
"435 853 OFFCURVE",
"383 885 CURVE",
"284 859 OFFCURVE",
"284 472 OFFCURVE",
"284 390 CURVE SMOOTH",
"284 378 OFFCURVE",
"283 354 OFFCURVE",
"283 325 CURVE SMOOTH",
"283 228 OFFCURVE",
"290 72 OFFCURVE"
);
}
);
width = 756;
}
);
unicode = 00F0;
userData = {
com.fontlab.hintData = {
hhints = (
{
position = -29;
width = 41;
},
{
position = 868;
width = 45;
},
{
position = 1276;
width = 37;
},
{
position = 1296;
width = 37;
},
{
position = 1549;
width = 20;
}
);
vhints = (
{
position = 119;
width = 49;
},
{
position = 340;
width = 51;
},
{
position = 377;
width = 53;
}
);
};
org.pippin.gimp.org.kernagic = {
lstem = 0;
rstem = 0;
};
};
},
{
glyphname = dcroat;
lastChange = "2016-08-30 17:52:43 +0000";
layers = (
{
components = (
{
name = d;
transform = "{1, 0, 0, 1, 28, 0}";
}
);
layerId = "97F6A72F-75C9-4005-877B-5FF286A1C934";
paths = (
{
closed = 1;
nodes = (
"402 652 CURVE SMOOTH",
"402 644 OFFCURVE",
"242 638 OFFCURVE",
"185 638 CURVE SMOOTH",
"167 638 OFFCURVE",
"142 649 OFFCURVE",
"142 672 CURVE SMOOTH",
"142 680 OFFCURVE",
"305 687 OFFCURVE",
"357 687 CURVE SMOOTH",
"375 687 OFFCURVE",
"402 672 OFFCURVE"
);
}
);
width = 780;
},
{
layerId = "A3BE8AFD-64C8-4B22-9D76-F0CE292C8BA7";
paths = (
{
closed = 1;
nodes = (
"346 755 CURVE",
"415 754 OFFCURVE",
"486 743 OFFCURVE",
"486 701 CURVE SMOOTH",
"486 680 OFFCURVE",
"450 676 OFFCURVE",
"420 676 CURVE SMOOTH",
"410 676 OFFCURVE",
"382 673 OFFCURVE",
"349 672 CURVE",
"358 495 OFFCURVE",
"369 318 OFFCURVE",
"369 141 CURVE SMOOTH",
"369 92 LINE",
"573 92 OFFCURVE",
"591 480 OFFCURVE",
"591 612 CURVE SMOOTH",
"591 784 OFFCURVE",
"585 1231 OFFCURVE",
"353 1258 CURVE",
"340 1188 OFFCURVE",
"338 1116 OFFCURVE",
"338 1045 CURVE SMOOTH",
"338 948 OFFCURVE",
"342 852 OFFCURVE"
);
},
{
closed = 1;
nodes = (
"232 901 CURVE SMOOTH",
"232 1027 OFFCURVE",
"208 1184 OFFCURVE",
"208 1286 CURVE SMOOTH",
"208 1322 OFFCURVE",
"246 1353 OFFCURVE",
"280 1353 CURVE SMOOTH",
"530 1353 OFFCURVE",
"699 1054 OFFCURVE",
"699 808 CURVE SMOOTH",
"699 778 OFFCURVE",
"695 741 OFFCURVE",
"695 705 CURVE SMOOTH",
"695 592 LINE SMOOTH",
"695 340 OFFCURVE",
"679 119 OFFCURVE",
"426 -12 CURVE",
"278 -12 LINE SMOOTH",
"228 -12 OFFCURVE",
"226 190 OFFCURVE",
"226 256 CURVE SMOOTH",
"226 257 OFFCURVE",
"228 534 OFFCURVE",
"230 673 CURVE",
"156 676 OFFCURVE",
"94 685 OFFCURVE",
"94 707 CURVE SMOOTH",
"94 748 OFFCURVE",
"155 751 OFFCURVE",
"184 751 CURVE SMOOTH",
"227 751 OFFCURVE",
"236 782 OFFCURVE",
"236 820 CURVE SMOOTH",
"236 846 OFFCURVE",
"232 875 OFFCURVE"
);
}
);
width = 882;
}
);
unicode = 0111;
userData = {
com.fontlab.hintData = {
hhints = (
{
position = -10;
width = 59;
},
{
position = 638;
width = 49;
},
{
position = 1336;
width = 20;
}
);
vhints = (
{
position = 115;
width = 63;
},
{
position = 123;
width = 78;
},
{
position = 475;
width = 61;
}
);
};
org.pippin.gimp.org.kernagic = {
lstem = 0;
rstem = 0;
};
};
},
{
glyphname = e;
lastChange = "2016-08-30 17:52:43 +0000";
layers = (
{
anchors = (
{
name = top;
position = "{356, 1356}";
}
);
layerId = "97F6A72F-75C9-4005-877B-5FF286A1C934";
paths = (
{
closed = 1;
nodes = (
"186 68 CURVE",
"179 76 LINE",
"189 103 OFFCURVE",
"194 129 OFFCURVE",
"194 160 CURVE SMOOTH",
"194 250 OFFCURVE",
"184 340 OFFCURVE",
"184 430 CURVE SMOOTH",
"184 635 OFFCURVE",
"198 840 OFFCURVE",
"198 1047 CURVE SMOOTH",
"198 1129 OFFCURVE",
"190 1210 OFFCURVE",
"190 1292 CURVE SMOOTH",
"190 1329 OFFCURVE",
"204 1350 OFFCURVE",
"249 1350 CURVE SMOOTH",
"261 1350 OFFCURVE",
"274 1347 OFFCURVE",
"282 1337 CURVE",
"317 1327 OFFCURVE",
"466 1325 OFFCURVE",
"470 1278 CURVE SMOOTH",
"470 1264 OFFCURVE",
"441 1245 OFFCURVE",
"431 1239 CURVE",
"382 1255 OFFCURVE",
"314 1276 OFFCURVE",
"265 1278 CURVE",
"255 1266 LINE",
"257 1237 OFFCURVE",
"257 1207 OFFCURVE",
"257 1178 CURVE SMOOTH",
"257 1072 OFFCURVE",
"249 966 OFFCURVE",
"249 860 CURVE SMOOTH",
"249 831 OFFCURVE",
"253 803 OFFCURVE",
"278 803 CURVE SMOOTH",
"301 803 OFFCURVE",
"322 807 OFFCURVE",
"347 807 CURVE SMOOTH",
"370 807 OFFCURVE",
"425 805 OFFCURVE",
"427 770 CURVE SMOOTH",
"427 745 OFFCURVE",
"415 717 OFFCURVE",
"386 717 CURVE SMOOTH",
"372 717 OFFCURVE",
"347 723 OFFCURVE",
"339 733 CURVE",
"272 743 LINE",
"263 743 LINE",
"253 733 LINE",
"253 727 LINE",
"257 674 OFFCURVE",
"257 618 OFFCURVE",
"257 565 CURVE SMOOTH",
"257 469 OFFCURVE",
"253 370 OFFCURVE",
"253 274 CURVE SMOOTH",
"253 219 OFFCURVE",
"255 166 OFFCURVE",
"259 111 CURVE SMOOTH",
"263 45 OFFCURVE",
"286 33 OFFCURVE",
"347 33 CURVE SMOOTH",
"372 33 OFFCURVE",
"396 37 OFFCURVE",
"423 37 CURVE SMOOTH",
"441 37 OFFCURVE",
"483 37 OFFCURVE",
"483 10 CURVE SMOOTH",
"483 -27 OFFCURVE",
"421 -27 OFFCURVE",
"394 -27 CURVE SMOOTH",
"225 -27 LINE SMOOTH",
"196 -27 OFFCURVE",
"186 -9 OFFCURVE",
"184 16 CURVE SMOOTH",
"184 32 OFFCURVE",
"186 52 OFFCURVE"
);
}
);
width = 640;
},
{
anchors = (
{
name = bot;
position = "{347, 0}";
},
{
name = ogonek;
position = "{426, 0}";
},
{
name = top;
position = "{387, 1365}";
}
);
layerId = "A3BE8AFD-64C8-4B22-9D76-F0CE292C8BA7";
paths = (
{
closed = 1;
nodes = (
"524 1261 CURVE SMOOTH",
"524 1229 OFFCURVE",
"491 1207 OFFCURVE",
"464 1197 CURVE",
"414 1214 OFFCURVE",
"362 1230 OFFCURVE",
"309 1236 CURVE",
"311 1207 OFFCURVE",
"312 1177 OFFCURVE",
"312 1148 CURVE SMOOTH",
"312 1050 OFFCURVE",
"303 952 OFFCURVE",
"303 854 CURVE SMOOTH",
"303 844 OFFCURVE",
"307 832 OFFCURVE",
"309 822 CURVE",
"326 822 OFFCURVE",
"354 825 OFFCURVE",
"382 825 CURVE SMOOTH",
"431 825 OFFCURVE",
"481 816 OFFCURVE",
"481 769 CURVE SMOOTH",
"481 742 OFFCURVE",
"457 714 OFFCURVE",
"416 714 CURVE SMOOTH",
"396 714 OFFCURVE",
"374 716 OFFCURVE",
"358 718 CURVE SMOOTH",
"306 718 LINE",
"310 666 OFFCURVE",
"312 615 OFFCURVE",
"312 563 CURVE SMOOTH",
"312 440 OFFCURVE",
"303 315 OFFCURVE",
"303 192 CURVE SMOOTH",
"303 139 OFFCURVE",
"306 77 OFFCURVE",
"307 77 CURVE SMOOTH",
"341 77 OFFCURVE",
"400 82 OFFCURVE",
"458 82 CURVE SMOOTH",
"498 82 OFFCURVE",
"536 73 OFFCURVE",
"536 32 CURVE SMOOTH",
"536 -13 OFFCURVE",
"485 -27 OFFCURVE",
"448 -27 CURVE SMOOTH",
"275 -27 LINE SMOOTH",
"239 -27 OFFCURVE",
"205 1 OFFCURVE",
"203 36 CURVE SMOOTH",
"203 90 LINE SMOOTH",
"203 117 OFFCURVE",
"200 145 OFFCURVE",
"200 174 CURVE SMOOTH",
"200 261 OFFCURVE",
"190 349 OFFCURVE",
"190 436 CURVE SMOOTH",
"190 635 OFFCURVE",
"204 835 OFFCURVE",
"204 1034 CURVE SMOOTH",
"204 1092 OFFCURVE",
"193 1149 OFFCURVE",
"193 1207 CURVE SMOOTH",
"193 1266 OFFCURVE",
"202 1352 OFFCURVE",
"279 1352 CURVE SMOOTH",
"321 1352 OFFCURVE",
"524 1323 OFFCURVE"
);
}
);
width = 720;
}
);
unicode = 0065;
userData = {
com.fontlab.hintData = {
hhints = (
{
position = -27;
width = 60;
},
{
position = 717;
width = 90;
},
{
position = 743;
width = 60;
},
{
position = 1239;
width = 98;
},
{
position = 1278;
width = 72;
}
);
vhints = (
{
position = 109;
width = 69;
}
);
};
org.pippin.gimp.org.kernagic = {
lstem = 0;
rstem = 0;
};
};
},
{
glyphname = f;
lastChange = "2016-08-30 17:52:43 +0000";
layers = (
{
anchors = (
{
name = top;
position = "{366, 1356}";
}
);
layerId = "97F6A72F-75C9-4005-877B-5FF286A1C934";
paths = (
{
closed = 1;
nodes = (
"163 2 LINE",
"179 168 OFFCURVE",
"182 334 OFFCURVE",
"182 500 CURVE SMOOTH",
"182 774 OFFCURVE",
"210 1051 OFFCURVE",
"210 1325 CURVE SMOOTH",
"210 1352 OFFCURVE",
"243 1364 OFFCURVE",
"266 1364 CURVE SMOOTH",
"303 1364 OFFCURVE",
"511 1350 OFFCURVE",
"511 1305 CURVE SMOOTH",
"511 1274 OFFCURVE",
"461 1270 OFFCURVE",
"438 1270 CURVE",
"405 1288 OFFCURVE",
"362 1290 OFFCURVE",
"325 1290 CURVE SMOOTH",
"278 1290 OFFCURVE",
"296 1284 OFFCURVE",
"278 1247 CURVE",
"278 1100 OFFCURVE",
"258 958 OFFCURVE",
"258 815 CURVE SMOOTH",
"258 743 LINE SMOOTH",
"258 725 OFFCURVE",
"395 754 OFFCURVE",
"395 705 CURVE SMOOTH",
"395 680 OFFCURVE",
"366 666 OFFCURVE",
"346 666 CURVE SMOOTH",
"323 666 OFFCURVE",
"301 678 OFFCURVE",
"278 678 CURVE SMOOTH",
"241 678 OFFCURVE",
"241 603 OFFCURVE",
"241 578 CURVE SMOOTH",
"241 346 LINE SMOOTH",
"241 248 OFFCURVE",
"253 151 OFFCURVE",
"253 53 CURVE SMOOTH",
"253 20 OFFCURVE",
"247 -29 OFFCURVE",
"204 -29 CURVE"
);
}
);
width = 620;
},
{
anchors = (
{
name = top;
position = "{417, 1365}";
}
);
layerId = "A3BE8AFD-64C8-4B22-9D76-F0CE292C8BA7";
paths = (
{
closed = 1;
nodes = (
"316 753 LINE",
"326 753 OFFCURVE",
"339 754 OFFCURVE",
"354 754 CURVE SMOOTH",
"398 754 OFFCURVE",
"453 747 OFFCURVE",
"453 700 CURVE SMOOTH",
"453 662 OFFCURVE",
"415 640 OFFCURVE",
"381 640 CURVE SMOOTH",
"358 640 OFFCURVE",
"322 645 OFFCURVE",
"300 652 CURVE",
"300 72 LINE SMOOTH",
"300 6 OFFCURVE",
"278 -18 OFFCURVE",
"247 -18 CURVE SMOOTH",
"225 -18 OFFCURVE",
"199 -6 OFFCURVE",
"174 13 CURVE",
"203 333 OFFCURVE",
"197 655 OFFCURVE",
"214 975 CURVE",
"214 1025 LINE",
"219 1118 OFFCURVE",
"222 1210 OFFCURVE",
"222 1303 CURVE SMOOTH",
"222 1344 OFFCURVE",
"265 1364 OFFCURVE",
"301 1364 CURVE SMOOTH",
"355 1364 OFFCURVE",
"570 1358 OFFCURVE",
"570 1281 CURVE SMOOTH",
"570 1229 OFFCURVE",
"505 1223 OFFCURVE",
"466 1223 CURVE",
"433 1239 OFFCURVE",
"395 1243 OFFCURVE",
"359 1243 CURVE SMOOTH",
"335 1243 LINE",
"335 1219 LINE SMOOTH",
"334 1082 OFFCURVE",
"316 945 OFFCURVE",
"316 808 CURVE SMOOTH"
);
}
);
width = 756;
}
);
unicode = 0066;
userData = {
com.fontlab.hintData = {
hhints = (
{
position = -29;
width = 21;
},
{
position = 1010;
width = 4;
},
{
position = 1290;
width = 74;
}
);
vhints = (
{
position = 106;
width = 5;
},
{
position = 117;
width = 59;
},
{
position = 145;
width = 68;
}
);
};
org.pippin.gimp.org.kernagic = {
lstem = 0;
rstem = 237;
};
};
},
{
glyphname = g;
lastChange = "2016-08-30 17:52:43 +0000";
layers = (
{
anchors = (
{
name = top;
position = "{416, 1356}";
}
);
layerId = "97F6A72F-75C9-4005-877B-5FF286A1C934";
paths = (
{
closed = 1;
nodes = (
"155 623 CURVE SMOOTH",
"155 719 OFFCURVE",
"170 815 OFFCURVE",
"176 911 CURVE SMOOTH",
"188 1087 OFFCURVE",
"194 1356 OFFCURVE",
"434 1356 CURVE SMOOTH",
"461 1356 OFFCURVE",
"497 1352 OFFCURVE",
"497 1327 CURVE SMOOTH",
"497 1307 OFFCURVE",
"472 1296 OFFCURVE",
"456 1296 CURVE SMOOTH",
"444 1296 OFFCURVE",
"429 1300 OFFCURVE",
"417 1300 CURVE SMOOTH",
"231 1300 OFFCURVE",
"231 758 OFFCURVE",
"231 629 CURVE SMOOTH",
"231 580 OFFCURVE",
"231 528 OFFCURVE",
"237 479 CURVE",
"300 383 OFFCURVE",
"196 45 OFFCURVE",
"448 45 CURVE SMOOTH",
"566 45 OFFCURVE",
"571 269 OFFCURVE",
"571 409 CURVE SMOOTH",
"571 522 LINE",
"553 540 OFFCURVE",
"524 543 OFFCURVE",
"499 543 CURVE SMOOTH",
"491 543 OFFCURVE",
"476 541 OFFCURVE",
"460 541 CURVE SMOOTH",
"435 541 OFFCURVE",
"411 545 OFFCURVE",
"411 565 CURVE SMOOTH",
"411 594 OFFCURVE",
"437 600 OFFCURVE",
"460 600 CURVE SMOOTH",
"489 600 OFFCURVE",
"649 598 OFFCURVE",
"649 559 CURVE SMOOTH",
"649 508 OFFCURVE",
"626 457 OFFCURVE",
"626 406 CURVE SMOOTH",
"626 302 OFFCURVE",
"634 196 OFFCURVE",
"634 92 CURVE",
"579 37 OFFCURVE",
"507 -14 OFFCURVE",
"425 -14 CURVE SMOOTH",
"364 -14 OFFCURVE",
"280 -2 OFFCURVE",
"241 49 CURVE SMOOTH",
"184 123 OFFCURVE",
"155 517 OFFCURVE"
);
}
);
width = 820;
},
{
anchors = (
{
name = bot;
position = "{450, 0}";
},
{
name = top;
position = "{477, 1365}";
}
);
layerId = "A3BE8AFD-64C8-4B22-9D76-F0CE292C8BA7";
paths = (
{
closed = 1;
nodes = (
"464 -16 CURVE SMOOTH",
"174 -16 OFFCURVE",
"172 346 OFFCURVE",
"172 611 CURVE SMOOTH",
"172 692 LINE SMOOTH",
"172 968 OFFCURVE",
"184 1354 OFFCURVE",
"474 1354 CURVE SMOOTH",
"509 1354 OFFCURVE",
"561 1349 OFFCURVE",
"561 1302 CURVE SMOOTH",
"561 1268 OFFCURVE",
"527 1247 OFFCURVE",
"496 1247 CURVE SMOOTH",
"481 1247 OFFCURVE",
"467 1252 OFFCURVE",
"453 1252 CURVE SMOOTH",
"304 1252 OFFCURVE",
"294 732 OFFCURVE",
"294 629 CURVE SMOOTH",
"294 434 OFFCURVE",
"301 91 OFFCURVE",
"489 91 CURVE SMOOTH",
"583 91 OFFCURVE",
"588 316 OFFCURVE",
"588 417 CURVE SMOOTH",
"588 511 LINE",
"573 519 OFFCURVE",
"557 519 OFFCURVE",
"540 519 CURVE SMOOTH",
"529 519 OFFCURVE",
"515 518 OFFCURVE",
"500 518 CURVE SMOOTH",
"465 518 OFFCURVE",
"429 524 OFFCURVE",
"429 565 CURVE SMOOTH",
"429 606 OFFCURVE",
"463 624 OFFCURVE",
"499 624 CURVE",
"499 623 LINE",
"527 623 LINE SMOOTH",
"591 623 OFFCURVE",
"711 619 OFFCURVE",
"711 560 CURVE SMOOTH",
"711 509 OFFCURVE",
"689 462 OFFCURVE",
"689 411 CURVE SMOOTH",
"689 341 OFFCURVE",
"699 266 OFFCURVE",
"699 194 CURVE SMOOTH",
"699 50 OFFCURVE",
"578 -16 OFFCURVE"
);
}
);
width = 853;
}
);
unicode = 0067;
userData = {
com.fontlab.hintData = {
hhints = (
{
position = -14;
width = 59;
},
{
position = 543;
width = 57;
},
{
position = 1300;
width = 56;
}
);
vhints = (
{
position = 92;
width = 76;
},
{
position = 508;
width = 78;
},
{
position = 508;
width = 55;
}
);
};
org.pippin.gimp.org.kernagic = {
lstem = 0;
rstem = 0;
};
};
},
{
glyphname = h;
lastChange = "2016-08-30 17:52:43 +0000";
layers = (
{
anchors = (
{
name = top;
position = "{356, 1356}";
}
);
layerId = "97F6A72F-75C9-4005-877B-5FF286A1C934";
paths = (
{
closed = 1;
nodes = (
"427 739 LINE",
"431 735 LINE",
"427 735 LINE"
);
},
{
closed = 1;
nodes = (
"493 -2 CURVE",
"489 180 OFFCURVE",
"483 365 OFFCURVE",
"483 547 CURVE",
"478 555 LINE",
"478 557 OFFCURVE",
"485 573 OFFCURVE",
"485 573 CURVE",
"485 598 OFFCURVE",
"482 624 OFFCURVE",
"478 649 CURVE",
"446 657 LINE",
"434 653 OFFCURVE",
"419 651 OFFCURVE",
"405 651 CURVE SMOOTH",
"360 651 OFFCURVE",
"319 672 OFFCURVE",
"274 672 CURVE",
"253 664 LINE",
"253 578 OFFCURVE",
"247 492 OFFCURVE",
"247 406 CURVE",
"253 397 LINE",
"253 282 OFFCURVE",
"265 170 OFFCURVE",
"265 55 CURVE SMOOTH",
"265 35 OFFCURVE",
"258 2 OFFCURVE",
"231 2 CURVE SMOOTH",
"186 2 OFFCURVE",
"186 94 OFFCURVE",
"186 125 CURVE SMOOTH",
"186 250 OFFCURVE",
"190 375 OFFCURVE",
"190 500 CURVE SMOOTH",
"190 525 OFFCURVE",
"190 686 OFFCURVE",
"184 700 CURVE",
"194 720 OFFCURVE",
"194 811 OFFCURVE",
"194 836 CURVE SMOOTH",
"194 996 OFFCURVE",
"179 1155 OFFCURVE",
"179 1315 CURVE SMOOTH",
"179 1333 OFFCURVE",
"194 1354 OFFCURVE",
"214 1354 CURVE SMOOTH",
"253 1354 OFFCURVE",
"255 1272 OFFCURVE",
"255 1235 CURVE SMOOTH",
"255 1069 OFFCURVE",
"247 895 OFFCURVE",
"247 735 CURVE SMOOTH",
"247 712 OFFCURVE",
"366 711 OFFCURVE",
"404 711 CURVE SMOOTH",
"411 711 LINE SMOOTH",
"460 711 OFFCURVE",
"485 725 OFFCURVE",
"485 778 CURVE SMOOTH",
"485 966 OFFCURVE",
"458 1155 OFFCURVE",
"458 1343 CURVE SMOOTH",
"458 1361 OFFCURVE",
"477 1374 OFFCURVE",
"493 1374 CURVE SMOOTH",
"499 1374 OFFCURVE",
"522 1364 OFFCURVE",
"530 1362 CURVE",
"530 1043 OFFCURVE",
"556 725 OFFCURVE",
"556 406 CURVE SMOOTH",
"556 271 OFFCURVE",
"559 135 OFFCURVE",
"569 0 CURVE",
"556 -23 LINE",
"554 -5 OFFCURVE",
"507 -2 OFFCURVE"
);
}
);
width = 740;
},
{
anchors = (
{
name = top;
position = "{387, 1365}";
}
);
layerId = "A3BE8AFD-64C8-4B22-9D76-F0CE292C8BA7";
paths = (
{
closed = 1;
nodes = (
"481 548 CURVE SMOOTH",
"481 556 LINE SMOOTH",
"482 576 OFFCURVE",
"484 595 OFFCURVE",
"484 615 CURVE SMOOTH",
"484 621 OFFCURVE",
"472 628 OFFCURVE",
"472 634 CURVE SMOOTH",
"472 636 LINE",
"459 633 OFFCURVE",
"447 632 OFFCURVE",
"435 632 CURVE SMOOTH",
"390 632 OFFCURVE",
"350 649 OFFCURVE",
"303 651 CURVE",
"303 416 LINE SMOOTH",
"303 304 OFFCURVE",
"315 191 OFFCURVE",
"315 79 CURVE SMOOTH",
"315 44 OFFCURVE",
"297 5 OFFCURVE",
"257 5 CURVE SMOOTH",
"197 5 OFFCURVE",
"185 134 OFFCURVE",
"185 283 CURVE SMOOTH",
"185 391 OFFCURVE",
"191 509 OFFCURVE",
"191 595 CURVE SMOOTH",
"191 619 OFFCURVE",
"192 641 OFFCURVE",
"192 659 CURVE SMOOTH",
"192 677 OFFCURVE",
"191 692 OFFCURVE",
"188 702 CURVE SMOOTH",
"188 712 LINE SMOOTH",
"191 752 OFFCURVE",
"196 792 OFFCURVE",
"196 832 CURVE SMOOTH",
"196 986 OFFCURVE",
"182 1140 OFFCURVE",
"182 1294 CURVE SMOOTH",
"182 1325 OFFCURVE",
"208 1355 OFFCURVE",
"240 1355 CURVE SMOOTH",
"298 1355 OFFCURVE",
"305 1276 OFFCURVE",
"305 1233 CURVE SMOOTH",
"305 1063 OFFCURVE",
"297 892 OFFCURVE",
"297 722 CURVE",
"334 712 OFFCURVE",
"372 712 OFFCURVE",
"409 712 CURVE SMOOTH",
"483 712 LINE",
"487 719 OFFCURVE",
"488 729 OFFCURVE",
"488 738 CURVE SMOOTH",
"488 932 OFFCURVE",
"461 1125 OFFCURVE",
"461 1320 CURVE SMOOTH",
"461 1351 OFFCURVE",
"490 1374 OFFCURVE",
"520 1374 CURVE SMOOTH",
"541 1374 OFFCURVE",
"560 1362 OFFCURVE",
"580 1356 CURVE",
"580 912 OFFCURVE",
"617 208 OFFCURVE",
"619 62 CURVE SMOOTH",
"619 20 OFFCURVE",
"582 0 OFFCURVE",
"548 0 CURVE SMOOTH",
"488 0 OFFCURVE",
"478 176 OFFCURVE",
"478 337 CURVE SMOOTH",
"478 419 OFFCURVE",
"481 498 OFFCURVE"
);
}
);
width = 792;
}
);
unicode = 0068;
userData = {
com.fontlab.hintData = {
hhints = (
{
position = -23;
width = 21;
},
{
position = 651;
width = 60;
},
{
position = 1354;
width = 20;
}
);
vhints = (
{
position = 119;
width = 53;
},
{
position = 383;
width = 72;
},
{
position = 410;
width = 71;
}
);
};
org.pippin.gimp.org.kernagic = {
lstem = 0;
rstem = 0;
};
};
},
{
glyphname = hbar;
lastChange = "2016-08-30 17:52:43 +0000";
layers = (
{
components = (
{
name = h;
},
{
name = hyphen;
transform = "{1, 0, 0, 1, -2, 350}";
}
);
layerId = "97F6A72F-75C9-4005-877B-5FF286A1C934";
width = 740;
},
{
layerId = "A3BE8AFD-64C8-4B22-9D76-F0CE292C8BA7";
paths = (
{
closed = 1;
nodes = (
"372 385 CURVE SMOOTH",
"372 451 OFFCURVE",
"378 518 OFFCURVE",
"378 584 CURVE",
"360 599 LINE",
"332 599 OFFCURVE",
"286 590 OFFCURVE",
"246 590 CURVE SMOOTH",
"199 590 OFFCURVE",
"158 602 OFFCURVE",
"158 655 CURVE SMOOTH",
"158 682 OFFCURVE",
"175 708 OFFCURVE",
"204 708 CURVE SMOOTH",
"244 708 OFFCURVE",
"286 701 OFFCURVE",
"326 701 CURVE SMOOTH",
"342 701 OFFCURVE",
"356 702 OFFCURVE",
"372 705 CURVE",
"370 755 OFFCURVE",
"360 805 OFFCURVE",
"360 855 CURVE SMOOTH",
"360 900 OFFCURVE",
"367 968 OFFCURVE",
"426 968 CURVE SMOOTH",
"458 968 OFFCURVE",
"486 942 OFFCURVE",
"486 909 CURVE SMOOTH",
"486 904 LINE",
"478 884 LINE",
"479 853 OFFCURVE",
"479 701 OFFCURVE",
"506 701 CURVE SMOOTH",
"531 701 OFFCURVE",
"578 709 OFFCURVE",
"624 709 CURVE SMOOTH",
"679 709 OFFCURVE",
"730 697 OFFCURVE",
"730 647 CURVE SMOOTH",
"730 615 OFFCURVE",
"704 591 OFFCURVE",
"672 591 CURVE SMOOTH",
"631 591 OFFCURVE",
"593 602 OFFCURVE",
"552 602 CURVE SMOOTH",
"518 602 OFFCURVE",
"486 593 OFFCURVE",
"486 553 CURVE SMOOTH",
"486 498 OFFCURVE",
"506 444 OFFCURVE",
"506 389 CURVE SMOOTH",
"506 353 OFFCURVE",
"470 333 OFFCURVE",
"438 333 CURVE SMOOTH",
"409 333 OFFCURVE",
"372 352 OFFCURVE"
);
},
{
closed = 1;
nodes = (
"158 200 CURVE SMOOTH",
"158 228 OFFCURVE",
"176 246 OFFCURVE",
"204 246 CURVE SMOOTH",
"506 246 LINE SMOOTH",
"548 246 OFFCURVE",
"590 253 OFFCURVE",
"632 253 CURVE SMOOTH",
"674 253 OFFCURVE",
"730 246 OFFCURVE",
"730 192 CURVE SMOOTH",
"730 158 OFFCURVE",
"702 145 OFFCURVE",
"672 145 CURVE SMOOTH",
"528 145 OFFCURVE",
"383 135 OFFCURVE",
"240 135 CURVE SMOOTH",
"195 135 OFFCURVE",
"158 149 OFFCURVE"
);
}
);
width = 900;
}
);
unicode = 0127;
userData = {
com.fontlab.hintData = {
hhints = (
{
position = -23;
width = 21;
},
{
position = 651;
width = 60;
},
{
position = 1045;
width = 94;
},
{
position = 1354;
width = 20;
}
);
vhints = (
{
position = 86;
width = 395;
},
{
position = 119;
width = 53;
},
{
position = 383;
width = 72;
},
{
position = 410;
width = 71;
}
);
};
org.pippin.gimp.org.kernagic = {
lstem = 0;
rstem = 0;
};
};
},
{
glyphname = hcircumflex;
lastChange = "2016-08-30 17:52:43 +0000";
layers = (
{
components = (
{
name = circumflex;
transform = "{1, 0, 0, 1, 44, 551}";
},
{
name = h;
}
);
layerId = "97F6A72F-75C9-4005-877B-5FF286A1C934";
width = 740;
},
{
layerId = "A3BE8AFD-64C8-4B22-9D76-F0CE292C8BA7";
paths = (
{
closed = 1;
nodes = (
"870 1739 CURVE",
"871 1540 OFFCURVE",
"884 1341 OFFCURVE",
"884 1142 CURVE SMOOTH",
"884 850 OFFCURVE",
"872 557 OFFCURVE",
"872 265 CURVE SMOOTH",
"872 188 OFFCURVE",
"884 113 OFFCURVE",
"884 36 CURVE SMOOTH",
"884 4 OFFCURVE",
"857 -20 OFFCURVE",
"826 -20 CURVE SMOOTH",
"759 -20 OFFCURVE",
"751 52 OFFCURVE",
"751 103 CURVE SMOOTH",
"751 461 OFFCURVE",
"770 819 OFFCURVE",
"770 1177 CURVE SMOOTH",
"770 1326 OFFCURVE",
"755 1474 OFFCURVE",
"755 1623 CURVE SMOOTH",
"755 1642 OFFCURVE",
"758 1666 OFFCURVE",
"758 1689 CURVE SMOOTH",
"758 1731 OFFCURVE",
"748 1769 OFFCURVE",
"696 1769 CURVE SMOOTH",
"689 1769 OFFCURVE",
"687 1700 OFFCURVE",
"687 1689 CURVE SMOOTH",
"687 1452 OFFCURVE",
"714 1217 OFFCURVE",
"714 980 CURVE SMOOTH",
"714 674 OFFCURVE",
"676 370 OFFCURVE",
"676 64 CURVE SMOOTH",
"676 21 OFFCURVE",
"666 -8 OFFCURVE",
"617 -8 CURVE SMOOTH",
"581 -8 OFFCURVE",
"555 21 OFFCURVE",
"555 56 CURVE SMOOTH",
"555 359 OFFCURVE",
"598 661 OFFCURVE",
"598 964 CURVE SMOOTH",
"598 1009 OFFCURVE",
"595 1053 OFFCURVE",
"594 1098 CURVE",
"423 1098 OFFCURVE",
"185 1118 OFFCURVE",
"139 1321 CURVE SMOOTH",
"134 1342 OFFCURVE",
"135 1364 OFFCURVE",
"126 1384 CURVE",
"126 1747 OFFCURVE",
"291 1823 OFFCURVE",
"621 1854 CURVE",
"638 1871 OFFCURVE",
"660 1876 OFFCURVE",
"683 1876 CURVE SMOOTH",
"710 1876 OFFCURVE",
"737 1864 OFFCURVE",
"763 1859 CURVE",
"762 1858 LINE",
"818 1865 LINE",
"827 1854 LINE",
"862 1852 OFFCURVE",
"950 1838 OFFCURVE",
"950 1790 CURVE SMOOTH",
"950 1759 OFFCURVE",
"922 1738 OFFCURVE",
"893 1738 CURVE SMOOTH",
"885 1738 OFFCURVE",
"878 1739 OFFCURVE"
);
},
{
closed = 1;
nodes = (
"239 1454 CURVE",
"238 1455 LINE",
"238 1224 OFFCURVE",
"386 1196 OFFCURVE",
"581 1196 CURVE SMOOTH",
"585 1196 OFFCURVE",
"592 1199 OFFCURVE",
"596 1200 CURVE",
"596 1366 OFFCURVE",
"576 1531 OFFCURVE",
"576 1697 CURVE",
"578 1740 LINE",
"551 1748 OFFCURVE",
"524 1748 OFFCURVE",
"496 1748 CURVE SMOOTH",
"349 1748 OFFCURVE",
"239 1591 OFFCURVE"
);
}
);
width = 1080;
}
);
unicode = 0125;
userData = {
com.fontlab.hintData = {
hhints = (
{
position = -23;
width = 21;
},
{
position = 651;
width = 60;
},
{
position = 1354;
width = 20;
},
{
position = 1478;
width = 383;
}
);
vhints = (
{
position = 113;
width = 72;
},
{
position = 119;
width = 53;
},
{
position = 330;
width = 64;
},
{
position = 383;
width = 72;
},
{
position = 410;
width = 71;
}
);
};
org.pippin.gimp.org.kernagic = {
lstem = 0;
rstem = 0;
};
};
},
{
glyphname = i;
lastChange = "2016-08-30 17:52:43 +0000";
layers = (
{
anchors = (
{
name = top;
position = "{336, 1356}";
}
);
layerId = "97F6A72F-75C9-4005-877B-5FF286A1C934";
paths = (
{
closed = 1;
nodes = (
"300 20 CURVE",
"288 20 OFFCURVE",
"276 18 OFFCURVE",
"266 18 CURVE SMOOTH",
"246 18 OFFCURVE",
"220 21 OFFCURVE",
"210 39 CURVE",
"210 57 OFFCURVE",
"225 60 OFFCURVE",
"237 74 CURVE",
"296 74 LINE",
"304 82 LINE",
"306 96 OFFCURVE",
"311 111 OFFCURVE",
"311 125 CURVE SMOOTH",
"311 275 OFFCURVE",
"296 423 OFFCURVE",
"296 573 CURVE SMOOTH",
"296 733 OFFCURVE",
"306 893 OFFCURVE",
"306 1051 CURVE SMOOTH",
"306 1131 OFFCURVE",
"304 1210 OFFCURVE",
"296 1288 CURVE",
"276 1294 OFFCURVE",
"255 1294 OFFCURVE",
"235 1294 CURVE SMOOTH",
"219 1294 OFFCURVE",
"202 1290 OFFCURVE",
"186 1290 CURVE SMOOTH",
"161 1290 OFFCURVE",
"147 1300 OFFCURVE",
"147 1325 CURVE SMOOTH",
"147 1339 OFFCURVE",
"184 1350 OFFCURVE",
"196 1350 CURVE SMOOTH",
"235 1350 OFFCURVE",
"481 1349 OFFCURVE",
"481 1288 CURVE SMOOTH",
"481 1282 OFFCURVE",
"478 1276 OFFCURVE",
"476 1272 CURVE",
"429 1268 LINE",
"413 1280 OFFCURVE",
"390 1280 OFFCURVE",
"370 1280 CURVE",
"360 1274 LINE",
"366 1256 OFFCURVE",
"366 1206 OFFCURVE",
"366 1165 CURVE SMOOTH",
"366 1003 OFFCURVE",
"360 840 OFFCURVE",
"360 678 CURVE SMOOTH",
"360 528 OFFCURVE",
"374 379 OFFCURVE",
"374 229 CURVE SMOOTH",
"374 217 OFFCURVE",
"372 191 OFFCURVE",
"372 166 CURVE SMOOTH",
"372 139 OFFCURVE",
"374 115 OFFCURVE",
"378 109 CURVE",
"376 104 LINE",
"376 84 OFFCURVE",
"407 84 OFFCURVE",
"421 84 CURVE SMOOTH",
"441 84 OFFCURVE",
"461 86 OFFCURVE",
"481 86 CURVE SMOOTH",
"501 86 OFFCURVE",
"542 86 OFFCURVE",
"542 57 CURVE SMOOTH",
"542 32 OFFCURVE",
"522 16 OFFCURVE",
"497 16 CURVE SMOOTH",
"474 16 OFFCURVE",
"452 23 OFFCURVE",
"429 23 CURVE SMOOTH",
"398 23 OFFCURVE",
"383 0 OFFCURVE",
"356 0 CURVE SMOOTH",
"338 0 OFFCURVE",
"308 0 OFFCURVE"
);
}
);
width = 700;
},
{
anchors = (
{
name = ogonek;
position = "{402, 0}";
},
{
name = top;
position = "{377, 1365}";
}
);
layerId = "A3BE8AFD-64C8-4B22-9D76-F0CE292C8BA7";
paths = (
{
closed = 1;
nodes = (
"429 185 LINE SMOOTH",
"429 166 OFFCURVE",
"428 144 OFFCURVE",
"428 128 CURVE",
"455 128 LINE SMOOTH",
"470 128 OFFCURVE",
"491 130 OFFCURVE",
"514 130 CURVE SMOOTH",
"555 130 OFFCURVE",
"598 122 OFFCURVE",
"598 79 CURVE SMOOTH",
"598 43 OFFCURVE",
"565 16 OFFCURVE",
"530 16 CURVE SMOOTH",
"440 16 LINE SMOOTH",
"394 16 OFFCURVE",
"347 16 OFFCURVE",
"321 20 CURVE SMOOTH",
"313 19 OFFCURVE",
"304 18 OFFCURVE",
"296 18 CURVE SMOOTH",
"241 18 OFFCURVE",
"223 40 OFFCURVE",
"223 64 CURVE SMOOTH",
"223 90 OFFCURVE",
"243 117 OFFCURVE",
"259 118 CURVE SMOOTH",
"317 118 LINE",
"318 127 OFFCURVE",
"321 136 OFFCURVE",
"321 145 CURVE SMOOTH",
"321 290 OFFCURVE",
"307 435 OFFCURVE",
"307 580 CURVE SMOOTH",
"307 732 OFFCURVE",
"318 884 OFFCURVE",
"318 1036 CURVE SMOOTH",
"318 1109 OFFCURVE",
"315 1184 OFFCURVE",
"308 1256 CURVE",
"269 1256 LINE SMOOTH",
"254 1256 OFFCURVE",
"238 1254 OFFCURVE",
"222 1254 CURVE SMOOTH",
"188 1254 OFFCURVE",
"158 1262 OFFCURVE",
"158 1309 CURVE SMOOTH",
"158 1353 OFFCURVE",
"220 1356 OFFCURVE",
"259 1356 CURVE SMOOTH",
"503 1356 LINE SMOOTH",
"564 1356 OFFCURVE",
"586 1335 OFFCURVE",
"586 1313 CURVE SMOOTH",
"586 1288 OFFCURVE",
"559 1262 OFFCURVE",
"527 1262 CURVE SMOOTH",
"422 1262 LINE",
"428 1199 OFFCURVE",
"430 1136 OFFCURVE",
"430 1072 CURVE SMOOTH",
"430 942 OFFCURVE",
"419 811 OFFCURVE",
"419 681 CURVE SMOOTH",
"419 536 OFFCURVE",
"429 391 OFFCURVE",
"429 246 CURVE SMOOTH"
);
}
);
width = 774;
}
);
unicode = 0069;
userData = {
com.fontlab.hintData = {
hhints = (
{
position = 0;
width = 21;
},
{
position = 16;
width = 70;
},
{
position = 1294;
width = 56;
}
);
vhints = (
{
position = 223;
width = 64;
},
{
position = 238;
width = 61;
}
);
};
org.pippin.gimp.org.kernagic = {
lstem = 0;
rstem = 0;
};
};
},
{
glyphname = idotless;
lastChange = "2016-08-31 12:44:30 +0000";
layers = (
{
anchors = (
{
name = top;
position = "{328, 1356}";
}
);
layerId = "97F6A72F-75C9-4005-877B-5FF286A1C934";
paths = (
{
closed = 1;
nodes = (
"300 20 CURVE",
"288 20 OFFCURVE",
"276 18 OFFCURVE",
"266 18 CURVE SMOOTH",
"246 18 OFFCURVE",
"220 21 OFFCURVE",
"210 39 CURVE",
"210 57 OFFCURVE",
"225 60 OFFCURVE",
"237 74 CURVE",
"296 74 LINE",
"304 82 LINE",
"306 96 OFFCURVE",
"311 111 OFFCURVE",
"311 125 CURVE SMOOTH",
"311 275 OFFCURVE",
"296 423 OFFCURVE",
"296 573 CURVE SMOOTH",
"296 733 OFFCURVE",
"306 893 OFFCURVE",
"306 1051 CURVE SMOOTH",
"306 1131 OFFCURVE",
"304 1210 OFFCURVE",
"296 1288 CURVE",
"276 1294 OFFCURVE",
"255 1294 OFFCURVE",
"235 1294 CURVE SMOOTH",
"219 1294 OFFCURVE",
"202 1290 OFFCURVE",
"186 1290 CURVE SMOOTH",
"161 1290 OFFCURVE",
"147 1300 OFFCURVE",
"147 1325 CURVE SMOOTH",
"147 1339 OFFCURVE",
"184 1350 OFFCURVE",
"196 1350 CURVE SMOOTH",
"235 1350 OFFCURVE",
"481 1349 OFFCURVE",
"481 1288 CURVE SMOOTH",
"481 1282 OFFCURVE",
"478 1276 OFFCURVE",
"476 1272 CURVE",
"429 1268 LINE",
"413 1280 OFFCURVE",
"390 1280 OFFCURVE",
"370 1280 CURVE",
"360 1274 LINE",
"366 1256 OFFCURVE",
"366 1206 OFFCURVE",
"366 1165 CURVE SMOOTH",
"366 1003 OFFCURVE",
"360 840 OFFCURVE",
"360 678 CURVE SMOOTH",
"360 528 OFFCURVE",
"374 379 OFFCURVE",
"374 229 CURVE SMOOTH",
"374 217 OFFCURVE",
"372 191 OFFCURVE",
"372 166 CURVE SMOOTH",
"372 139 OFFCURVE",
"374 115 OFFCURVE",
"378 109 CURVE",
"376 104 LINE",
"376 84 OFFCURVE",
"407 84 OFFCURVE",
"421 84 CURVE SMOOTH",
"441 84 OFFCURVE",
"461 86 OFFCURVE",
"481 86 CURVE SMOOTH",
"501 86 OFFCURVE",
"542 86 OFFCURVE",
"542 57 CURVE SMOOTH",
"542 32 OFFCURVE",
"522 16 OFFCURVE",
"497 16 CURVE SMOOTH",
"474 16 OFFCURVE",
"452 23 OFFCURVE",
"429 23 CURVE SMOOTH",
"398 23 OFFCURVE",
"383 0 OFFCURVE",
"356 0 CURVE SMOOTH",
"338 0 OFFCURVE",
"308 0 OFFCURVE"
);
}
);
width = 700;
},
{
anchors = (
{
name = ogonek;
position = "{412, 17}";
},
{
name = top;
position = "{278, 1537}";
}
);
layerId = "A3BE8AFD-64C8-4B22-9D76-F0CE292C8BA7";
paths = (
{
closed = 1;
nodes = (
"275 1308 CURVE SMOOTH",
"275 1329 OFFCURVE",
"278 1356 OFFCURVE",
"278 1383 CURVE SMOOTH",
"278 1432 OFFCURVE",
"267 1479 OFFCURVE",
"207 1479 CURVE SMOOTH",
"194 1479 OFFCURVE",
"177 1477 OFFCURVE",
"160 1477 CURVE SMOOTH",
"130 1477 OFFCURVE",
"102 1483 OFFCURVE",
"102 1521 CURVE SMOOTH",
"102 1574 OFFCURVE",
"224 1575 OFFCURVE",
"267 1575 CURVE SMOOTH",
"300 1575 OFFCURVE",
"354 1574 OFFCURVE",
"372 1541 CURVE",
"366 1513 OFFCURVE",
"360 1484 OFFCURVE",
"360 1455 CURVE SMOOTH",
"360 1329 OFFCURVE",
"391 1205 OFFCURVE",
"391 1079 CURVE SMOOTH",
"391 756 OFFCURVE",
"435 433 OFFCURVE",
"435 109 CURVE SMOOTH",
"435 96 LINE",
"460 98 OFFCURVE",
"485 102 OFFCURVE",
"510 102 CURVE",
"510 103 LINE",
"546 103 OFFCURVE",
"597 99 OFFCURVE",
"597 52 CURVE SMOOTH",
"597 -4 OFFCURVE",
"435 -8 OFFCURVE",
"364 -8 CURVE SMOOTH",
"334 -8 OFFCURVE",
"326 -9 OFFCURVE",
"303 -9 CURVE SMOOTH",
"262 -9 OFFCURVE",
"239 -3 OFFCURVE",
"239 47 CURVE SMOOTH",
"239 75 OFFCURVE",
"244 86 OFFCURVE",
"292 86 CURVE SMOOTH",
"316 86 OFFCURVE",
"337 93 OFFCURVE",
"337 120 CURVE SMOOTH",
"337 519 OFFCURVE",
"275 923 OFFCURVE"
);
}
);
width = 774;
}
);
unicode = 0131;
userData = {
com.fontlab.hintData = {
hhints = (
{
position = 0;
width = 21;
},
{
position = 16;
width = 70;
},
{
position = 1294;
width = 56;
}
);
vhints = (
{
position = 223;
width = 64;
},
{
position = 238;
width = 61;
}
);
};
org.pippin.gimp.org.kernagic = {
lstem = 0;
rstem = 0;
};
};
},
{
glyphname = j;
lastChange = "2016-08-30 17:52:43 +0000";
layers = (
{
anchors = (
{
name = top;
position = "{337, 1356}";
}
);
layerId = "97F6A72F-75C9-4005-877B-5FF286A1C934";
paths = (
{
closed = 1;
nodes = (
"102 -197 CURVE SMOOTH",
"102 -181 OFFCURVE",
"237 -107 OFFCURVE",
"257 -84 CURVE SMOOTH",
"306 -29 OFFCURVE",
"323 100 OFFCURVE",
"323 172 CURVE SMOOTH",
"323 534 OFFCURVE",
"304 898 OFFCURVE",
"304 1260 CURVE",
"292 1282 LINE",
"263 1294 OFFCURVE",
"143 1296 OFFCURVE",
"143 1335 CURVE SMOOTH",
"143 1347 OFFCURVE",
"176 1360 OFFCURVE",
"186 1360 CURVE SMOOTH",
"235 1360 OFFCURVE",
"528 1317 OFFCURVE",
"528 1274 CURVE SMOOTH",
"528 1256 OFFCURVE",
"511 1247 OFFCURVE",
"495 1247 CURVE SMOOTH",
"456 1247 OFFCURVE",
"423 1268 OFFCURVE",
"384 1268 CURVE SMOOTH",
"366 1268 OFFCURVE",
"366 1237 OFFCURVE",
"366 1227 CURVE SMOOTH",
"366 942 OFFCURVE",
"386 660 OFFCURVE",
"386 377 CURVE SMOOTH",
"386 152 LINE",
"374 125 OFFCURVE",
"374 95 OFFCURVE",
"374 66 CURVE SMOOTH",
"374 -34 OFFCURVE",
"310 -252 OFFCURVE",
"165 -252 CURVE SMOOTH",
"151 -252 LINE",
"104 -205 LINE",
"104 -203 OFFCURVE",
"102 -199 OFFCURVE"
);
}
);
width = 620;
},
{
anchors = (
{
name = top;
position = "{387, 1365}";
}
);
layerId = "A3BE8AFD-64C8-4B22-9D76-F0CE292C8BA7";
paths = (
{
closed = 1;
nodes = (
"460 164 LINE SMOOTH",
"460 46 OFFCURVE",
"437 -193 OFFCURVE",
"149 -193 CURVE SMOOTH",
"129 -193 OFFCURVE",
"125 -183 OFFCURVE",
"125 -168 CURVE SMOOTH",
"125 -158 OFFCURVE",
"127 -146 OFFCURVE",
"127 -134 CURVE SMOOTH",
"127 -106 OFFCURVE",
"238 -102 OFFCURVE",
"289 -46 CURVE SMOOTH",
"337 6 OFFCURVE",
"348 117 OFFCURVE",
"348 187 CURVE SMOOTH",
"348 536 OFFCURVE",
"325 884 OFFCURVE",
"325 1233 CURVE SMOOTH",
"325 1242 LINE",
"283 1246 OFFCURVE",
"168 1249 OFFCURVE",
"168 1292 CURVE SMOOTH",
"168 1322 OFFCURVE",
"211 1339 OFFCURVE",
"235 1339 CURVE SMOOTH",
"295 1339 OFFCURVE",
"600 1325 OFFCURVE",
"600 1293 CURVE SMOOTH",
"600 1262 OFFCURVE",
"572 1245 OFFCURVE",
"544 1245 CURVE SMOOTH",
"439 1245 LINE",
"439 963 OFFCURVE",
"460 664 OFFCURVE",
"460 382 CURVE SMOOTH"
);
}
);
width = 756;
}
);
unicode = 006A;
userData = {
com.fontlab.hintData = {
hhints = (
{
position = 1247;
width = 113;
},
{
position = 1268;
width = 92;
}
);
vhints = (
{
position = 272;
width = 62;
},
{
position = 291;
width = 63;
}
);
};
org.pippin.gimp.org.kernagic = {
lstem = 125;
rstem = 297;
};
};
},
{
glyphname = jdotless;
lastChange = "2016-08-31 14:08:31 +0000";
layers = (
{
anchors = (
{
name = top;
position = "{370, 1356}";
}
);
layerId = "97F6A72F-75C9-4005-877B-5FF286A1C934";
paths = (
{
closed = 1;
nodes = (
"131 -197 CURVE SMOOTH",
"131 -181 OFFCURVE",
"266 -107 OFFCURVE",
"286 -84 CURVE SMOOTH",
"335 -29 OFFCURVE",
"352 100 OFFCURVE",
"352 172 CURVE SMOOTH",
"352 534 OFFCURVE",
"333 898 OFFCURVE",
"333 1260 CURVE",
"321 1282 LINE",
"292 1294 OFFCURVE",
"172 1296 OFFCURVE",
"172 1335 CURVE SMOOTH",
"172 1347 OFFCURVE",
"205 1360 OFFCURVE",
"215 1360 CURVE SMOOTH",
"264 1360 OFFCURVE",
"557 1317 OFFCURVE",
"557 1274 CURVE SMOOTH",
"557 1256 OFFCURVE",
"540 1247 OFFCURVE",
"524 1247 CURVE SMOOTH",
"485 1247 OFFCURVE",
"452 1268 OFFCURVE",
"413 1268 CURVE SMOOTH",
"395 1268 OFFCURVE",
"395 1237 OFFCURVE",
"395 1227 CURVE SMOOTH",
"395 942 OFFCURVE",
"415 660 OFFCURVE",
"415 377 CURVE SMOOTH",
"415 152 LINE",
"403 125 OFFCURVE",
"403 95 OFFCURVE",
"403 66 CURVE SMOOTH",
"403 -34 OFFCURVE",
"339 -252 OFFCURVE",
"194 -252 CURVE SMOOTH",
"180 -252 LINE",
"133 -205 LINE",
"133 -203 OFFCURVE",
"131 -199 OFFCURVE"
);
}
);
width = 720;
},
{
layerId = "A3BE8AFD-64C8-4B22-9D76-F0CE292C8BA7";
paths = (
{
closed = 1;
nodes = (
"460 164 LINE SMOOTH",
"460 46 OFFCURVE",
"437 -193 OFFCURVE",
"149 -193 CURVE SMOOTH",
"129 -193 OFFCURVE",
"125 -183 OFFCURVE",
"125 -168 CURVE SMOOTH",
"125 -158 OFFCURVE",
"127 -146 OFFCURVE",
"127 -134 CURVE SMOOTH",
"127 -106 OFFCURVE",
"238 -102 OFFCURVE",
"289 -46 CURVE SMOOTH",
"337 6 OFFCURVE",
"348 117 OFFCURVE",
"348 187 CURVE SMOOTH",
"348 536 OFFCURVE",
"325 884 OFFCURVE",
"325 1233 CURVE SMOOTH",
"325 1242 LINE",
"283 1246 OFFCURVE",
"168 1249 OFFCURVE",
"168 1292 CURVE SMOOTH",
"168 1322 OFFCURVE",
"211 1339 OFFCURVE",
"235 1339 CURVE SMOOTH",
"295 1339 OFFCURVE",
"600 1325 OFFCURVE",
"600 1293 CURVE SMOOTH",
"600 1262 OFFCURVE",
"572 1245 OFFCURVE",
"544 1245 CURVE SMOOTH",
"439 1245 LINE",
"439 963 OFFCURVE",
"460 664 OFFCURVE",
"460 382 CURVE SMOOTH"
);
}
);
width = 600;
}
);
unicode = 0237;
userData = {
com.fontlab.hintData = {
hhints = (
{
position = 1247;
width = 113;
},
{
position = 1268;
width = 92;
}
);
vhints = (
{
position = 272;
width = 62;
},
{
position = 291;
width = 63;
}
);
};
org.pippin.gimp.org.kernagic = {
lstem = 0;
rstem = 0;
};
};
},
{
glyphname = k;
lastChange = "2016-08-30 17:52:43 +0000";
layers = (
{
anchors = (
{
name = top;
position = "{416, 1356}";
}
);
layerId = "97F6A72F-75C9-4005-877B-5FF286A1C934";
paths = (
{
closed = 1;
nodes = (
"348 795 CURVE",
"343 803 LINE",
"298 707 OFFCURVE",
"245 629 OFFCURVE",
"245 518 CURVE SMOOTH",
"245 469 OFFCURVE",
"235 420 OFFCURVE",
"235 371 CURVE SMOOTH",
"235 109 LINE SMOOTH",
"235 70 OFFCURVE",
"249 31 OFFCURVE",
"249 -8 CURVE SMOOTH",
"249 -24 OFFCURVE",
"230 -33 OFFCURVE",
"216 -33 CURVE SMOOTH",
"183 -33 OFFCURVE",
"171 -25 OFFCURVE",
"171 10 CURVE SMOOTH",
"171 395 LINE SMOOTH",
"171 481 OFFCURVE",
"190 567 OFFCURVE",
"190 653 CURVE SMOOTH",
"190 784 OFFCURVE",
"210 918 OFFCURVE",
"210 1049 CURVE SMOOTH",
"210 1333 LINE",
"218 1349 OFFCURVE",
"233 1356 OFFCURVE",
"249 1356 CURVE SMOOTH",
"269 1356 OFFCURVE",
"288 1337 OFFCURVE",
"288 1317 CURVE",
"270 1284 OFFCURVE",
"270 1254 OFFCURVE",
"270 1219 CURVE SMOOTH",
"270 1076 OFFCURVE",
"262 929 OFFCURVE",
"262 786 CURVE",
"301 802 OFFCURVE",
"546 1343 OFFCURVE",
"575 1343 CURVE SMOOTH",
"598 1343 OFFCURVE",
"628 1336 OFFCURVE",
"630 1309 CURVE",
"538 1174 OFFCURVE",
"481 1077 OFFCURVE",
"411 930 CURVE",
"411 887 OFFCURVE",
"407 842 OFFCURVE",
"407 799 CURVE SMOOTH",
"407 670 OFFCURVE",
"534 236 OFFCURVE",
"597 117 CURVE SMOOTH",
"617 78 OFFCURVE",
"661 41 OFFCURVE",
"661 -6 CURVE SMOOTH",
"661 -26 OFFCURVE",
"644 -37 OFFCURVE",
"626 -37 CURVE SMOOTH",
"520 -37 OFFCURVE",
"354 670 OFFCURVE"
);
}
);
width = 760;
},
{
anchors = (
{
name = bot;
position = "{420, 0}";
},
{
name = top;
position = "{447, 1365}";
}
);
layerId = "A3BE8AFD-64C8-4B22-9D76-F0CE292C8BA7";
paths = (
{
closed = 1;
nodes = (
"688 1289 CURVE SMOOTH",
"687 1284 OFFCURVE",
"496 976 OFFCURVE",
"468 919 CURVE",
"468 878 OFFCURVE",
"464 838 OFFCURVE",
"464 797 CURVE SMOOTH",
"464 678 OFFCURVE",
"590 252 OFFCURVE",
"652 149 CURVE SMOOTH",
"677 108 OFFCURVE",
"718 71 OFFCURVE",
"718 19 CURVE SMOOTH",
"718 -13 OFFCURVE",
"690 -35 OFFCURVE",
"660 -35 CURVE SMOOTH",
"521 -35 OFFCURVE",
"387 626 OFFCURVE",
"366 752 CURVE",
"310 641 OFFCURVE",
"292 519 OFFCURVE",
"292 396 CURVE SMOOTH",
"292 17 LINE SMOOTH",
"292 -14 OFFCURVE",
"278 -31 OFFCURVE",
"250 -31 CURVE SMOOTH",
"210 -31 OFFCURVE",
"182 -7 OFFCURVE",
"182 34 CURVE SMOOTH",
"182 656 LINE SMOOTH",
"182 877 OFFCURVE",
"221 1097 OFFCURVE",
"221 1318 CURVE",
"232 1342 OFFCURVE",
"256 1357 OFFCURVE",
"282 1357 CURVE SMOOTH",
"316 1357 OFFCURVE",
"345 1328 OFFCURVE",
"345 1294 CURVE SMOOTH",
"345 1288 LINE",
"319 1243 OFFCURVE",
"318 1038 OFFCURVE",
"318 915 CURVE SMOOTH",
"318 842 LINE",
"357 912 OFFCURVE",
"556 1344 OFFCURVE",
"609 1344 CURVE SMOOTH",
"642 1344 OFFCURVE",
"688 1329 OFFCURVE"
);
}
);
width = 864;
}
);
unicode = 006B;
userData = {
com.fontlab.hintData = {
hhints = (
{
position = -33;
width = 21;
},
{
position = 1336;
width = 20;
}
);
vhints = (
{
position = 102;
width = 64;
},
{
position = 121;
width = 55;
},
{
position = 141;
width = 78;
},
{
position = 141;
width = 60;
},
{
position = 279;
width = 59;
}
);
};
org.pippin.gimp.org.kernagic = {
lstem = 0;
rstem = 365;
};
};
},
{
glyphname = kgreenlandic;
lastChange = "2016-08-30 17:52:43 +0000";
layers = (
{
layerId = "97F6A72F-75C9-4005-877B-5FF286A1C934";
paths = (
{
closed = 1;
nodes = (
"348 795 CURVE",
"343 803 LINE",
"298 707 OFFCURVE",
"245 629 OFFCURVE",
"245 518 CURVE SMOOTH",
"245 469 OFFCURVE",
"235 420 OFFCURVE",
"235 371 CURVE SMOOTH",
"235 109 LINE SMOOTH",
"235 70 OFFCURVE",
"249 31 OFFCURVE",
"249 -8 CURVE SMOOTH",
"249 -24 OFFCURVE",
"230 -33 OFFCURVE",
"216 -33 CURVE SMOOTH",
"183 -33 OFFCURVE",
"171 -25 OFFCURVE",
"171 10 CURVE SMOOTH",
"171 395 LINE SMOOTH",
"171 481 OFFCURVE",
"190 567 OFFCURVE",
"190 653 CURVE SMOOTH",
"190 784 OFFCURVE",
"210 918 OFFCURVE",
"210 1049 CURVE SMOOTH",
"210 1333 LINE",
"218 1349 OFFCURVE",
"233 1356 OFFCURVE",
"249 1356 CURVE SMOOTH",
"269 1356 OFFCURVE",
"288 1337 OFFCURVE",
"288 1317 CURVE",
"270 1284 OFFCURVE",
"270 1254 OFFCURVE",
"270 1219 CURVE SMOOTH",
"270 1076 OFFCURVE",
"262 929 OFFCURVE",
"262 786 CURVE",
"301 802 OFFCURVE",
"546 1343 OFFCURVE",
"575 1343 CURVE SMOOTH",
"598 1343 OFFCURVE",
"628 1336 OFFCURVE",
"630 1309 CURVE",
"538 1174 OFFCURVE",
"481 1077 OFFCURVE",
"411 930 CURVE",
"411 887 OFFCURVE",
"407 842 OFFCURVE",
"407 799 CURVE SMOOTH",
"407 670 OFFCURVE",
"534 236 OFFCURVE",
"597 117 CURVE SMOOTH",
"617 78 OFFCURVE",
"661 41 OFFCURVE",
"661 -6 CURVE SMOOTH",
"661 -26 OFFCURVE",
"644 -37 OFFCURVE",
"626 -37 CURVE SMOOTH",
"520 -37 OFFCURVE",
"354 670 OFFCURVE"
);
}
);
width = 800;
},
{
components = (
{
name = k;
}
);
layerId = "A3BE8AFD-64C8-4B22-9D76-F0CE292C8BA7";
width = 864;
}
);
unicode = 0138;
userData = {
com.fontlab.hintData = {
hhints = (
{
position = -33;
width = 21;
},
{
position = 1336;
width = 20;
}
);
vhints = (
{
position = 102;
width = 64;
},
{
position = 121;
width = 55;
},
{
position = 141;
width = 78;
},
{
position = 141;
width = 60;
},
{
position = 279;
width = 59;
}
);
};
org.pippin.gimp.org.kernagic = {
lstem = 0;
rstem = 0;
};
};
},
{
glyphname = l;
lastChange = "2016-08-30 17:52:43 +0000";
layers = (
{
anchors = (
{
name = top;
position = "{416, 1356}";
}
);
layerId = "97F6A72F-75C9-4005-877B-5FF286A1C934";
paths = (
{
closed = 1;
nodes = (
"285 -18 CURVE",
"289 -20 LINE",
"262 -20 OFFCURVE",
"240 -27 OFFCURVE",
"213 -27 CURVE SMOOTH",
"190 -27 OFFCURVE",
"181 2 OFFCURVE",
"179 20 CURVE",
"183 40 OFFCURVE",
"183 65 OFFCURVE",
"183 88 CURVE SMOOTH",
"183 457 OFFCURVE",
"195 844 OFFCURVE",
"195 1180 CURVE SMOOTH",
"195 1205 OFFCURVE",
"205 1305 OFFCURVE",
"205 1315 CURVE SMOOTH",
"205 1325 OFFCURVE",
"212 1329 OFFCURVE",
"220 1329 CURVE SMOOTH",
"234 1329 OFFCURVE",
"254 1319 OFFCURVE",
"254 1321 CURVE",
"254 1266 OFFCURVE",
"252 1214 OFFCURVE",
"252 1159 CURVE SMOOTH",
"252 1009 OFFCURVE",
"254 863 OFFCURVE",
"254 713 CURVE SMOOTH",
"252 643 OFFCURVE",
"248 582 OFFCURVE",
"248 541 CURVE SMOOTH",
"248 484 OFFCURVE",
"252 424 OFFCURVE",
"252 367 CURVE",
"246 350 LINE",
"248 352 LINE",
"248 346 OFFCURVE",
"246 342 OFFCURVE",
"246 336 CURVE SMOOTH",
"246 326 OFFCURVE",
"248 315 OFFCURVE",
"252 307 CURVE",
"246 111 LINE",
"246 98 LINE SMOOTH",
"246 55 OFFCURVE",
"248 47 OFFCURVE",
"258 47 CURVE SMOOTH",
"311 47 OFFCURVE",
"422 41 OFFCURVE",
"451 41 CURVE SMOOTH",
"457 41 LINE SMOOTH",
"471 41 OFFCURVE",
"488 22 OFFCURVE",
"488 6 CURVE SMOOTH",
"488 -6 OFFCURVE",
"480 -18 OFFCURVE",
"455 -20 CURVE SMOOTH",
"402 -18 OFFCURVE",
"342 -18 OFFCURVE"
);
}
);
width = 640;
},
{
anchors = (
{
name = bot;
position = "{370, 0}";
},
{
name = top;
position = "{287, 1365}";
}
);
layerId = "A3BE8AFD-64C8-4B22-9D76-F0CE292C8BA7";
paths = (
{
closed = 1;
nodes = (
"307 545 LINE SMOOTH",
"307 435 OFFCURVE",
"299 333 OFFCURVE",
"299 219 CURVE SMOOTH",
"299 154 OFFCURVE",
"308 78 OFFCURVE",
"368 78 CURVE SMOOTH",
"387 78 OFFCURVE",
"420 81 OFFCURVE",
"453 81 CURVE SMOOTH",
"507 81 OFFCURVE",
"563 72 OFFCURVE",
"563 21 CURVE SMOOTH",
"563 -11 OFFCURVE",
"528 -29 OFFCURVE",
"501 -33 CURVE",
"442 -14 OFFCURVE",
"380 -9 OFFCURVE",
"318 -9 CURVE",
"297 -21 OFFCURVE",
"272 -28 OFFCURVE",
"248 -28 CURVE SMOOTH",
"214 -28 OFFCURVE",
"190 7 OFFCURVE",
"190 39 CURVE SMOOTH",
"190 344 OFFCURVE",
"216 649 OFFCURVE",
"216 954 CURVE SMOOTH",
"216 969 LINE",
"210 1033 OFFCURVE",
"204 1097 OFFCURVE",
"204 1161 CURVE SMOOTH",
"204 1207 OFFCURVE",
"205 1355 OFFCURVE",
"275 1355 CURVE SMOOTH",
"303 1355 OFFCURVE",
"327 1332 OFFCURVE",
"327 1304 CURVE SMOOTH",
"327 1252 OFFCURVE",
"313 1200 OFFCURVE",
"313 1148 CURVE SMOOTH",
"313 984 OFFCURVE",
"319 820 OFFCURVE",
"319 656 CURVE",
"308 630 OFFCURVE",
"307 599 OFFCURVE",
"307 570 CURVE SMOOTH"
);
}
);
width = 684;
}
);
unicode = 006C;
userData = {
com.fontlab.hintData = {
hhints = (
{
position = -20;
width = 61;
}
);
vhints = (
{
position = 125;
width = 57;
},
{
position = 135;
width = 49;
}
);
};
org.pippin.gimp.org.kernagic = {
lstem = 0;
rstem = 237;
};
};
},
{
glyphname = lslash;
lastChange = "2016-08-30 17:52:43 +0000";
layers = (
{
components = (
{
name = l;
transform = "{1, 0, 0, 1, 125, 0}";
}
);
layerId = "97F6A72F-75C9-4005-877B-5FF286A1C934";
paths = (
{
closed = 1;
nodes = (
"179 617 CURVE SMOOTH",
"169 617 OFFCURVE",
"146 623 OFFCURVE",
"146 638 CURVE SMOOTH",
"146 670 OFFCURVE",
"447 809 OFFCURVE",
"522 842 CURVE SMOOTH",
"527 844 OFFCURVE",
"535 846 OFFCURVE",
"542 846 CURVE SMOOTH",
"554 846 OFFCURVE",
"577 840 OFFCURVE",
"577 826 CURVE SMOOTH",
"577 794 OFFCURVE",
"281 658 OFFCURVE",
"199 621 CURVE SMOOTH",
"193 619 OFFCURVE",
"186 617 OFFCURVE"
);
}
);
width = 740;
},
{
layerId = "A3BE8AFD-64C8-4B22-9D76-F0CE292C8BA7";
paths = (
{
closed = 1;
nodes = (
"552 771 CURVE SMOOTH",
"552 723 OFFCURVE",
"471 714 OFFCURVE",
"356 686 CURVE",
"345 650 OFFCURVE",
"344 609 OFFCURVE",
"344 570 CURVE SMOOTH",
"344 545 LINE SMOOTH",
"344 435 OFFCURVE",
"336 333 OFFCURVE",
"336 219 CURVE SMOOTH",
"336 154 OFFCURVE",
"341 78 OFFCURVE",
"343 78 CURVE SMOOTH",
"376 78 OFFCURVE",
"433 81 OFFCURVE",
"490 81 CURVE SMOOTH",
"544 81 OFFCURVE",
"600 72 OFFCURVE",
"600 21 CURVE SMOOTH",
"600 -11 OFFCURVE",
"565 -29 OFFCURVE",
"538 -33 CURVE",
"479 -14 OFFCURVE",
"417 -9 OFFCURVE",
"355 -9 CURVE",
"334 -21 OFFCURVE",
"309 -28 OFFCURVE",
"285 -28 CURVE SMOOTH",
"251 -28 OFFCURVE",
"227 7 OFFCURVE",
"227 39 CURVE SMOOTH",
"227 45 OFFCURVE",
"238 446 OFFCURVE",
"246 650 CURVE",
"196 626 OFFCURVE",
"157 618 OFFCURVE",
"137 618 CURVE SMOOTH",
"124 618 OFFCURVE",
"110 634 OFFCURVE",
"110 657 CURVE SMOOTH",
"110 697 OFFCURVE",
"174 721 OFFCURVE",
"249 736 CURVE",
"251 809 OFFCURVE",
"253 881 OFFCURVE",
"253 954 CURVE SMOOTH",
"253 969 LINE",
"247 1033 OFFCURVE",
"241 1097 OFFCURVE",
"241 1161 CURVE SMOOTH",
"241 1207 OFFCURVE",
"242 1355 OFFCURVE",
"312 1355 CURVE SMOOTH",
"340 1355 OFFCURVE",
"364 1332 OFFCURVE",
"364 1304 CURVE SMOOTH",
"364 1252 OFFCURVE",
"350 1200 OFFCURVE",
"350 1148 CURVE SMOOTH",
"350 1024 OFFCURVE",
"354 899 OFFCURVE",
"355 775 CURVE",
"427 800 OFFCURVE",
"491 807 OFFCURVE",
"515 807 CURVE SMOOTH",
"533 807 OFFCURVE",
"552 793 OFFCURVE"
);
}
);
width = 774;
}
);
unicode = 0142;
userData = {
com.fontlab.hintData = {
hhints = (
{
position = -20;
width = 61;
},
{
position = 680;
width = 94;
}
);
vhints = (
{
position = 52;
width = 395;
},
{
position = 125;
width = 57;
},
{
position = 135;
width = 49;
}
);
};
org.pippin.gimp.org.kernagic = {
lstem = 0;
rstem = 0;
};
};
},
{
glyphname = m;
lastChange = "2016-08-30 17:52:43 +0000";
layers = (
{
anchors = (
{
name = top;
position = "{586, 1356}";
}
);
layerId = "97F6A72F-75C9-4005-877B-5FF286A1C934";
paths = (
{
closed = 1;
nodes = (
"885 1149 LINE",
"883 1149 LINE",
"880 1147 LINE",
"885 1145 LINE"
);
},
{
closed = 1;
nodes = (
"954 -106 CURVE SMOOTH",
"915 -106 OFFCURVE",
"913 -12 OFFCURVE",
"913 25 CURVE SMOOTH",
"913 159 LINE SMOOTH",
"913 314 OFFCURVE",
"912 468 OFFCURVE",
"901 621 CURVE SMOOTH",
"897 676 OFFCURVE",
"885 731 OFFCURVE",
"885 786 CURVE SMOOTH",
"885 870 OFFCURVE",
"893 956 OFFCURVE",
"893 1040 CURVE SMOOTH",
"893 1067 OFFCURVE",
"893 1112 OFFCURVE",
"885 1137 CURVE",
"844 1104 OFFCURVE",
"666 383 OFFCURVE",
"639 274 CURVE SMOOTH",
"631 237 OFFCURVE",
"628 115 OFFCURVE",
"577 115 CURVE SMOOTH",
"530 115 OFFCURVE",
"516 139 OFFCURVE",
"516 182 CURVE SMOOTH",
"516 286 OFFCURVE",
"319 1100 OFFCURVE",
"268 1149 CURVE",
"252 789 OFFCURVE",
"223 430 OFFCURVE",
"223 70 CURVE SMOOTH",
"223 43 OFFCURVE",
"223 15 OFFCURVE",
"225 -12 CURVE",
"219 -30 OFFCURVE",
"200 -39 OFFCURVE",
"182 -39 CURVE SMOOTH",
"174 -39 OFFCURVE",
"147 -20 OFFCURVE",
"147 -10 CURVE SMOOTH",
"147 422 OFFCURVE",
"211 850 OFFCURVE",
"211 1282 CURVE SMOOTH",
"211 1296 OFFCURVE",
"199 1307 OFFCURVE",
"199 1321 CURVE SMOOTH",
"199 1348 OFFCURVE",
"236 1352 OFFCURVE",
"254 1352 CURVE SMOOTH",
"309 1352 OFFCURVE",
"299 1270 OFFCURVE",
"305 1235 CURVE SMOOTH",
"325 1124 OFFCURVE",
"393 1027 OFFCURVE",
"422 918 CURVE SMOOTH",
"445 832 OFFCURVE",
"473 748 OFFCURVE",
"489 662 CURVE",
"516 608 LINE",
"536 502 OFFCURVE",
"573 396 OFFCURVE",
"575 287 CURVE",
"610 340 OFFCURVE",
"807 1085 OFFCURVE",
"827 1196 CURVE SMOOTH",
"835 1237 OFFCURVE",
"842 1348 OFFCURVE",
"901 1348 CURVE SMOOTH",
"917 1348 OFFCURVE",
"952 1329 OFFCURVE",
"952 1311 CURVE SMOOTH",
"952 1194 OFFCURVE",
"952 453 OFFCURVE",
"979 408 CURVE",
"979 336 OFFCURVE",
"975 265 OFFCURVE",
"975 193 CURVE SMOOTH",
"975 127 OFFCURVE",
"977 59 OFFCURVE",
"991 -4 CURVE SMOOTH",
"993 -16 OFFCURVE",
"999 -27 OFFCURVE",
"999 -39 CURVE SMOOTH",
"999 -62 OFFCURVE",
"983 -106 OFFCURVE"
);
}
);
width = 1160;
},
{
anchors = (
{
name = top;
position = "{607, 1365}";
}
);
layerId = "A3BE8AFD-64C8-4B22-9D76-F0CE292C8BA7";
paths = (
{
closed = 1;
nodes = (
"887 806 CURVE SMOOTH",
"887 890 OFFCURVE",
"895 975 OFFCURVE",
"895 1059 CURVE",
"855 937 OFFCURVE",
"690 114 OFFCURVE",
"603 114 CURVE SMOOTH",
"549 114 OFFCURVE",
"518 149 OFFCURVE",
"518 202 CURVE SMOOTH",
"518 348 OFFCURVE",
"365 904 OFFCURVE",
"312 1065 CURVE",
"295 740 OFFCURVE",
"273 415 OFFCURVE",
"273 89 CURVE SMOOTH",
"273 69 OFFCURVE",
"276 47 OFFCURVE",
"276 28 CURVE SMOOTH",
"276 -10 OFFCURVE",
"266 -40 OFFCURVE",
"208 -40 CURVE SMOOTH",
"183 -40 OFFCURVE",
"150 -20 OFFCURVE",
"150 9 CURVE SMOOTH",
"150 427 OFFCURVE",
"213 843 OFFCURVE",
"213 1261 CURVE",
"206 1272 OFFCURVE",
"201 1288 OFFCURVE",
"201 1301 CURVE SMOOTH",
"201 1340 OFFCURVE",
"250 1351 OFFCURVE",
"280 1351 CURVE SMOOTH",
"347 1351 OFFCURVE",
"586 520 OFFCURVE",
"614 370 CURVE",
"655 505 OFFCURVE",
"821 1348 OFFCURVE",
"928 1348 CURVE SMOOTH",
"959 1348 OFFCURVE",
"1003 1329 OFFCURVE",
"1003 1292 CURVE SMOOTH",
"1003 1002 OFFCURVE",
"1029 693 OFFCURVE",
"1029 423 CURVE SMOOTH",
"1029 351 OFFCURVE",
"1024 279 OFFCURVE",
"1024 207 CURVE SMOOTH",
"1024 206 LINE SMOOTH",
"1024 176 OFFCURVE",
"1040 23 OFFCURVE",
"1040 20 CURVE SMOOTH",
"1045 8 OFFCURVE",
"1049 -6 OFFCURVE",
"1049 -19 CURVE SMOOTH",
"1049 -58 OFFCURVE",
"1024 -107 OFFCURVE",
"980 -107 CURVE SMOOTH",
"921 -107 OFFCURVE",
"916 -21 OFFCURVE",
"916 21 CURVE SMOOTH",
"916 108 OFFCURVE",
"917 196 OFFCURVE",
"917 283 CURVE SMOOTH",
"917 461 OFFCURVE",
"887 643 OFFCURVE"
);
}
);
width = 1206;
}
);
unicode = 006D;
userData = {
com.fontlab.hintData = {
hhints = (
{
position = -39;
width = 21;
}
);
vhints = (
{
position = 98;
width = 76;
},
{
position = 162;
width = 57;
},
{
position = 864;
width = 86;
},
{
position = 864;
width = 62;
}
);
};
org.pippin.gimp.org.kernagic = {
lstem = 0;
rstem = 0;
};
};
},
{
glyphname = n;
lastChange = "2016-08-30 17:52:43 +0000";
layers = (
{
anchors = (
{
name = top;
position = "{506, 1356}";
}
);
layerId = "97F6A72F-75C9-4005-877B-5FF286A1C934";
paths = (
{
closed = 1;
nodes = (
"544 418 CURVE",
"536 428 OFFCURVE",
"495 553 OFFCURVE",
"489 571 CURVE SMOOTH",
"460 661 OFFCURVE",
"304 1143 OFFCURVE",
"257 1188 CURVE",
"245 1141 OFFCURVE",
"241 1091 OFFCURVE",
"241 1044 CURVE SMOOTH",
"241 989 OFFCURVE",
"245 936 OFFCURVE",
"245 883 CURVE SMOOTH",
"245 850 OFFCURVE",
"241 817 OFFCURVE",
"241 784 CURVE SMOOTH",
"241 737 OFFCURVE",
"247 688 OFFCURVE",
"249 641 CURVE",
"243 641 LINE",
"243 586 OFFCURVE",
"245 295 OFFCURVE",
"257 264 CURVE",
"257 80 LINE",
"265 66 OFFCURVE",
"265 53 OFFCURVE",
"265 37 CURVE SMOOTH",
"265 17 OFFCURVE",
"250 -4 OFFCURVE",
"227 -4 CURVE SMOOTH",
"186 -4 OFFCURVE",
"184 79 OFFCURVE",
"184 106 CURVE SMOOTH",
"184 151 OFFCURVE",
"192 195 OFFCURVE",
"192 240 CURVE SMOOTH",
"192 437 OFFCURVE",
"179 632 OFFCURVE",
"179 829 CURVE SMOOTH",
"179 950 OFFCURVE",
"192 1071 OFFCURVE",
"192 1192 CURVE SMOOTH",
"192 1218 LINE SMOOTH",
"192 1264 OFFCURVE",
"195 1321 OFFCURVE",
"229 1350 CURVE",
"235 1343 LINE",
"255 1348 LINE",
"280 1338 OFFCURVE",
"282 1317 OFFCURVE",
"288 1294 CURVE SMOOTH",
"351 1030 OFFCURVE",
"497 782 OFFCURVE",
"581 520 CURVE SMOOTH",
"622 391 OFFCURVE",
"636 244 OFFCURVE",
"706 125 CURVE",
"710 131 LINE",
"749 502 OFFCURVE",
"757 874 OFFCURVE",
"757 1247 CURVE SMOOTH",
"757 1263 OFFCURVE",
"753 1280 OFFCURVE",
"753 1298 CURVE SMOOTH",
"753 1316 OFFCURVE",
"757 1341 OFFCURVE",
"782 1341 CURVE SMOOTH",
"811 1341 OFFCURVE",
"827 1307 OFFCURVE",
"827 1282 CURVE SMOOTH",
"827 1145 LINE",
"816 1128 LINE",
"816 999 OFFCURVE",
"784 72 OFFCURVE",
"751 6 CURVE",
"744 5 OFFCURVE",
"729 1 OFFCURVE",
"716 -3 CURVE",
"716 -4 LINE",
"715 -3 LINE",
"705 -6 OFFCURVE",
"696 -8 OFFCURVE",
"693 -8 CURVE SMOOTH",
"658 -8 OFFCURVE",
"660 47 OFFCURVE",
"648 70 CURVE",
"650 76 LINE",
"632 193 OFFCURVE",
"579 305 OFFCURVE"
);
}
);
width = 1000;
},
{
anchors = (
{
name = bot;
position = "{500, 0}";
},
{
name = top;
position = "{567, 1365}";
}
);
layerId = "A3BE8AFD-64C8-4B22-9D76-F0CE292C8BA7";
paths = (
{
closed = 1;
nodes = (
"721 189 CURVE",
"754 534 OFFCURVE",
"762 881 OFFCURVE",
"762 1228 CURVE SMOOTH",
"762 1244 OFFCURVE",
"759 1264 OFFCURVE",
"759 1283 CURVE SMOOTH",
"759 1315 OFFCURVE",
"767 1344 OFFCURVE",
"810 1344 CURVE SMOOTH",
"852 1344 OFFCURVE",
"868 1302 OFFCURVE",
"868 1264 CURVE SMOOTH",
"868 1109 LINE SMOOTH",
"867 951 OFFCURVE",
"846 92 OFFCURVE",
"794 11 CURVE",
"771 4 OFFCURVE",
"746 -6 OFFCURVE",
"722 -6 CURVE SMOOTH",
"663 -6 OFFCURVE",
"672 55 OFFCURVE",
"653 93 CURVE SMOOTH",
"653 95 OFFCURVE",
"654 98 OFFCURVE",
"654 102 CURVE SMOOTH",
"654 219 OFFCURVE",
"350 1016 OFFCURVE",
"294 1145 CURVE",
"294 114 LINE",
"301 99 OFFCURVE",
"315 83 OFFCURVE",
"315 66 CURVE SMOOTH",
"315 32 OFFCURVE",
"287 2 OFFCURVE",
"253 2 CURVE SMOOTH",
"194 2 OFFCURVE",
"186 84 OFFCURVE",
"186 127 CURVE SMOOTH",
"186 361 OFFCURVE",
"182 595 OFFCURVE",
"182 829 CURVE SMOOTH",
"182 956 OFFCURVE",
"194 1084 OFFCURVE",
"194 1211 CURVE SMOOTH",
"194 1274 OFFCURVE",
"215 1322 OFFCURVE",
"269 1362 CURVE",
"269 1349 LINE",
"274 1352 OFFCURVE",
"279 1354 OFFCURVE",
"284 1354 CURVE SMOOTH",
"424 1354 OFFCURVE",
"666 324 OFFCURVE"
);
}
);
width = 1044;
}
);
unicode = 006E;
userData = {
com.fontlab.hintData = {
hhints = (
{
position = -4;
width = 21;
}
);
vhints = (
{
position = 104;
width = 66;
},
{
position = 117;
width = 96;
},
{
position = 117;
width = 65;
},
{
position = 682;
width = 70;
}
);
};
org.pippin.gimp.org.kernagic = {
lstem = 0;
rstem = 0;
};
};
},
{
glyphname = eng;
lastChange = "2016-08-30 17:52:43 +0000";
layers = (
{
layerId = "97F6A72F-75C9-4005-877B-5FF286A1C934";
paths = (
{
closed = 1;
nodes = (
"544 418 CURVE",
"534 428 OFFCURVE",
"489 569 OFFCURVE",
"489 571 CURVE SMOOTH",
"460 661 OFFCURVE",
"304 1143 OFFCURVE",
"257 1188 CURVE",
"245 1141 OFFCURVE",
"241 1091 OFFCURVE",
"241 1044 CURVE SMOOTH",
"241 989 OFFCURVE",
"245 936 OFFCURVE",
"245 883 CURVE SMOOTH",
"245 850 OFFCURVE",
"241 817 OFFCURVE",
"241 784 CURVE SMOOTH",
"241 749 OFFCURVE",
"245 713 OFFCURVE",
"245 676 CURVE SMOOTH",
"245 664 OFFCURVE",
"243 653 OFFCURVE",
"243 641 CURVE SMOOTH",
"243 586 OFFCURVE",
"245 295 OFFCURVE",
"257 264 CURVE",
"257 80 LINE",
"265 66 OFFCURVE",
"265 53 OFFCURVE",
"265 37 CURVE SMOOTH",
"265 17 OFFCURVE",
"250 -4 OFFCURVE",
"227 -4 CURVE SMOOTH",
"186 -4 OFFCURVE",
"184 79 OFFCURVE",
"184 106 CURVE SMOOTH",
"184 151 OFFCURVE",
"192 195 OFFCURVE",
"192 240 CURVE SMOOTH",
"192 437 OFFCURVE",
"179 632 OFFCURVE",
"179 829 CURVE SMOOTH",
"179 950 OFFCURVE",
"192 1071 OFFCURVE",
"192 1192 CURVE SMOOTH",
"192 1204 LINE SMOOTH",
"192 1253 OFFCURVE",
"192 1317 OFFCURVE",
"229 1350 CURVE",
"235 1343 LINE",
"255 1348 LINE",
"280 1338 OFFCURVE",
"282 1317 OFFCURVE",
"288 1294 CURVE SMOOTH",
"351 1030 OFFCURVE",
"497 782 OFFCURVE",
"581 520 CURVE SMOOTH",
"622 391 OFFCURVE",
"636 244 OFFCURVE",
"706 125 CURVE",
"710 131 LINE",
"749 502 OFFCURVE",
"757 874 OFFCURVE",
"757 1247 CURVE SMOOTH",
"757 1263 OFFCURVE",
"753 1280 OFFCURVE",
"753 1298 CURVE SMOOTH",
"753 1316 OFFCURVE",
"757 1341 OFFCURVE",
"782 1341 CURVE SMOOTH",
"811 1341 OFFCURVE",
"827 1307 OFFCURVE",
"827 1282 CURVE SMOOTH",
"827 1145 LINE",
"816 1128 LINE",
"816 1001 OFFCURVE",
"757 121 OFFCURVE",
"751 12 CURVE",
"751 -53 LINE SMOOTH",
"751 -174 OFFCURVE",
"704 -444 OFFCURVE",
"503 -444 CURVE",
"468 -410 LINE",
"468 -408 OFFCURVE",
"466 -403 OFFCURVE",
"466 -401 CURVE SMOOTH",
"466 -385 OFFCURVE",
"538 -389 OFFCURVE",
"601 -336 CURVE SMOOTH",
"662 -283 OFFCURVE",
"681 -148 OFFCURVE",
"685 -66 CURVE",
"650 76 LINE SMOOTH",
"621 191 OFFCURVE",
"579 305 OFFCURVE"
);
}
);
width = 1000;
},
{
layerId = "A3BE8AFD-64C8-4B22-9D76-F0CE292C8BA7";
paths = (
{
closed = 1;
nodes = (
"721 189 CURVE",
"754 534 OFFCURVE",
"762 881 OFFCURVE",
"762 1228 CURVE SMOOTH",
"762 1244 OFFCURVE",
"759 1264 OFFCURVE",
"759 1283 CURVE SMOOTH",
"759 1315 OFFCURVE",
"767 1344 OFFCURVE",
"810 1344 CURVE SMOOTH",
"852 1344 OFFCURVE",
"868 1302 OFFCURVE",
"868 1264 CURVE SMOOTH",
"868 1109 LINE SMOOTH",
"866 636 OFFCURVE",
"889 -512 OFFCURVE",
"573 -512 CURVE SMOOTH",
"533 -512 OFFCURVE",
"499 -493 OFFCURVE",
"499 -449 CURVE SMOOTH",
"499 -350 OFFCURVE",
"656 -454 OFFCURVE",
"681 -237 CURVE SMOOTH",
"690 -159 OFFCURVE",
"689 -80 OFFCURVE",
"697 -1 CURVE",
"638 136 OFFCURVE",
"348 1021 OFFCURVE",
"294 1145 CURVE",
"294 114 LINE",
"301 99 OFFCURVE",
"315 83 OFFCURVE",
"315 66 CURVE SMOOTH",
"315 32 OFFCURVE",
"287 2 OFFCURVE",
"253 2 CURVE SMOOTH",
"194 2 OFFCURVE",
"186 84 OFFCURVE",
"186 127 CURVE SMOOTH",
"186 361 OFFCURVE",
"182 595 OFFCURVE",
"182 829 CURVE SMOOTH",
"182 956 OFFCURVE",
"194 1084 OFFCURVE",
"194 1211 CURVE SMOOTH",
"194 1274 OFFCURVE",
"215 1322 OFFCURVE",
"269 1362 CURVE",
"269 1349 LINE",
"274 1352 OFFCURVE",
"279 1354 OFFCURVE",
"284 1354 CURVE SMOOTH",
"424 1354 OFFCURVE",
"666 324 OFFCURVE"
);
}
);
width = 1062;
}
);
unicode = 014B;
userData = {
com.fontlab.hintData = {
hhints = (
{
position = -4;
width = 21;
}
);
vhints = (
{
position = 104;
width = 66;
},
{
position = 117;
width = 96;
},
{
position = 117;
width = 65;
},
{
position = 610;
width = 66;
},
{
position = 682;
width = 70;
}
);
};
org.pippin.gimp.org.kernagic = {
lstem = 0;
rstem = 0;
};
};
},
{
glyphname = o;
lastChange = "2016-08-30 17:52:43 +0000";
layers = (
{
anchors = (
{
name = top;
position = "{416, 1356}";
}
);
layerId = "97F6A72F-75C9-4005-877B-5FF286A1C934";
paths = (
{
closed = 1;
nodes = (
"239 555 CURVE SMOOTH",
"239 475 OFFCURVE",
"258 20 OFFCURVE",
"403 20 CURVE SMOOTH",
"569 20 OFFCURVE",
"577 436 OFFCURVE",
"577 563 CURVE SMOOTH",
"577 725 OFFCURVE",
"554 885 OFFCURVE",
"554 1047 CURVE",
"546 1063 LINE",
"550 1073 LINE",
"550 1190 OFFCURVE",
"476 1294 OFFCURVE",
"378 1294 CURVE SMOOTH",
"208 1294 OFFCURVE",
"279 1071 OFFCURVE",
"245 909 CURVE",
"245 846 OFFCURVE",
"235 780 OFFCURVE",
"235 717 CURVE SMOOTH",
"235 664 OFFCURVE",
"239 608 OFFCURVE"
);
},
{
closed = 1;
nodes = (
"411 -39 CURVE SMOOTH",
"175 -39 OFFCURVE",
"171 527 OFFCURVE",
"171 715 CURVE SMOOTH",
"171 786 LINE SMOOTH",
"171 974 OFFCURVE",
"180 1357 OFFCURVE",
"319 1357 CURVE SMOOTH",
"328 1357 OFFCURVE",
"337 1355 OFFCURVE",
"347 1352 CURVE SMOOTH",
"470 1307 OFFCURVE",
"495 1354 OFFCURVE",
"554 1243 CURVE",
"622 1128 OFFCURVE",
"640 932 OFFCURVE",
"640 801 CURVE",
"636 791 LINE",
"636 709 OFFCURVE",
"640 629 OFFCURVE",
"640 547 CURVE SMOOTH",
"640 381 OFFCURVE",
"628 -39 OFFCURVE"
);
}
);
width = 820;
},
{
anchors = (
{
name = ogonek;
position = "{486, 0}";
},
{
name = top;
position = "{447, 1365}";
}
);
layerId = "A3BE8AFD-64C8-4B22-9D76-F0CE292C8BA7";
paths = (
{
closed = 1;
nodes = (
"407 1269 CURVE SMOOTH",
"309 1269 OFFCURVE",
"295 1141 OFFCURVE",
"295 1027 CURVE SMOOTH",
"295 981 OFFCURVE",
"297 937 OFFCURVE",
"297 906 CURVE SMOOTH",
"297 843 OFFCURVE",
"287 780 OFFCURVE",
"287 717 CURVE SMOOTH",
"287 613 OFFCURVE",
"298 47 OFFCURVE",
"432 47 CURVE SMOOTH",
"589 47 OFFCURVE",
"603 454 OFFCURVE",
"603 564 CURVE SMOOTH",
"603 723 OFFCURVE",
"577 882 OFFCURVE",
"576 1041 CURVE SMOOTH",
"576 1077 LINE SMOOTH",
"573 1171 OFFCURVE",
"509 1269 OFFCURVE"
);
},
{
closed = 1;
nodes = (
"709 798 CURVE SMOOTH",
"709 783 LINE SMOOTH",
"709 706 OFFCURVE",
"713 628 OFFCURVE",
"713 551 CURVE SMOOTH",
"713 368 OFFCURVE",
"698 -38 OFFCURVE",
"440 -38 CURVE SMOOTH",
"207 -38 OFFCURVE",
"176 410 OFFCURVE",
"176 626 CURVE SMOOTH",
"176 658 OFFCURVE",
"178 677 OFFCURVE",
"178 704 CURVE SMOOTH",
"178 711 OFFCURVE",
"177 714 OFFCURVE",
"175 714 CURVE SMOOTH",
"175 751 LINE SMOOTH",
"175 860 OFFCURVE",
"174 1378 OFFCURVE",
"329 1378 CURVE SMOOTH",
"615 1378 OFFCURVE",
"709 1114 OFFCURVE"
);
}
);
width = 900;
}
);
unicode = 006F;
userData = {
com.fontlab.hintData = {
hhints = (
{
position = -39;
width = 59;
},
{
position = 1294;
width = 82;
}
);
vhints = (
{
position = 94;
width = 64;
},
{
position = 500;
width = 63;
}
);
};
org.pippin.gimp.org.kernagic = {
lstem = 0;
rstem = 0;
};
};
},
{
glyphname = oslash;
lastChange = "2016-08-30 17:52:43 +0000";
layers = (
{
layerId = "97F6A72F-75C9-4005-877B-5FF286A1C934";
paths = (
{
closed = 1;
nodes = (
"235 647 CURVE",
"235 516 OFFCURVE",
"259 385 OFFCURVE",
"259 254 CURVE",
"284 404 OFFCURVE",
"343 969 OFFCURVE",
"355 1069 CURVE SMOOTH",
"363 1139 OFFCURVE",
"378 1208 OFFCURVE",
"378 1280 CURVE SMOOTH",
"378 1311 OFFCURVE",
"346 1331 OFFCURVE",
"319 1331 CURVE SMOOTH",
"315 1331 OFFCURVE",
"294 1323 OFFCURVE",
"288 1321 CURVE",
"278 1323 LINE",
"223 1294 OFFCURVE",
"220 907 OFFCURVE",
"220 782 CURVE SMOOTH",
"220 768 LINE SMOOTH",
"220 731 OFFCURVE",
"221 683 OFFCURVE"
);
},
{
closed = 1;
nodes = (
"284 111 CURVE SMOOTH",
"284 50 OFFCURVE",
"307 25 OFFCURVE",
"368 25 CURVE SMOOTH",
"489 25 OFFCURVE",
"489 287 OFFCURVE",
"489 369 CURVE SMOOTH",
"489 537 OFFCURVE",
"484 1096 OFFCURVE",
"421 1217 CURVE",
"364 881 OFFCURVE",
"321 285 OFFCURVE",
"298 201 CURVE SMOOTH",
"290 170 OFFCURVE",
"284 142 OFFCURVE"
);
},
{
closed = 1;
nodes = (
"185 -219 CURVE SMOOTH",
"197 -98 OFFCURVE",
"223 -17 OFFCURVE",
"235 104 CURVE SMOOTH",
"235 127 OFFCURVE",
"224 149 OFFCURVE",
"220 172 CURVE SMOOTH",
"182 398 OFFCURVE",
"179 638 OFFCURVE",
"179 870 CURVE SMOOTH",
"179 993 LINE SMOOTH",
"179 1083 OFFCURVE",
"179 1382 OFFCURVE",
"316 1382 CURVE SMOOTH",
"336 1382 OFFCURVE",
"356 1368 OFFCURVE",
"372 1360 CURVE",
"378 1364 LINE",
"392 1350 LINE",
"400 1383 OFFCURVE",
"419 1513 OFFCURVE",
"437 1591 CURVE",
"470 1591 LINE",
"470 1573 LINE SMOOTH",
"470 1553 OFFCURVE",
"429 1334 OFFCURVE",
"429 1311 CURVE SMOOTH",
"429 1291 OFFCURVE",
"446 1271 OFFCURVE",
"456 1255 CURVE",
"454 1251 LINE",
"458 1231 OFFCURVE",
"474 1214 OFFCURVE",
"482 1196 CURVE SMOOTH",
"498 1161 OFFCURVE",
"505 1110 OFFCURVE",
"505 1071 CURVE",
"501 1069 LINE",
"501 973 OFFCURVE",
"527 876 OFFCURVE",
"527 780 CURVE SMOOTH",
"527 770 LINE",
"532 764 LINE",
"532 645 OFFCURVE",
"538 529 OFFCURVE",
"538 410 CURVE SMOOTH",
"538 281 OFFCURVE",
"535 -14 OFFCURVE",
"351 -14 CURVE SMOOTH",
"318 -14 OFFCURVE",
"281 -6 OFFCURVE",
"261 23 CURVE",
"259 23 LINE",
"259 31 OFFCURVE",
"231 -248 OFFCURVE",
"204 -248 CURVE SMOOTH",
"192 -248 OFFCURVE",
"185 -239 OFFCURVE"
);
}
);
width = 720;
},
{
layerId = "A3BE8AFD-64C8-4B22-9D76-F0CE292C8BA7";
paths = (
{
closed = 1;
nodes = (
"323 215 CURVE",
"477 1247 LINE",
"454 1261 OFFCURVE",
"428 1269 OFFCURVE",
"399 1269 CURVE SMOOTH",
"301 1269 OFFCURVE",
"287 1141 OFFCURVE",
"287 1027 CURVE SMOOTH",
"287 981 OFFCURVE",
"289 937 OFFCURVE",
"289 906 CURVE SMOOTH",
"289 843 OFFCURVE",
"279 780 OFFCURVE",
"279 717 CURVE SMOOTH",
"279 650 OFFCURVE",
"284 391 OFFCURVE"
);
},
{
closed = 1;
nodes = (
"367 89 LINE",
"383 63 OFFCURVE",
"402 47 OFFCURVE",
"424 47 CURVE SMOOTH",
"581 47 OFFCURVE",
"595 454 OFFCURVE",
"595 564 CURVE SMOOTH",
"595 723 OFFCURVE",
"569 882 OFFCURVE",
"568 1041 CURVE SMOOTH",
"568 1077 LINE SMOOTH",
"567 1117 OFFCURVE",
"555 1158 OFFCURVE",
"533 1192 CURVE"
);
},
{
closed = 1;
nodes = (
"257 -227 LINE",
"295 32 LINE",
"185 166 OFFCURVE",
"168 463 OFFCURVE",
"168 626 CURVE SMOOTH",
"168 658 OFFCURVE",
"170 677 OFFCURVE",
"170 704 CURVE SMOOTH",
"170 711 OFFCURVE",
"169 714 OFFCURVE",
"167 714 CURVE SMOOTH",
"167 751 LINE SMOOTH",
"167 860 OFFCURVE",
"166 1378 OFFCURVE",
"321 1378 CURVE SMOOTH",
"388 1378 OFFCURVE",
"444 1364 OFFCURVE",
"491 1338 CURVE",
"527 1560 LINE",
"588 1560 LINE",
"548 1296 LINE",
"659 1194 OFFCURVE",
"701 1008 OFFCURVE",
"701 798 CURVE SMOOTH",
"701 783 LINE SMOOTH",
"701 706 OFFCURVE",
"705 628 OFFCURVE",
"705 551 CURVE SMOOTH",
"705 368 OFFCURVE",
"690 -38 OFFCURVE",
"432 -38 CURVE SMOOTH",
"402 -38 OFFCURVE",
"375 -31 OFFCURVE",
"351 -17 CURVE",
"307 -274 LINE"
);
}
);
width = 882;
}
);
unicode = 00F8;
userData = {
com.fontlab.hintData = {
hhints = (
{
position = -14;
width = 39;
},
{
position = 1331;
width = 51;
}
);
vhints = (
{
position = 96;
width = 41;
},
{
position = 102;
width = 74;
},
{
position = 152;
width = 49;
},
{
position = 295;
width = 51;
},
{
position = 354;
width = 33;
},
{
position = 406;
width = 38;
}
);
};
org.pippin.gimp.org.kernagic = {
lstem = 0;
rstem = 0;
};
};
},
{
glyphname = oe;
lastChange = "2016-08-30 17:52:43 +0000";
layers = (
{
layerId = "97F6A72F-75C9-4005-877B-5FF286A1C934";
paths = (
{
closed = 1;
nodes = (
"231 555 CURVE SMOOTH",
"231 475 OFFCURVE",
"250 20 OFFCURVE",
"395 20 CURVE SMOOTH",
"561 20 OFFCURVE",
"569 436 OFFCURVE",
"569 563 CURVE SMOOTH",
"569 725 OFFCURVE",
"546 885 OFFCURVE",
"546 1047 CURVE",
"538 1063 LINE",
"542 1073 LINE",
"542 1247 OFFCURVE",
"494 1319 OFFCURVE",
"437 1319 CURVE SMOOTH",
"349 1319 OFFCURVE",
"237 1147 OFFCURVE",
"237 909 CURVE SMOOTH",
"237 846 OFFCURVE",
"227 780 OFFCURVE",
"227 717 CURVE SMOOTH",
"227 664 OFFCURVE",
"231 608 OFFCURVE"
);
},
{
closed = 1;
nodes = (
"403 -39 CURVE SMOOTH",
"167 -39 OFFCURVE",
"163 527 OFFCURVE",
"163 715 CURVE SMOOTH",
"163 1185 OFFCURVE",
"296 1375 OFFCURVE",
"409 1375 CURVE SMOOTH",
"466 1375 OFFCURVE",
"518 1327 OFFCURVE",
"546 1243 CURVE SMOOTH",
"553 1221 OFFCURVE",
"569 1199 OFFCURVE",
"579 1174 CURVE",
"577 1213 OFFCURVE",
"575 1251 OFFCURVE",
"575 1292 CURVE SMOOTH",
"575 1329 OFFCURVE",
"589 1350 OFFCURVE",
"634 1350 CURVE SMOOTH",
"646 1350 OFFCURVE",
"659 1347 OFFCURVE",
"667 1337 CURVE",
"702 1327 OFFCURVE",
"851 1325 OFFCURVE",
"855 1278 CURVE SMOOTH",
"855 1264 OFFCURVE",
"827 1245 OFFCURVE",
"817 1239 CURVE",
"768 1255 OFFCURVE",
"700 1276 OFFCURVE",
"651 1278 CURVE",
"640 1266 LINE",
"642 1237 OFFCURVE",
"642 1207 OFFCURVE",
"642 1178 CURVE SMOOTH",
"642 1072 OFFCURVE",
"634 966 OFFCURVE",
"634 860 CURVE SMOOTH",
"634 831 OFFCURVE",
"638 803 OFFCURVE",
"663 803 CURVE SMOOTH",
"686 803 OFFCURVE",
"708 807 OFFCURVE",
"733 807 CURVE SMOOTH",
"756 807 OFFCURVE",
"810 805 OFFCURVE",
"812 770 CURVE SMOOTH",
"812 745 OFFCURVE",
"800 717 OFFCURVE",
"771 717 CURVE SMOOTH",
"757 717 OFFCURVE",
"732 723 OFFCURVE",
"724 733 CURVE",
"657 743 LINE",
"649 743 LINE",
"638 727 LINE",
"642 674 OFFCURVE",
"642 618 OFFCURVE",
"642 565 CURVE SMOOTH",
"642 469 OFFCURVE",
"638 370 OFFCURVE",
"638 274 CURVE SMOOTH",
"638 219 OFFCURVE",
"640 166 OFFCURVE",
"644 111 CURVE SMOOTH",
"648 45 OFFCURVE",
"672 33 OFFCURVE",
"733 33 CURVE SMOOTH",
"758 33 OFFCURVE",
"781 37 OFFCURVE",
"808 37 CURVE SMOOTH",
"826 37 OFFCURVE",
"868 37 OFFCURVE",
"868 10 CURVE SMOOTH",
"868 -27 OFFCURVE",
"807 -27 OFFCURVE",
"780 -27 CURVE SMOOTH",
"610 -27 LINE SMOOTH",
"581 -27 OFFCURVE",
"571 -9 OFFCURVE",
"569 16 CURVE SMOOTH",
"569 32 OFFCURVE",
"571 52 OFFCURVE",
"571 68 CURVE",
"565 76 LINE",
"569 88 OFFCURVE",
"573 103 OFFCURVE",
"575 117 CURVE",
"542 27 OFFCURVE",
"489 -39 OFFCURVE"
);
}
);
width = 980;
},
{
layerId = "A3BE8AFD-64C8-4B22-9D76-F0CE292C8BA7";
paths = (
{
closed = 1;
nodes = (
"398 1269 CURVE SMOOTH",
"291 1269 OFFCURVE",
"275 1078 OFFCURVE",
"275 909 CURVE SMOOTH",
"275 835 OFFCURVE",
"278 765 OFFCURVE",
"278 717 CURVE SMOOTH",
"278 613 OFFCURVE",
"289 47 OFFCURVE",
"423 47 CURVE SMOOTH",
"580 47 OFFCURVE",
"594 454 OFFCURVE",
"594 564 CURVE SMOOTH",
"594 723 OFFCURVE",
"568 882 OFFCURVE",
"567 1041 CURVE SMOOTH",
"567 1077 LINE SMOOTH",
"564 1171 OFFCURVE",
"500 1269 OFFCURVE"
);
},
{
closed = 1;
nodes = (
"707 1256 CURVE",
"707 1148 LINE SMOOTH",
"707 1145 OFFCURVE",
"698 961 OFFCURVE",
"698 867 CURVE SMOOTH",
"698 840 OFFCURVE",
"701 818 OFFCURVE",
"704 797 CURVE",
"727 797 OFFCURVE",
"771 801 OFFCURVE",
"798 801 CURVE SMOOTH",
"839 801 OFFCURVE",
"876 792 OFFCURVE",
"876 769 CURVE SMOOTH",
"876 744 OFFCURVE",
"859 718 OFFCURVE",
"831 718 CURVE SMOOTH",
"701 718 LINE",
"705 666 OFFCURVE",
"707 615 OFFCURVE",
"707 563 CURVE SMOOTH",
"707 440 OFFCURVE",
"698 315 OFFCURVE",
"698 192 CURVE SMOOTH",
"698 133 OFFCURVE",
"701 64 OFFCURVE",
"702 64 CURVE SMOOTH",
"736 64 OFFCURVE",
"795 69 OFFCURVE",
"853 69 CURVE SMOOTH",
"886 69 OFFCURVE",
"918 60 OFFCURVE",
"918 19 CURVE SMOOTH",
"918 -16 OFFCURVE",
"875 -27 OFFCURVE",
"843 -27 CURVE SMOOTH",
"670 -27 LINE SMOOTH",
"634 -27 OFFCURVE",
"600 1 OFFCURVE",
"598 36 CURVE SMOOTH",
"598 127 LINE",
"575 16 OFFCURVE",
"505 -38 OFFCURVE",
"431 -38 CURVE SMOOTH",
"198 -38 OFFCURVE",
"167 410 OFFCURVE",
"167 626 CURVE SMOOTH",
"167 658 OFFCURVE",
"169 677 OFFCURVE",
"169 704 CURVE SMOOTH",
"169 711 OFFCURVE",
"168 714 OFFCURVE",
"166 714 CURVE SMOOTH",
"166 751 LINE SMOOTH",
"166 887 OFFCURVE",
"174 1348 OFFCURVE",
"405 1348 CURVE SMOOTH",
"500 1348 OFFCURVE",
"577 1269 OFFCURVE",
"610 1178 CURVE",
"610 1332 OFFCURVE",
"628 1352 OFFCURVE",
"674 1352 CURVE SMOOTH",
"716 1352 OFFCURVE",
"919 1323 OFFCURVE",
"919 1261 CURVE SMOOTH",
"919 1242 OFFCURVE",
"907 1214 OFFCURVE",
"879 1214 CURVE SMOOTH",
"823 1214 OFFCURVE",
"763 1250 OFFCURVE"
);
}
);
width = 1008;
}
);
unicode = 0153;
userData = {
com.fontlab.hintData = {
hhints = (
{
position = -39;
width = 59;
},
{
position = 717;
width = 90;
},
{
position = 743;
width = 60;
},
{
position = 1239;
width = 98;
},
{
position = 1278;
width = 72;
},
{
position = 1294;
width = 82;
}
);
vhints = (
{
position = 94;
width = 64;
},
{
position = 477;
width = 96;
},
{
position = 500;
width = 69;
}
);
};
org.pippin.gimp.org.kernagic = {
lstem = 0;
rstem = 0;
};
};
},
{
glyphname = p;
lastChange = "2016-08-30 17:52:43 +0000";
layers = (
{
anchors = (
{
name = top;
position = "{336, 1356}";
}
);
layerId = "97F6A72F-75C9-4005-877B-5FF286A1C934";
paths = (
{
closed = 1;
nodes = (
"257 922 CURVE SMOOTH",
"257 859 OFFCURVE",
"249 792 OFFCURVE",
"249 729 CURVE",
"262 709 LINE",
"418 709 OFFCURVE",
"419 970 OFFCURVE",
"419 1079 CURVE SMOOTH",
"419 1171 OFFCURVE",
"409 1272 OFFCURVE",
"292 1272 CURVE SMOOTH",
"253 1272 OFFCURVE",
"247 1252 OFFCURVE",
"247 1217 CURVE SMOOTH",
"247 1119 OFFCURVE",
"257 1020 OFFCURVE"
);
},
{
closed = 1;
nodes = (
"198 -25 LINE",
"180 71 OFFCURVE",
"175 172 OFFCURVE",
"175 270 CURVE SMOOTH",
"175 397 OFFCURVE",
"184 524 OFFCURVE",
"184 651 CURVE",
"178 665 OFFCURVE",
"171 682 OFFCURVE",
"171 698 CURVE",
"191 731 OFFCURVE",
"192 846 OFFCURVE",
"192 887 CURVE SMOOTH",
"192 948 OFFCURVE",
"190 1257 OFFCURVE",
"180 1284 CURVE",
"184 1294 OFFCURVE",
"198 1335 OFFCURVE",
"210 1335 CURVE SMOOTH",
"300 1335 LINE SMOOTH",
"337 1335 OFFCURVE",
"405 1293 OFFCURVE",
"434 1268 CURVE SMOOTH",
"483 1223 OFFCURVE",
"485 1089 OFFCURVE",
"485 1026 CURVE SMOOTH",
"485 809 OFFCURVE",
"478 707 OFFCURVE",
"249 639 CURVE",
"249 395 LINE SMOOTH",
"249 262 OFFCURVE",
"266 127 OFFCURVE",
"266 -4 CURVE SMOOTH",
"266 -29 OFFCURVE",
"254 -41 OFFCURVE",
"227 -41 CURVE"
);
}
);
width = 640;
},
{
anchors = (
{
name = top;
position = "{387, 1365}";
}
);
layerId = "A3BE8AFD-64C8-4B22-9D76-F0CE292C8BA7";
paths = (
{
closed = 1;
nodes = (
"334 1228 CURVE",
"334 1231 OFFCURVE",
"314 1231 OFFCURVE",
"312 1231 CURVE SMOOTH",
"312 1115 LINE SMOOTH",
"312 982 OFFCURVE",
"315 849 OFFCURVE",
"316 716 CURVE SMOOTH",
"316 713 LINE",
"435 729 OFFCURVE",
"438 969 OFFCURVE",
"438 1059 CURVE SMOOTH",
"438 1136 OFFCURVE",
"434 1228 OFFCURVE"
);
},
{
closed = 1;
nodes = (
"197 1270 CURVE",
"202 1297 OFFCURVE",
"219 1342 OFFCURVE",
"252 1342 CURVE SMOOTH",
"342 1342 LINE SMOOTH",
"507 1342 OFFCURVE",
"550 1180 OFFCURVE",
"550 1044 CURVE SMOOTH",
"550 831 OFFCURVE",
"547 699 OFFCURVE",
"315 628 CURVE",
"315 409 LINE SMOOTH",
"315 279 OFFCURVE",
"331 151 OFFCURVE",
"331 21 CURVE SMOOTH",
"331 -14 OFFCURVE",
"296 -39 OFFCURVE",
"262 -39 CURVE",
"219 -14 LINE",
"197 85 OFFCURVE",
"194 186 OFFCURVE",
"194 287 CURVE SMOOTH",
"194 409 OFFCURVE",
"202 530 OFFCURVE",
"202 652 CURVE",
"195 668 OFFCURVE",
"190 685 OFFCURVE",
"190 702 CURVE SMOOTH",
"190 709 LINE",
"209 747 OFFCURVE",
"210 841 OFFCURVE",
"210 885 CURVE SMOOTH",
"210 944 OFFCURVE",
"213 1012 OFFCURVE",
"213 1080 CURVE SMOOTH",
"213 1147 OFFCURVE",
"211 1213 OFFCURVE"
);
}
);
width = 720;
}
);
unicode = 0070;
userData = {
com.fontlab.hintData = {
hhints = (
{
position = -41;
width = 21;
},
{
position = 1272;
width = 63;
}
);
vhints = (
{
position = 106;
width = 74;
},
{
position = 123;
width = 65;
},
{
position = 350;
width = 66;
}
);
};
org.pippin.gimp.org.kernagic = {
lstem = 0;
rstem = 245;
};
};
},
